SplineFontDB: 3.2
FontName: BoeingEICAS
FullName: BoeingEICAS
FamilyName: BoeingEICAS
Weight: Regular
Copyright: CREATED FOR USE IN SALTY SIMULATIONS BOEING 747
UComments: "2021-1-13: Created with FontForge (http://fontforge.org)"
Version: 1.4
ItalicAngle: 0
UnderlinePosition: -100
UnderlineWidth: 50
Ascent: 800
Descent: 200
InvalidEm: 0
LayerCount: 6
Layer: 0 0 "Back" 1
Layer: 1 0 "Fore" 0
Layer: 2 0 "Back 2" 1
Layer: 3 0 "Back 3" 1
Layer: 4 0 "Back 4" 1
Layer: 5 0 "Back 5" 1
XUID: [1021 14 -1331243796 20072]
StyleMap: 0x0000
FSType: 0
OS2Version: 0
OS2_WeightWidthSlopeOnly: 0
OS2_UseTypoMetrics: 1
CreationTime: 1610550704
ModificationTime: 1641970492
OS2TypoAscent: 0
OS2TypoAOffset: 1
OS2TypoDescent: 0
OS2TypoDOffset: 1
OS2TypoLinegap: 90
OS2WinAscent: 0
OS2WinAOffset: 1
OS2WinDescent: 0
OS2WinDOffset: 1
HheadAscent: 0
HheadAOffset: 1
HheadDescent: 0
HheadDOffset: 1
MarkAttachClasses: 1
DEI: 91125
Encoding: Custom
UnicodeInterp: none
NameList: AGL For New Fonts
DisplaySize: -72
AntiAlias: 1
FitToEm: 0
WidthSeparation: 10
WinInfo: 0 19 6
BeginPrivate: 0
EndPrivate
Grid
-1000 1130 m 0
 2000 1130 l 1024
-1000 2229.41665649 m 0
 2000 2229.41665649 l 1024
  Spiro
    -1000 2229.42 {
    2000 2229.42 o
    0 0 z
  EndSpiro
-1000 -97 m 0
 2000 -97 l 1024
  Spiro
    -1000 -97 {
    2000 -97 o
    0 0 z
  EndSpiro
-1000 747 m 0
 2000 747 l 1024
  Spiro
    -1000 747 {
    2000 747 o
    0 0 z
  EndSpiro
  Named: "EICAS HEIGHT"
2000 744.5 m 1024
  Spiro
    2000 744.5 {
    0 0 z
  EndSpiro
  Named: "eicas height"
2000 751.98046875 m 1024
  Spiro
    2000 751.98 {
    0 0 z
  EndSpiro
  Named: "MAX HEIGHT"
EndSplineSet
BeginChars: 97 97

StartChar: A
Encoding: 30 65 0
Width: 515
Flags: HW
HStem: -63167.6 13310<38470.4 49844.4> -489.594 2420G<42221.4 46093.4>
VStem: 18263.4 10769<-86560.3 -75026.4> 59403.4 10648<-86574.5 -75026.4>
LayerCount: 6
Fore
SplineSet
302.258789062 640.536132812 m 6
 317.555664062 700.1015625 227.170898438 720.458007812 212.572265625 663.610351562 c 6
 56.681640625 56.5478515625 l 6
 41.384765625 -3.017578125 131.780273438 -23.3740234375 146.37890625 33.4736328125 c 6
 302.258789062 640.536132812 l 6
257.41015625 652.083984375 m 5
 101.51953125 45 l 1029
302.258789062 663.610351562 m 6
 287.971679688 719.201171875 197.103515625 700.703125 212.572265625 640.525390625 c 6
 368.602539062 33.4736328125 l 6
 382.889648438 -22.1171875 473.7578125 -3.619140625 458.2890625 56.55859375 c 6
 302.258789062 663.610351562 l 6
257.41015625 652.083984375 m 5
 413.440429688 45 l 1029
165.038085938 292.338867188 m 5
 165.038085938 199.741210938 l 5
 354.240234375 199.741210938 l 5
 354.240234375 292.338867188 l 5
 165.038085938 292.338867188 l 5
165.059570312 246.040039062 m 5
 354.250976562 246.040039062 l 1029
EndSplineSet
Validated: 524331
EndChar

StartChar: B
Encoding: 31 66 1
Width: 500
InSpiro: 1
Flags: HW
HStem: -2.21565e+11 2.92443e+10<1.80509e+10 6.94213e+10> -1.2328e+11 3.13547e+10<1.77494e+10 6.41242e+10> -2.87041e+10 3.20484e+10<1.71765e+10 6.51136e+10>
VStem: -1.17964e+10 2.98473e+10<-1.92321e+11 -1.2328e+11 -9.19257e+10 -2.87041e+10>
LayerCount: 6
Fore
SplineSet
140.32421875 652.51171875 m 2
 140.32421875 712.120117188 47.7373046875 712.431640625 47.7373046875 652.51171875 c 2
 47.7373046875 45.857421875 l 2
 47.7373046875 -13.7509765625 140.32421875 -14.0625 140.32421875 45.857421875 c 2
 140.32421875 652.51171875 l 2
  Spiro
    140.324 652.512 ]
    116.362 692.3 o
    71.7004 692.369 o
    47.7375 652.512 [
    47.7375 45.8575 ]
    71.7004 6.06933 o
    116.362 6 o
    140.324 45.8575 [
    0 0 z
  EndSpiro
94.0361328125 92.15625 m 2
 34.427734375 92.15625 34.1162109375 -0.44140625 94.0361328125 -0.44140625 c 2
 303.959960938 -0.44140625 l 2
 363.568359375 -0.44140625 363.869140625 92.15625 303.959960938 92.15625 c 2
 94.0361328125 92.15625 l 2
  Spiro
    94.0364 92.1563 ]
    54.2482 68.1907 o
    54.1789 23.5243 o
    94.0364 -0.44133 [
    303.96 -0.44133 ]
    343.746 23.5243 o
    343.813 68.1907 o
    303.96 92.1563 [
    0 0 z
  EndSpiro
291.692382812 604.451171875 m 0
 351.12890625 604.451171875 351.676757812 696.500976562 292.122070312 697.038085938 c 0
 226.100585938 697.62890625 160.057617188 698.810546875 94.0361328125 698.810546875 c 0
 34.599609375 698.810546875 34.0517578125 606.760742188 93.6064453125 606.223632812 c 2
 93.6064453125 606.223632812 291.2734375 604.451171875 291.692382812 604.451171875 c 0
  Spiro
    291.693 604.451 o
    331.435 628.295 o
    331.668 672.837 o
    292.122 697.038 o
    226.161 697.759 o
    159.997 698.483 o
    94.0364 698.811 o
    54.2944 674.967 o
    54.0609 630.425 o
    93.6067 606.224 v
    144.781 605.765 o
    240.239 604.91 o
    0 0 z
  EndSpiro
309.631835938 311.08203125 m 1
 309.631835938 403.6796875 l 1
 90.5234375 403.6796875 l 1
 90.5234375 311.08203125 l 1
 309.631835938 311.08203125 l 1
  Spiro
    309.632 311.082 v
    309.632 403.68 v
    90.5237 403.68 v
    90.5237 311.082 v
    0 0 z
  EndSpiro
285.225585938 88.203125 m 0
 232.803710938 64.95703125 266.018554688 -21.6142578125 322.68359375 3.51171875 c 0
 422.983398438 47.9736328125 495.063476562 187.536132812 423.23046875 311.962890625 c 0
 401.57421875 349.485351562 368.842773438 380.025390625 329.880859375 399.017578125 c 0
 274.880859375 425.840820312 236.509765625 341.514648438 289.393554688 315.733398438 c 0
 348.260742188 287.030273438 385.321289062 199.556640625 337.078125 130.87109375 c 0
 324.155273438 112.426757812 305.861328125 97.3447265625 285.225585938 88.203125 c 0
  Spiro
    285.226 88.2032 o
    259.049 50.377 o
    276.173 9.10605 o
    322.684 3.51179 o
    409.223 75.4955 o
    451.389 186.696 o
    423.231 311.963 o
    398.091 346.957 o
    366.552 376.371 o
    329.881 399.018 o
    283.224 395.104 o
    264.165 354.699 o
    289.394 315.733 o
    338.603 270.372 o
    359.24 202.874 o
    337.078 130.871 o
    322.494 113.659 o
    304.95 99.2166 o
    0 0 z
  EndSpiro
334.693359375 318.451171875 m 1
 390.638671875 354.56640625 438.61328125 422.274414062 432.543945312 513.29296875 c 0
 427.022460938 596.813476562 374.482421875 661.96484375 311.8984375 692.408203125 c 1
 298.40625 664.62890625 284.87109375 636.881835938 271.400390625 609.081054688 c 0
 308.579101562 591.001953125 340.418945312 551.696289062 340.418945312 499.166992188 c 0
 340.418945312 451.987304688 314.916992188 415.893554688 284.484375 396.24609375 c 1
 334.693359375 318.451171875 l 1
  Spiro
    334.694 318.451 v
    386.23 364.734 o
    422.33 430.426 o
    432.544 513.293 o
    412.752 590.016 o
    369.713 651.052 o
    311.899 692.408 v
    298.41 664.664 o
    284.875 636.839 o
    271.401 609.081 o
    305.788 584.254 o
    330.806 546.949 o
    340.419 499.167 o
    332.695 455.92 o
    312.487 421.147 o
    284.485 396.246 v
    0 0 z
  EndSpiro
EndSplineSet
Validated: 524325
EndChar

StartChar: C
Encoding: 32 67 2
Width: 500
InSpiro: 1
Flags: HW
VStem: -1158.8 12100<-60371.6 -50571.7 -19837.7 -11973.8>
LayerCount: 6
Fore
SplineSet
140.616210938 532.471679688 m 2
 140.616210938 592.080078125 48.0185546875 592.380859375 48.0185546875 532.471679688 c 2
 48.0185546875 161.264648438 l 2
 48.0185546875 101.65625 140.616210938 101.35546875 140.616210938 161.264648438 c 2
 140.616210938 532.471679688 l 2
  Spiro
    140.616 532.471 ]
    116.651 572.257 o
    71.9844 572.324 o
    48.0187 532.471 [
    48.0187 161.264 ]
    71.9844 121.479 o
    116.651 121.412 o
    140.616 161.264 [
    0 0 z
  EndSpiro
50.84375 554.439453125 m 0
 29.509765625 496.141601562 118.208007812 467.137695312 138.446289062 522.427734375 c 0
 160.994140625 584.044921875 242.108398438 632.416992188 319.000976562 591.510742188 c 0
 337.971679688 581.4453125 354.514648438 566.298828125 366.202148438 548.294921875 c 0
 398.095703125 499.149414062 477.931640625 547.424804688 444.469726562 598.965820312 c 0
 408.504882812 654.384765625 341.946289062 701.28515625 254.923828125 699.78125 c 0
 155.719726562 698.041015625 79.0849609375 631.6328125 50.84375 554.439453125 c 0
  Spiro
    50.8439 554.439 o
    59.5443 507.976 o
    102.045 493.204 o
    138.446 522.427 o
    178.136 576.769 o
    243.1 605.483 o
    319.001 591.51 o
    337.056 579.847 o
    353.001 565.248 o
    366.202 548.295 o
    408.059 528.13 o
    446.162 552.039 o
    444.47 598.965 o
    398.738 650.022 o
    334.678 686.654 o
    254.924 699.781 o
    164.281 678.519 o
    94.2022 625.978 o
    0 0 z
  EndSpiro
138.446289062 177.485351562 m 0
 118.712890625 231.411132812 29.208984375 204.598632812 50.84375 145.473632812 c 0
 90.0419921875 38.341796875 230.592773438 -44.072265625 362.614257812 25.9775390625 c 0
 395.732421875 43.541015625 424.038085938 69.47265625 444.469726562 100.958007812 c 0
 477.641601562 152.037109375 398.740234375 201.762695312 366.202148438 151.62890625 c 0
 332.278320312 99.37890625 248.059570312 71.79296875 184.465820312 117.146484375 c 0
 163.733398438 131.916992188 147.233398438 153.487304688 138.446289062 177.485351562 c 0
  Spiro
    138.446 177.485 o
    102.203 206.286 o
    59.5227 192.002 o
    50.8439 145.473 o
    119.662 51.3885 o
    231.945 2 o
    362.614 25.9772 o
    393.985 46.203 o
    421.552 71.4553 o
    444.47 100.958 o
    446.176 147.898 o
    408.281 172.13 o
    366.202 151.629 o
    318.2 109.418 o
    252.239 94.3199 o
    184.466 117.146 o
    165.291 134.003 o
    149.662 154.48 o
    0 0 z
  EndSpiro
EndSplineSet
Validated: 524325
EndChar

StartChar: D
Encoding: 33 68 3
Width: 500
InSpiro: 1
Flags: HW
HStem: -90635.4 13745.6<17398.7 25412> -13921.4 13794<17931.1 25412>
VStem: 33128.7 12148.4<-68249.1 -55545.4 -38944.2 -22840.1>
LayerCount: 6
Fore
SplineSet
140.372070312 651.782226562 m 2
 140.372070312 711.390625 47.7744140625 711.702148438 47.7744140625 651.782226562 c 2
 47.7744140625 47.2548828125 l 2
 47.7744140625 -12.353515625 140.372070312 -12.654296875 140.372070312 47.2548828125 c 2
 140.372070312 651.782226562 l 2
  Spiro
    140.372 651.782 ]
    116.407 691.57 o
    71.7404 691.64 o
    47.7748 651.782 [
    47.7748 47.2549 ]
    71.7404 7.4691 o
    116.407 7.40216 o
    140.372 47.2549 [
    0 0 z
  EndSpiro
94.083984375 93.478515625 m 2
 34.4326171875 93.478515625 34.185546875 0.98828125 94.0517578125 0.966796875 c 2
 292.223632812 0.966796875 l 2
 351.875 0.966796875 352.1328125 93.45703125 292.255859375 93.478515625 c 2
 94.083984375 93.478515625 l 2
  Spiro
    94.0844 93.4785 ]
    54.2807 69.5399 o
    54.2173 24.9198 o
    94.0521 0.966797 [
    292.224 0.966797 ]
    332.03 24.9054 o
    332.096 69.5256 o
    292.256 93.4785 [
    0 0 z
  EndSpiro
359.13671875 195.454101562 m 0
 361.596679688 146.211914062 319.86328125 99.6337890625 280.890625 89.8046875 c 1
 303.556640625 0 l 1
 383.521484375 20.1845703125 456.67578125 98.61328125 451.616210938 200.137695312 c 1
 451.616210938 200.137695312 359.13671875 195.518554688 359.13671875 195.454101562 c 0
  Spiro
    359.137 195.454 o
    348.627 148.406 o
    319.009 110.591 o
    280.891 89.8047 v
    303.557 0 v
    378.54 38.2424 o
    433.289 107.696 o
    451.617 200.138 v
    427.682 198.94 o
    383.072 196.695 o
    0 0 z
  EndSpiro
94.0732421875 698.081054688 m 2
 34.46484375 698.081054688 34.1533203125 605.494140625 94.0732421875 605.494140625 c 2
 292.245117188 605.494140625 l 2
 351.842773438 605.494140625 352.154296875 698.081054688 292.245117188 698.081054688 c 2
 94.0732421875 698.081054688 l 2
  Spiro
    94.0736 698.081 ]
    54.2855 674.118 o
    54.2161 629.457 o
    94.0736 605.494 [
    292.245 605.494 ]
    332.027 629.457 o
    332.096 674.118 o
    292.245 698.081 [
    0 0 z
  EndSpiro
280.890625 606.890625 m 1
 321.044921875 596.760742188 363.616210938 548.399414062 359.244140625 496.643554688 c 1
 451.508789062 488.844726562 l 1
 460.328125 593.248046875 386.3359375 675.801757812 303.588867188 696.684570312 c 1
 280.890625 606.890625 l 1
  Spiro
    280.891 606.891 v
    319.987 585.339 o
    349.818 545.932 o
    359.245 496.644 v
    451.509 488.845 v
    435.506 584.405 o
    380.606 656.777 o
    303.589 696.685 v
    0 0 z
  EndSpiro
451.669921875 492.787109375 m 2
 451.669921875 552.395507812 359.083007812 552.70703125 359.083007812 492.787109375 c 2
 359.083007812 197.795898438 l 2
 359.083007812 138.1875 451.669921875 137.875976562 451.669921875 197.795898438 c 2
 451.669921875 492.787109375 l 2
  Spiro
    451.67 492.787 ]
    427.707 532.575 o
    383.046 532.645 o
    359.083 492.787 [
    359.083 197.796 ]
    383.046 158.008 o
    427.707 157.938 o
    451.67 197.796 [
    0 0 z
  EndSpiro
EndSplineSet
Validated: 524325
EndChar

StartChar: E
Encoding: 34 69 4
Width: 500
InSpiro: 1
Flags: HW
HStem: -88175.9 10769<40303.1 44811.5>
LayerCount: 6
Fore
SplineSet
141.239257812 652.0859375 m 2
 141.239257812 711.694335938 48.6416015625 711.995117188 48.6416015625 652.0859375 c 2
 48.6416015625 45.8505859375 l 2
 48.6416015625 -13.7470703125 141.239257812 -14.05859375 141.239257812 45.8505859375 c 2
 141.239257812 652.0859375 l 2
  Spiro
    141.24 652.086 ]
    117.275 691.871 o
    72.6082 691.938 o
    48.6425 652.086 [
    48.6425 45.8503 ]
    72.6082 6.06933 o
    117.275 6 o
    141.24 45.8503 [
    0 0 z
  EndSpiro
94.9404296875 92.1494140625 m 2
 35.33203125 92.1494140625 35.0205078125 -0.4375 94.9404296875 -0.4375 c 2
 406.5390625 -0.4375 l 2
 466.147460938 -0.4375 466.448242188 92.1494140625 406.5390625 92.1494140625 c 2
 94.9404296875 92.1494140625 l 2
  Spiro
    94.9413 92.1492 ]
    55.1532 68.1863 o
    55.0838 23.5251 o
    94.9413 -0.437746 [
    406.54 -0.437746 ]
    446.326 23.5251 o
    446.393 68.1863 o
    406.54 92.1492 [
    0 0 z
  EndSpiro
94.9404296875 698.384765625 m 2
 35.33203125 698.384765625 35.0205078125 605.787109375 94.9404296875 605.787109375 c 2
 406.5390625 605.787109375 l 2
 466.147460938 605.787109375 466.448242188 698.384765625 406.5390625 698.384765625 c 2
 94.9404296875 698.384765625 l 2
  Spiro
    94.9413 698.385 ]
    55.1532 674.419 o
    55.0838 629.753 o
    94.9413 605.787 [
    406.54 605.787 ]
    446.326 629.753 o
    446.393 674.419 o
    406.54 698.385 [
    0 0 z
  EndSpiro
96.6376953125 400.342773438 m 2
 37.029296875 400.342773438 36.728515625 307.755859375 96.6376953125 307.755859375 c 2
 354.890625 307.755859375 l 2
 414.499023438 307.755859375 414.799804688 400.342773438 354.890625 400.342773438 c 2
 96.6376953125 400.342773438 l 2
  Spiro
    96.6386 400.343 ]
    56.8528 376.38 o
    56.7859 331.718 o
    96.6386 307.756 [
    354.892 307.756 ]
    394.677 331.718 o
    394.744 376.38 o
    354.892 400.343 [
    0 0 z
  EndSpiro
EndSplineSet
Validated: 524325
EndChar

StartChar: F
Encoding: 35 70 5
Width: 500
InSpiro: 1
Flags: HW
HStem: -11689.3 12947<31757.6 38463.9>
LayerCount: 6
Fore
SplineSet
406.698242188 604.971679688 m 2
 466.306640625 604.971679688 466.618164062 697.55859375 406.698242188 697.55859375 c 2
 94.77734375 697.55859375 l 2
 35.1689453125 697.55859375 34.857421875 604.971679688 94.77734375 604.971679688 c 2
 406.698242188 604.971679688 l 2
  Spiro
    406.698 604.972 ]
    446.487 628.935 o
    446.556 673.596 o
    406.698 697.559 [
    94.7776 697.559 ]
    54.9894 673.596 o
    54.9201 628.935 o
    94.7776 604.972 [
    0 0 z
  EndSpiro
141.076171875 651.270507812 m 2
 141.076171875 710.87890625 48.478515625 711.1796875 48.478515625 651.270507812 c 2
 48.478515625 44.7880859375 l 2
 48.478515625 -14.8203125 141.076171875 -15.1318359375 141.076171875 44.7880859375 c 2
 141.076171875 651.270507812 l 2
  Spiro
    141.076 651.271 ]
    117.111 691.056 o
    72.4444 691.123 o
    48.4787 651.271 [
    48.4787 44.7882 ]
    72.4444 5 o
    117.111 4.93067 o
    141.076 44.7882 [
    0 0 z
  EndSpiro
98.751953125 427.693359375 m 2
 39.7666015625 427.693359375 39.4658203125 336.0625 98.751953125 336.0625 c 2
 343.834960938 336.0625 l 2
 402.8203125 336.0625 403.131835938 427.693359375 343.834960938 427.693359375 c 2
 98.751953125 427.693359375 l 2
  Spiro
    98.7522 427.693 ]
    59.3815 403.978 o
    59.3146 359.778 o
    98.7522 336.063 [
    343.835 336.063 ]
    383.208 359.778 o
    383.278 403.978 o
    343.835 427.693 [
    0 0 z
  EndSpiro
EndSplineSet
Validated: 524325
EndChar

StartChar: G
Encoding: 36 71 6
Width: 500
InSpiro: 1
Flags: HW
HStem: -10912.9 11737<11584.6 17581.3 22784.3 30622.4>
VStem: -3956.66 10648<-71552.2 -61853.9 -25553.9 -16846.7> 34884.3 11132<-73324 -66814.9>
LayerCount: 6
Fore
SplineSet
140.590820312 520.543945312 m 0
 140.590820312 580.055664062 48.3046875 580.49609375 48.00390625 520.791015625 c 0
 47.40234375 404.130859375 46.220703125 287.459960938 46.220703125 170.7890625 c 0
 46.220703125 111.288085938 138.517578125 110.84765625 138.818359375 170.552734375 c 2
 138.818359375 170.552734375 140.590820312 520.307617188 140.590820312 520.543945312 c 0
  Spiro
    140.591 520.545 o
    116.695 560.306 o
    72.1005 560.469 o
    48.0039 520.792 o
    47.275 404.245 o
    46.5487 287.344 o
    46.2207 170.79 o
    70.1196 131.036 o
    114.719 130.877 o
    138.818 170.554 v
    139.277 261.084 o
    140.132 429.857 o
    0 0 z
  EndSpiro
361.063476562 197.451171875 m 0
 367.788085938 65.6982421875 165.168945312 63.109375 140.966796875 180.19921875 c 0
 129.30078125 236.681640625 37.77734375 221.975585938 50.2919921875 161.389648438 c 0
 68.908203125 71.2841796875 144.823242188 -0.0009765625 251.235351562 -0.0009765625 c 0
 363.405273438 -0.0009765625 453.779296875 80.404296875 453.779296875 192.853515625 c 0
 453.779296875 259.17578125 360.923828125 263.859375 361.063476562 197.451171875 c 0
  Spiro
    361.063 197.452 o
    312.458 108.449 o
    210.18 103.391 o
    140.967 180.2 o
    109.537 213.879 o
    65.6094 205.719 o
    50.292 161.391 o
    86.9613 79.5735 o
    156.065 21.7769 o
    251.235 0 o
    353.51 24.9624 o
    426.247 92.9635 o
    453.779 192.854 o
    429.752 238.256 o
    384.998 240.493 o
    0 0 z
  EndSpiro
361.009765625 199.8359375 m 2
 361.009765625 140.227539062 453.596679688 139.926757812 453.596679688 199.8359375 c 2
 453.596679688 343.749023438 l 2
 453.596679688 403.357421875 361.009765625 403.668945312 361.009765625 343.749023438 c 2
 361.009765625 199.8359375 l 2
  Spiro
    361.01 199.837 ]
    384.973 160.051 o
    429.634 159.984 o
    453.597 199.837 [
    453.597 343.75 ]
    429.634 383.538 o
    384.973 383.607 o
    361.01 343.75 [
    0 0 z
  EndSpiro
307.40625 297.4609375 m 0
 367.712890625 297.4609375 453.596679688 281.916992188 453.596679688 343.749023438 c 0
 453.596679688 405.52734375 367.680664062 390.047851562 307.40625 390.047851562 c 0
 247.797851562 390.047851562 247.486328125 297.4609375 307.40625 297.4609375 c 0
  Spiro
    307.406 297.462 o
    372.045 295.722 o
    429.142 304.289 o
    453.597 343.75 o
    429.135 383.19 o
    372.031 391.774 o
    307.406 390.049 o
    267.618 366.086 o
    267.549 321.425 o
    0 0 z
  EndSpiro
49.8623046875 533.595703125 m 0
 32.5244140625 474.502929688 122.221679688 451.278320312 138.721679688 507.502929688 c 0
 158.86328125 576.124023438 237.32421875 637.279296875 320.318359375 590.282226562 c 0
 338.934570312 579.754882812 355.015625 564.103515625 366.090820312 545.77734375 c 0
 395.868164062 496.481445312 477.358398438 540.653320312 445.400390625 593.547851562 c 0
 397.264648438 673.244140625 276.973632812 733.625976562 164.696289062 676.069335938 c 0
 109.696289062 647.849609375 68.328125 596.512695312 49.8623046875 533.595703125 c 0
  Spiro
    49.8623 533.597 o
    61.4935 488.104 o
    104.543 476.156 o
    138.722 507.504 o
    176.258 569.855 o
    240.901 604.973 o
    320.318 590.283 o
    337.981 578.152 o
    353.453 563.106 o
    366.091 545.778 o
    406.943 524.496 o
    445.685 546.738 o
    445.4 593.549 o
    376.269 663.098 o
    276.567 697.977 o
    164.696 676.07 o
    114.628 640.614 o
    75.5862 592.172 o
    0 0 z
  EndSpiro
EndSplineSet
Validated: 524325
EndChar

StartChar: H
Encoding: 37 72 7
Width: 500
InSpiro: 1
Flags: HWO
VStem: -1992.76 1023<-3895.21 -3511.58 3528.42 3912.06> 1505.24 1023<-3906.21 -3522.58 3517.42 3901.06>
LayerCount: 6
Fore
SplineSet
138.474609375 653.844726562 m 2
 138.474609375 679.002929688 118.053710938 699.423828125 92.8955078125 699.423828125 c 0
 67.7373046875 699.423828125 47.31640625 679.002929688 47.31640625 653.844726562 c 2
 47.31640625 45.58984375 l 2
 47.31640625 20.4423828125 67.7373046875 0.0107421875 92.8955078125 0.0107421875 c 0
 118.053710938 0.0107421875 138.474609375 20.4423828125 138.474609375 45.58984375 c 2
 138.474609375 653.844726562 l 2
  Spiro
    138.475 653.845 ]
    132.26 676.823 o
    115.873 693.21 o
    92.8955 699.424 o
    69.9175 693.21 o
    53.5306 676.823 o
    47.3164 653.845 [
    47.3164 45.5898 ]
    53.5306 22.6167 o
    69.9175 6.22735 o
    92.8955 0.0107422 o
    115.873 6.22735 o
    132.26 22.6167 o
    138.475 45.5898 [
    0 0 z
  EndSpiro
453.403320312 653.995117188 m 2
 453.403320312 679.153320312 432.982421875 699.584960938 407.813476562 699.584960938 c 0
 382.655273438 699.584960938 362.234375 679.153320312 362.234375 653.995117188 c 2
 362.234375 45.58984375 l 2
 362.234375 20.431640625 382.655273438 0 407.813476562 0 c 0
 432.982421875 0 453.403320312 20.431640625 453.403320312 45.58984375 c 2
 453.403320312 653.995117188 l 2
  Spiro
    453.403 653.995 ]
    447.189 676.976 o
    430.799 693.368 o
    407.813 699.585 o
    384.836 693.368 o
    368.449 676.976 o
    362.234 653.995 [
    362.234 45.5898 ]
    368.449 22.6091 o
    384.836 6.21701 o
    407.813 0 o
    430.799 6.21701 o
    447.189 22.6091 o
    453.403 45.5898 [
    0 0 z
  EndSpiro
92.8955078125 426.8515625 m 2
 67.33984375 426.8515625 46.5966796875 406.108398438 46.5966796875 380.552734375 c 0
 46.5966796875 355.0078125 67.33984375 334.25390625 92.8955078125 334.25390625 c 2
 406.588867188 334.25390625 l 2
 432.14453125 334.25390625 452.887695312 355.0078125 452.887695312 380.552734375 c 0
 452.887695312 406.108398438 432.14453125 426.8515625 406.588867188 426.8515625 c 2
 92.8955078125 426.8515625 l 2
  Spiro
    92.8955 426.852 ]
    69.5546 420.539 o
    52.909 403.894 o
    46.5967 380.553 o
    52.909 357.217 o
    69.5546 340.569 o
    92.8955 334.254 [
    406.589 334.254 ]
    429.93 340.569 o
    446.575 357.217 o
    452.888 380.553 o
    446.575 403.894 o
    429.93 420.539 o
    406.589 426.852 [
    0 0 z
  EndSpiro
-1392.20703125 -3574.99707031 m 1024
  Spiro
    -1392.21 -3575 {
    0 0 z
  EndSpiro
-389.466796875 -3574.99707031 m 1024
  Spiro
    -389.467 -3575 {
    0 0 z
  EndSpiro
2071.890625 3117.4609375 m 1024
  Spiro
    2071.89 3117.46 {
    0 0 z
  EndSpiro
EndSplineSet
EndChar

StartChar: I
Encoding: 38 73 8
Width: 500
InSpiro: 1
Flags: HW
HStem: -87914.6 13068<5960.4 10440.4 32220.4 36985.4> -10716.6 13068<6081.4 10561.4 32341.4 37106.4>
LayerCount: 6
Fore
SplineSet
148.19921875 698.556640625 m 2
 88.5478515625 698.556640625 88.236328125 605.883789062 148.19921875 605.883789062 c 2
 351.731445312 605.883789062 l 2
 411.3828125 605.883789062 411.694335938 698.556640625 351.731445312 698.556640625 c 2
 148.19921875 698.556640625 l 2
  Spiro
    148.2 698.557 ]
    108.383 674.572 o
    108.314 629.87 o
    148.2 605.884 [
    351.732 605.884 ]
    391.549 629.87 o
    391.619 674.572 o
    351.732 698.557 [
    0 0 z
  EndSpiro
148.19921875 92.546875 m 2
 88.537109375 92.546875 88.2255859375 -0.13671875 148.19921875 -0.13671875 c 2
 351.795898438 -0.13671875 l 2
 411.46875 -0.13671875 411.76953125 92.546875 351.795898438 92.546875 c 2
 148.19921875 92.546875 l 2
  Spiro
    148.2 92.5476 ]
    108.376 68.5597 o
    108.307 23.8519 o
    148.2 -0.136027 [
    351.797 -0.136027 ]
    391.626 23.8519 o
    391.693 68.5597 o
    351.797 92.5476 [
    0 0 z
  EndSpiro
292.821289062 611.813476562 m 2
 292.821289062 668.274414062 205.122070312 668.564453125 205.122070312 611.813476562 c 2
 205.122070312 49.75 l 2
 205.122070312 -6.7109375 292.821289062 -7.0009765625 292.821289062 49.75 c 2
 292.821289062 611.813476562 l 2
  Spiro
    292.822 611.814 ]
    270.124 649.5 o
    227.821 649.565 o
    205.123 611.814 [
    205.123 49.7507 ]
    227.821 12.0645 o
    270.124 12 o
    292.822 49.7507 [
    0 0 z
  EndSpiro
EndSplineSet
Validated: 524325
EndChar

StartChar: J
Encoding: 39 74 9
Width: 500
InSpiro: 1
Flags: HW
VStem: 34899.3 11979<-69565.9 1369.26>
LayerCount: 6
Fore
SplineSet
452.288085938 654.431640625 m 2
 452.288085938 714.040039062 359.690429688 714.3515625 359.690429688 654.431640625 c 2
 359.690429688 182.645507812 l 2
 359.690429688 123.037109375 452.288085938 122.736328125 452.288085938 182.645507812 c 2
 452.288085938 654.431640625 l 2
  Spiro
    452.288 654.432 ]
    428.322 694.22 o
    383.656 694.289 o
    359.69 654.432 [
    359.69 182.646 ]
    383.656 142.86 o
    428.322 142.793 o
    452.288 182.646 [
    0 0 z
  EndSpiro
451.611328125 174.739257812 m 0
 462.03125 235.239257812 370.325195312 248.35546875 360.3671875 190.551757812 c 0
 349.75390625 128.934570312 286.955078125 72.978515625 212.76953125 100.381835938 c 0
 174.548828125 114.46484375 142.021484375 146.981445312 140.077148438 194.171875 c 0
 137.681640625 251.986328125 47.46875 252.684570312 47.5654296875 190.283203125 c 0
 53.484375 46.9716796875 222.426757812 -55.0576171875 357.456054688 33.76953125 c 0
 402.659179688 63.482421875 440.815429688 112.080078125 451.611328125 174.739257812 c 0
  Spiro
    451.611 174.74 o
    434.836 218.547 o
    390.72 225.574 o
    360.367 190.552 o
    333.91 133.749 o
    281.586 97.8681 o
    212.769 100.382 o
    177.4 120.445 o
    151.274 152.049 o
    140.077 194.172 o
    115.047 232.707 o
    70.9338 231.852 o
    47.5649 190.284 o
    100.438 66.3717 o
    218.552 3 o
    357.456 33.7699 o
    399.519 69.5573 o
    432.474 116.999 o
    0 0 z
  EndSpiro
EndSplineSet
Validated: 524325
EndChar

StartChar: K
Encoding: 40 75 10
Width: 500
InSpiro: 1
Flags: HW
VStem: 2183.58 11858<-88290.8 -55531.4 -38312.7 -357.533>
LayerCount: 6
Fore
SplineSet
140.159179688 652.09765625 m 2
 140.159179688 711.706054688 47.5615234375 712.017578125 47.5615234375 652.09765625 c 2
 47.5615234375 44.7880859375 l 2
 47.5615234375 -14.8203125 140.159179688 -15.1318359375 140.159179688 44.7880859375 c 2
 140.159179688 652.09765625 l 2
  Spiro
    140.159 652.098 ]
    116.194 691.886 o
    71.5272 691.955 o
    47.5615 652.098 [
    47.5615 44.7882 ]
    71.5272 5 o
    116.194 4.93067 o
    140.159 44.7882 [
    0 0 z
  EndSpiro
441.9609375 623.104492188 m 2
 479.827148438 669.188476562 408.284179688 726.895507812 370.901367188 681.391601562 c 2
 58.0029296875 300.495117188 l 2
 20.13671875 254.400390625 91.6796875 196.693359375 129.0625 242.208007812 c 2
 441.9609375 623.104492188 l 2
  Spiro
    441.961 623.105 ]
    448.694 668.769 o
    414.309 696.756 o
    370.901 681.392 [
    58.003 300.495 ]
    51.27 254.824 o
    85.6546 226.837 o
    129.063 242.208 [
    0 0 z
  EndSpiro
368.3125 17.8037109375 m 2
 402.30078125 -29.4833984375 479.12890625 22.2509765625 443.540039062 71.76171875 c 2
 211.08984375 395.1875 l 2
 177.090820312 442.485351562 100.262695312 390.740234375 135.8515625 341.229492188 c 2
 368.3125 17.8037109375 l 2
  Spiro
    368.313 17.8038 ]
    410.785 -0.233432 o
    447.429 25.2994 o
    443.54 71.7618 [
    211.09 395.188 ]
    168.61 413.23 o
    131.963 387.694 o
    135.852 341.23 [
    0 0 z
  EndSpiro
EndSplineSet
Validated: 524325
EndChar

StartChar: L
Encoding: 41 76 11
Width: 500
InSpiro: 1
Flags: HW
HStem: -91198.8 13068<13459.3 50206.3>
VStem: 1843.29 11616<-78130.8 -1800.9>
LayerCount: 6
Fore
SplineSet
140.915039062 653.245117188 m 2
 140.915039062 712.853515625 48.3173828125 713.165039062 48.3173828125 653.245117188 c 2
 48.3173828125 46.3330078125 l 2
 48.3173828125 -13.275390625 140.915039062 -13.5869140625 140.915039062 46.3330078125 c 2
 140.915039062 653.245117188 l 2
  Spiro
    140.915 653.245 ]
    116.949 693.033 o
    72.283 693.103 o
    48.3173 653.245 [
    48.3173 46.3332 ]
    72.283 6.54501 o
    116.949 6.47567 o
    140.915 46.3332 [
    0 0 z
  EndSpiro
94.6162109375 92.6318359375 m 2
 35.0078125 92.6318359375 34.6962890625 0.0341796875 94.6162109375 0.0341796875 c 2
 406.859375 0.0341796875 l 2
 466.467773438 0.0341796875 466.779296875 92.6318359375 406.859375 92.6318359375 c 2
 94.6162109375 92.6318359375 l 2
  Spiro
    94.6162 92.632 ]
    54.828 68.6663 o
    54.7587 24 o
    94.6162 0.0343444 [
    406.859 0.0343444 ]
    446.647 24 o
    446.717 68.6663 o
    406.859 92.632 [
    0 0 z
  EndSpiro
EndSplineSet
Validated: 524325
EndChar

StartChar: M
Encoding: 42 77 12
Width: 500
InSpiro: 1
Flags: HW
VStem: -452.676 10890<-87505.3 -80289.5> 39719.3 10890<-87384.3 -80168.5>
LayerCount: 6
Fore
SplineSet
137.6796875 654.060546875 m 2
 137.6796875 712.100585938 47.509765625 712.401367188 47.509765625 654.060546875 c 2
 47.509765625 43.8076171875 l 2
 47.509765625 -14.232421875 137.6796875 -14.533203125 137.6796875 43.8076171875 c 2
 137.6796875 654.060546875 l 2
  Spiro
    137.68 654.061 ]
    114.343 692.801 o
    70.8475 692.868 o
    47.5102 654.061 [
    47.5102 43.8077 ]
    70.8475 5.06694 o
    114.343 5 o
    137.68 43.8077 [
    0 0 z
  EndSpiro
135.756835938 674.771484375 m 2
 106.95703125 724.63671875 24.607421875 682.09765625 55.501953125 628.569335938 c 2
 210.307617188 360.444335938 l 2
 239.107421875 310.579101562 321.45703125 353.118164062 290.551757812 406.646484375 c 2
 135.756835938 674.771484375 l 2
  Spiro
    135.757 674.772 ]
    95.331 696.853 o
    56.1523 675.382 o
    55.5024 628.569 [
    210.308 360.444 ]
    250.734 338.363 o
    289.91 359.834 o
    290.552 406.647 [
    0 0 z
  EndSpiro
452.490234375 651.665039062 m 2
 452.490234375 709.715820312 362.3203125 710.016601562 362.3203125 651.665039062 c 2
 362.3203125 43.775390625 l 2
 362.3203125 -14.2646484375 452.490234375 -14.5654296875 452.490234375 43.775390625 c 2
 452.490234375 651.665039062 l 2
  Spiro
    452.491 651.665 ]
    429.153 690.413 o
    385.658 690.48 o
    362.321 651.665 [
    362.321 43.7754 ]
    385.658 5.03471 o
    429.153 4.96777 o
    452.491 43.7754 [
    0 0 z
  EndSpiro
445.389648438 629.342773438 m 2
 475.811523438 682.18359375 394.428710938 726.3984375 365.091796875 675.448242188 c 2
 210.286132812 406.603515625 l 2
 179.853515625 353.751953125 261.247070312 309.537109375 290.583984375 360.498046875 c 2
 445.389648438 629.342773438 l 2
  Spiro
    445.39 629.343 ]
    444.638 676.066 o
    405.663 697.885 o
    365.092 675.448 [
    210.287 406.604 ]
    211.034 359.874 o
    250.011 338.054 o
    290.584 360.498 [
    0 0 z
  EndSpiro
EndSplineSet
Validated: 524325
EndChar

StartChar: N
Encoding: 43 78 13
Width: 500
InSpiro: 1
Flags: HW
VStem: 1716.58 10585.8<-84746.8 -80324.3> 41162.6 11132<-2521.3 1901.25>
LayerCount: 6
Fore
SplineSet
46.857421875 44.8525390625 m 2
 46.857421875 -14.755859375 139.444335938 -15.056640625 139.444335938 44.8525390625 c 2
 139.444335938 651.474609375 l 2
 139.444335938 711.083007812 46.857421875 711.39453125 46.857421875 651.474609375 c 2
 46.857421875 44.8525390625 l 2
  Spiro
    46.8579 44.8527 ]
    70.8208 5.06694 o
    115.482 5 o
    139.445 44.8527 [
    139.445 651.475 ]
    115.482 691.263 o
    70.8208 691.332 o
    46.8579 651.475 [
    0 0 z
  EndSpiro
360.55078125 45.8623046875 m 2
 360.55078125 -13.7353515625 453.137695312 -14.046875 453.137695312 45.8623046875 c 2
 453.137695312 652.602539062 l 2
 453.137695312 712.2109375 360.55078125 712.51171875 360.55078125 652.602539062 c 2
 360.55078125 45.8623046875 l 2
  Spiro
    360.551 45.8625 ]
    384.514 6.08148 o
    429.175 6.01215 o
    453.138 45.8625 [
    453.138 652.603 ]
    429.175 692.389 o
    384.514 692.455 o
    360.551 652.603 [
    0 0 z
  EndSpiro
134.288085938 672.72265625 m 2
 107.819335938 723.833984375 23.58984375 685.119140625 52.013671875 630.237304688 c 2
 365.70703125 24.625 l 2
 392.186523438 -26.4970703125 476.416015625 12.228515625 447.981445312 67.1103515625 c 2
 134.288085938 672.72265625 l 2
  Spiro
    134.289 672.723 ]
    94.9239 696.621 o
    54.8021 676.966 o
    52.0141 630.237 [
    365.708 24.6252 ]
    405.079 0.722455 o
    445.201 20.3794 o
    447.982 67.1105 [
    0 0 z
  EndSpiro
EndSplineSet
Validated: 524325
EndChar

StartChar: O
Encoding: 44 79 14
Width: 500
InSpiro: 1
Flags: HW
LayerCount: 6
Fore
SplineSet
258.803710938 608.15625 m 1
 258.803710938 700.743164062 l 1
 241.186523438 700.743164062 l 1
 241.186523438 608.15625 l 1
 258.803710938 608.15625 l 1
  Spiro
    258.804 608.156 v
    258.804 700.743 v
    241.186 700.743 v
    241.186 608.156 v
    0 0 z
  EndSpiro
241.186523438 93.3583984375 m 1
 241.186523438 0.771484375 l 1
 258.803710938 0.771484375 l 1
 258.803710938 93.3583984375 l 1
 241.186523438 93.3583984375 l 1
  Spiro
    241.186 93.3581 v
    241.186 0.771195 v
    258.804 0.771195 v
    258.804 93.3581 v
    0 0 z
  EndSpiro
140.166992188 557.077148438 m 2
 140.166992188 616.685546875 47.580078125 616.997070312 47.580078125 557.077148438 c 2
 47.580078125 144.426757812 l 2
 47.580078125 84.818359375 140.166992188 84.517578125 140.166992188 144.426757812 c 2
 140.166992188 557.077148438 l 2
  Spiro
    140.167 557.077 ]
    116.204 596.865 o
    71.5429 596.934 o
    47.58 557.077 [
    47.58 144.426 ]
    71.5429 104.641 o
    116.204 104.574 o
    140.167 144.426 [
    0 0 z
  EndSpiro
452.420898438 557.077148438 m 2
 452.420898438 616.685546875 359.823242188 616.997070312 359.823242188 557.077148438 c 2
 359.823242188 144.426757812 l 2
 359.823242188 84.818359375 452.420898438 84.517578125 452.420898438 144.426757812 c 2
 452.420898438 557.077148438 l 2
  Spiro
    452.421 557.077 ]
    428.455 596.865 o
    383.789 596.934 o
    359.823 557.077 [
    359.823 144.426 ]
    383.789 104.641 o
    428.455 104.574 o
    452.421 144.426 [
    0 0 z
  EndSpiro
141.681640625 19.2587890625 m 0
 184.62890625 -0.1845703125 287.485351562 -19.810546875 287.485351562 47.0595703125 c 0
 287.485351562 103.219726562 220.024414062 85.44140625 179.81640625 103.649414062 c 0
 159.309570312 112.909179688 143.486328125 128.227539062 139.543945312 152.04296875 c 0
 130.123046875 208.955078125 38.0947265625 197.84765625 48.203125 136.821289062 c 0
 57.3662109375 81.5205078125 97.05859375 39.421875 141.681640625 19.2587890625 c 0
  Spiro
    141.682 19.2585 o
    198.505 2.97453 o
    259.279 5.82973 o
    287.485 47.0593 o
    268.541 82.6255 o
    225.553 93.3717 o
    179.816 103.649 o
    161.154 115.005 o
    147.169 130.988 o
    139.544 152.043 o
    109.473 186.938 o
    65.2604 180.512 o
    48.203 136.821 o
    66.5678 86.2899 o
    99.6886 46.3762 o
    0 0 z
  EndSpiro
212.504882812 47.0595703125 m 0
 212.504882812 -19.83203125 315.458007812 -0.109375 358.276367188 19.248046875 c 0
 400.267578125 38.21875 452.420898438 85.3876953125 452.420898438 144.426757812 c 0
 452.420898438 200.909179688 369.22265625 205.0234375 360.446289062 152.04296875 c 0
 353.41015625 109.557617188 309.915039062 91.84375 258.803710938 93.3583984375 c 0
 233.248046875 93.3583984375 212.504882812 72.615234375 212.504882812 47.0595703125 c 0
  Spiro
    212.505 47.0593 o
    240.732 5.83647 o
    301.518 3 o
    358.276 19.2478 o
    401.305 46.9772 o
    437.372 89.9982 o
    452.421 144.426 o
    430.564 183.257 o
    388.151 186.151 o
    360.446 152.043 o
    342.353 117.636 o
    306.265 98.4463 o
    258.804 93.3581 o
    235.463 87.0458 o
    218.817 70.4002 o
    0 0 z
  EndSpiro
287.485351562 654.444335938 m 0
 287.485351562 721.325195312 184.54296875 701.65625 141.681640625 682.245117188 c 0
 99.6796875 663.274414062 47.580078125 616.10546875 47.580078125 557.077148438 c 0
 47.580078125 500.60546875 130.767578125 496.491210938 139.543945312 549.471679688 c 0
 146.580078125 591.935546875 190.12890625 609.66015625 241.186523438 608.15625 c 0
 266.7421875 608.15625 287.485351562 628.899414062 287.485351562 654.444335938 c 0
  Spiro
    287.485 654.444 o
    259.26 695.671 o
    198.467 698.517 o
    141.682 682.245 o
    98.6591 654.516 o
    62.6151 611.498 o
    47.58 557.077 o
    69.4342 518.254 o
    111.842 515.363 o
    139.544 549.471 o
    157.649 583.866 o
    193.749 603.058 o
    241.186 608.156 o
    264.527 614.468 o
    281.173 631.111 o
    0 0 z
  EndSpiro
358.276367188 682.266601562 m 0
 315.296875 701.688476562 212.504882812 721.325195312 212.504882812 654.444335938 c 0
 212.504882812 598.31640625 279.93359375 616.041015625 320.216796875 597.84375 c 0
 340.616210938 588.626953125 356.514648438 573.201171875 360.446289062 549.471679688 c 0
 369.877929688 492.559570312 461.90625 503.666992188 451.797851562 564.693359375 c 0
 442.624023438 620.004882812 402.931640625 662.092773438 358.276367188 682.266601562 c 0
  Spiro
    358.276 682.266 o
    301.446 698.538 o
    240.696 695.679 o
    212.505 654.444 o
    231.444 618.887 o
    274.436 608.126 o
    320.217 597.843 o
    338.823 586.493 o
    352.813 570.492 o
    360.446 549.471 o
    390.524 514.576 o
    434.74 521.002 o
    451.798 564.693 o
    433.424 615.229 o
    400.292 655.143 o
    0 0 z
  EndSpiro
EndSplineSet
Validated: 524325
EndChar

StartChar: P
Encoding: 45 80 15
Width: 500
InSpiro: 1
Flags: HW
HStem: -48174.7 13673<24816.9 33784.2> -5945.74 10890<23122.9 32708.6>
VStem: -109.121 11495<-84291.6 -79755.7>
LayerCount: 6
Fore
SplineSet
139.880859375 652.495117188 m 2
 139.880859375 712.103515625 47.2939453125 712.415039062 47.2939453125 652.495117188 c 2
 47.2939453125 44.7880859375 l 2
 47.2939453125 -14.8203125 139.880859375 -15.1318359375 139.880859375 44.7880859375 c 2
 139.880859375 652.495117188 l 2
  Spiro
    139.881 652.495 ]
    115.918 692.283 o
    71.2565 692.353 o
    47.2936 652.495 [
    47.2936 44.7882 ]
    71.2565 5 o
    115.918 4.93067 o
    139.881 44.7882 [
    0 0 z
  EndSpiro
93.58203125 698.793945312 m 2
 33.9736328125 698.793945312 33.6728515625 606.20703125 93.58203125 606.20703125 c 2
 263.791992188 606.20703125 l 2
 323.400390625 606.20703125 323.711914062 698.793945312 263.791992188 698.793945312 c 2
 93.58203125 698.793945312 l 2
  Spiro
    93.5817 698.794 ]
    53.7959 674.831 o
    53.729 630.17 o
    93.5817 606.207 [
    263.792 606.207 ]
    303.58 630.17 o
    303.649 674.831 o
    263.792 698.794 [
    0 0 z
  EndSpiro
93.58203125 370.30859375 m 2
 33.9736328125 370.30859375 33.6728515625 277.7109375 93.58203125 277.7109375 c 2
 280.721679688 277.7109375 l 2
 340.330078125 277.7109375 340.641601562 370.30859375 280.721679688 370.30859375 c 2
 93.58203125 370.30859375 l 2
  Spiro
    93.5817 370.309 ]
    53.7959 346.343 o
    53.729 301.677 o
    93.5817 277.711 [
    280.721 277.711 ]
    320.51 301.677 o
    320.579 346.343 o
    280.721 370.309 [
    0 0 z
  EndSpiro
268.840820312 368.76171875 m 0
 213.400390625 354.06640625 232.510742188 263.327148438 292.602539062 279.2578125 c 0
 391.978515625 305.608398438 479.634765625 408.045898438 445.001953125 540.658203125 c 0
 424.333984375 620.021484375 356.37890625 684.743164062 271.064453125 698.224609375 c 0
 210.532226562 707.795898438 198.500976562 615.939453125 256.530273438 606.765625 c 0
 322.240234375 596.388671875 380.237304688 528.6484375 353.038085938 447.727539062 c 0
 340.416015625 410.043945312 309.2421875 379.482421875 268.840820312 368.76171875 c 0
  Spiro
    268.841 368.762 o
    237.017 335.531 o
    247.443 292.082 o
    292.602 279.258 o
    383.897 329.198 o
    443.001 419.912 o
    445.002 540.658 o
    409.729 613.72 o
    349.413 669.062 o
    271.064 698.225 o
    227.523 680.843 o
    221.069 636.638 o
    256.53 606.766 o
    316.747 578.948 o
    354.729 522.551 o
    353.038 447.728 o
    334.601 412.921 o
    305.787 385.603 o
    0 0 z
  EndSpiro
EndSplineSet
Validated: 524325
EndChar

StartChar: Q
Encoding: 46 81 16
Width: 500
InSpiro: 1
Flags: HW
HStem: -12953.7 13585.3<17647.2 34604.9>
VStem: 1260.92 10793.2<-67431.8 -21246.2> 40077.7 11156.2<-65532.5 -21246.4>
LayerCount: 6
Fore
SplineSet
50.41015625 547.787109375 m 0
 29.3984375 489.833007812 117.5703125 461.301757812 137.486328125 516.26953125 c 0
 149.249023438 548.721679688 176.383789062 604.140625 211.5859375 608.78125 c 0
 269.067382812 616.354492188 260.44140625 708.619140625 199.404296875 700.573242188 c 0
 116.259765625 689.626953125 74 612.884765625 50.41015625 547.787109375 c 0
  Spiro
    50.4103 547.787 o
    59.1892 501.676 o
    101.436 487.138 o
    137.486 516.27 o
    154.081 553.607 o
    179.373 589.976 o
    211.586 608.782 o
    247.524 637.69 o
    242.439 682.073 o
    199.404 700.574 o
    129.124 670.61 o
    81.0077 613.834 o
    0 0 z
  EndSpiro
362.502929688 516.26953125 m 0
 381.935546875 462.666015625 470.891601562 489.02734375 449.58984375 547.787109375 c 0
 427.24609375 609.42578125 381.581054688 700.970703125 294.504882812 700.970703125 c 0
 237.399414062 700.970703125 233.983398438 615.946289062 288.4140625 608.78125 c 0
 323.60546875 604.140625 350.740234375 548.732421875 362.502929688 516.26953125 c 0
  Spiro
    362.503 516.27 o
    398.406 487.565 o
    440.83 501.621 o
    449.59 547.787 o
    418.842 614.829 o
    368.386 675.002 o
    294.505 700.971 o
    255.471 678.701 o
    253.128 635.826 o
    288.414 608.782 o
    320.62 589.979 o
    345.908 553.612 o
    0 0 z
  EndSpiro
288.0703125 700.970703125 m 0
 230.8359375 700.970703125 159.196289062 712.926757812 159.196289062 654.682617188 c 0
 159.196289062 596.513671875 230.846679688 608.383789062 288.0703125 608.383789062 c 0
 347.66796875 608.383789062 347.979492188 700.970703125 288.0703125 700.970703125 c 0
  Spiro
    288.07 700.971 o
    229.278 701.915 o
    179.851 692.549 o
    159.196 654.683 o
    179.854 616.847 o
    229.283 607.46 o
    288.07 608.384 o
    327.851 632.347 o
    327.921 677.008 o
    0 0 z
  EndSpiro
140.247070312 532.028320312 m 2
 140.247070312 591.63671875 47.6494140625 591.948242188 47.6494140625 532.028320312 c 2
 47.6494140625 169.866210938 l 2
 47.6494140625 110.2578125 140.247070312 109.95703125 140.247070312 169.866210938 c 2
 140.247070312 532.028320312 l 2
  Spiro
    140.247 532.029 ]
    116.282 571.817 o
    71.6152 571.886 o
    47.6495 532.029 [
    47.6495 169.867 ]
    71.6152 130.081 o
    116.282 130.014 o
    140.247 169.867 [
    0 0 z
  EndSpiro
452.350585938 532.028320312 m 2
 452.350585938 591.63671875 359.752929688 591.948242188 359.752929688 532.028320312 c 2
 359.752929688 169.866210938 l 2
 359.752929688 110.2578125 452.350585938 109.95703125 452.350585938 169.866210938 c 2
 452.350585938 532.028320312 l 2
  Spiro
    452.351 532.029 ]
    428.385 571.817 o
    383.719 571.886 o
    359.753 532.029 [
    359.753 169.867 ]
    383.719 130.081 o
    428.385 130.014 o
    452.351 169.867 [
    0 0 z
  EndSpiro
137.486328125 185.625 m 0
 118.064453125 239.228515625 29.1083984375 212.877929688 50.41015625 154.107421875 c 0
 72.775390625 92.3828125 118.34375 0.923828125 205.495117188 0.923828125 c 0
 262.600585938 0.923828125 266.016601562 85.9482421875 211.5859375 93.11328125 c 0
 176.416015625 97.75390625 149.23828125 153.194335938 137.486328125 185.625 c 0
  Spiro
    137.486 185.625 o
    101.591 214.332 o
    59.17 200.279 o
    50.4103 154.108 o
    81.1508 87.0285 o
    131.586 26.8744 o
    205.495 0.924215 o
    244.529 23.1944 o
    246.872 66.0692 o
    211.586 93.1137 o
    179.385 111.924 o
    154.084 148.298 o
    0 0 z
  EndSpiro
449.58984375 154.107421875 m 0
 470.590820312 212.061523438 382.4296875 240.592773438 362.502929688 185.625 c 0
 350.71875 153.108398438 323.594726562 97.75390625 288.4140625 93.11328125 c 0
 230.921875 85.55078125 239.55859375 -6.7138671875 300.595703125 1.3212890625 c 0
 383.76171875 12.2783203125 426.010742188 89.0419921875 449.58984375 154.107421875 c 0
  Spiro
    449.59 154.108 o
    440.806 200.219 o
    398.559 214.758 o
    362.503 185.625 o
    345.897 148.26 o
    320.611 111.905 o
    288.414 93.1137 o
    252.471 64.2125 o
    257.559 19.8296 o
    300.596 1.32168 o
    370.888 31.2975 o
    419.002 88.0778 o
    0 0 z
  EndSpiro
288.0703125 93.5107421875 m 0
 230.8359375 93.5107421875 159.196289062 105.466796875 159.196289062 47.22265625 c 0
 159.196289062 -10.9462890625 230.846679688 0.923828125 288.0703125 0.923828125 c 0
 347.66796875 0.923828125 347.979492188 93.5107421875 288.0703125 93.5107421875 c 0
  Spiro
    288.07 93.5111 o
    229.278 94.4548 o
    179.851 85.0894 o
    159.196 47.223 o
    179.854 9.38737 o
    229.283 0 o
    288.07 0.924215 o
    327.851 24.8871 o
    327.921 69.5483 o
    0 0 z
  EndSpiro
307.932617188 205.100585938 m 2
 264.974609375 245.985351562 200.607421875 179.448242188 244.11328125 138.037109375 c 2
 374.029296875 14.373046875 l 2
 416.987304688 -26.51171875 481.354492188 40.0361328125 437.848632812 81.4365234375 c 2
 307.932617188 205.100585938 l 2
  Spiro
    307.933 205.101 ]
    262.669 215.104 o
    231.763 182.871 o
    244.113 138.037 [
    374.029 14.3734 ]
    419.293 4.37318 o
    450.199 36.6078 o
    437.849 81.4369 [
    0 0 z
  EndSpiro
EndSplineSet
Validated: 524325
EndChar

StartChar: R
Encoding: 47 82 17
Width: 500
InSpiro: 1
Flags: HW
HStem: -11205.6 12342<21149.8 32852>
LayerCount: 6
Fore
SplineSet
388.557617188 35.140625 m 0
 397.09765625 34.6357421875 397.849609375 39.3623046875 395.131835938 46.419921875 c 0
 386.591796875 46.9248046875 385.83984375 42.1982421875 388.557617188 35.140625 c 0
  Spiro
    388.558 35.1406 o
    394.658 36.2695 o
    396.533 40.252 o
    395.132 46.4199 o
    389.032 45.2911 o
    387.156 41.3086 o
    0 0 z
  EndSpiro
139.671875 651.452148438 m 2
 139.671875 711.060546875 47.0849609375 711.372070312 47.0849609375 651.452148438 c 2
 47.0849609375 44.400390625 l 2
 47.0849609375 -15.2080078125 139.671875 -15.51953125 139.671875 44.400390625 c 2
 139.671875 651.452148438 l 2
  Spiro
    139.672 651.452 ]
    115.709 691.24 o
    71.0478 691.31 o
    47.0849 651.452 [
    47.0849 44.4004 ]
    71.0478 4.61225 o
    115.709 4.54292 o
    139.672 44.4004 [
    0 0 z
  EndSpiro
93.3837890625 697.750976562 m 2
 33.775390625 697.750976562 33.4638671875 605.1640625 93.3837890625 605.1640625 c 2
 270.608398438 605.1640625 l 2
 330.216796875 605.1640625 330.517578125 697.750976562 270.608398438 697.750976562 c 2
 93.3837890625 697.750976562 l 2
  Spiro
    93.3837 697.751 ]
    53.5956 673.788 o
    53.5262 629.127 o
    93.3837 605.164 [
    270.608 605.164 ]
    310.394 629.127 o
    310.461 673.788 o
    270.608 697.751 [
    0 0 z
  EndSpiro
93.3837890625 384.34765625 m 2
 33.775390625 384.34765625 33.4638671875 291.760742188 93.3837890625 291.760742188 c 2
 275.377929688 291.760742188 l 2
 334.986328125 291.760742188 335.297851562 384.34765625 275.377929688 384.34765625 c 2
 93.3837890625 384.34765625 l 2
  Spiro
    93.3837 384.348 ]
    53.5956 360.385 o
    53.5262 315.724 o
    93.3837 291.761 [
    275.378 291.761 ]
    315.166 315.724 o
    315.235 360.385 o
    275.378 384.348 [
    0 0 z
  EndSpiro
266.483398438 381.415039062 m 0
 209.302734375 372.842773438 219.260742188 280.696289062 280.297851562 289.848632812 c 0
 429.41015625 312.203125 506.958007812 498.7734375 404.391601562 623.447265625 c 0
 372.390625 662.237304688 319.173828125 697.750976562 265.140625 697.750976562 c 0
 208.056640625 697.750976562 204.619140625 612.791015625 259.006835938 605.561523438 c 0
 377.557617188 589.82421875 396.700195312 400.93359375 266.483398438 381.415039062 c 0
  Spiro
    266.483 381.415 o
    231.102 351.876 o
    236.907 307.578 o
    280.298 289.849 o
    401.446 358.461 o
    450.946 486.657 o
    404.392 623.447 o
    366.118 659.918 o
    318.095 687.127 o
    265.141 697.751 o
    226.114 675.495 o
    223.756 632.635 o
    259.007 605.562 o
    342.525 544.886 o
    348.727 444.61 o
    0 0 z
  EndSpiro
369.178710938 20.015625 m 2
 399.353515625 -27.8623046875 477.1484375 17.7275390625 445.469726562 67.9794921875 c 2
 259.458007812 363.12109375 l 2
 229.283203125 410.98828125 151.48828125 365.409179688 183.15625 315.157226562 c 2
 369.178710938 20.015625 l 2
  Spiro
    369.179 20.0156 ]
    409.364 0 o
    446.499 22.608 o
    445.47 67.9795 [
    259.458 363.121 ]
    219.272 383.132 o
    182.134 360.526 o
    183.156 315.157 [
    0 0 z
  EndSpiro
EndSplineSet
Validated: 524325
EndChar

StartChar: S
Encoding: 48 83 18
Width: 500
InSpiro: 1
Flags: HW
LayerCount: 6
Fore
SplineSet
149.619140625 469.641601562 m 0
 100.87109375 547.103515625 202.041015625 614.263671875 278.826171875 603.134765625 c 0
 314.178710938 598.010742188 348.0703125 577.729492188 369.2109375 549.284179688 c 0
 403.983398438 502.512695312 479.94140625 555.525390625 443.568359375 604.4453125 c 0
 402.275390625 659.982421875 340.625976562 697.0859375 259.844726562 697.0859375 c 0
 152.487304688 697.0859375 45.935546875 624.178710938 45.935546875 509.2265625 c 0
 45.935546875 414.061523438 120.5078125 346.729492188 206.337890625 342.776367188 c 0
 265.033203125 342.776367188 266.547851562 432.591796875 208.55078125 435.3203125 c 0
 185.487304688 436.405273438 161.736328125 450.337890625 149.619140625 469.641601562 c 0
  Spiro
    149.619 469.642 o
    144.356 541.088 o
    200.442 590.719 o
    278.826 603.135 o
    313.24 593.232 o
    344.267 574.727 o
    369.211 549.284 o
    411.981 531.919 o
    448.205 558.049 o
    443.568 604.445 o
    395.59 653.105 o
    334.135 685.432 o
    259.845 697.086 o
    156.768 673.972 o
    77.4771 608.937 o
    45.9356 509.227 o
    68.4054 424.728 o
    126.677 366.497 o
    206.338 342.776 o
    245.866 366.123 o
    246.778 410.156 o
    208.551 435.32 o
    185.737 440.402 o
    165.139 452.42 o
    0 0 z
  EndSpiro
163.422851562 15 m 0
 324.469726562 -46.1015625 492.1875 92.880859375 446.404296875 267.172851562 c 0
 424.984375 349.092773438 342.215820312 431.936523438 247.029296875 431.936523438 c 0
 189.47265625 431.936523438 186.583007812 345.547851562 242.044921875 339.607421875 c 0
 303.458007812 333.022460938 360.595703125 284.005859375 360.595703125 214.1171875 c 0
 360.595703125 132.874023438 281.329101562 69.3125 196.165039062 101.625 c 0
 170.759765625 111.239257812 148.297851562 130.15625 134.47265625 153.477539062 c 0
 105.092773438 203.020507812 23.2373046875 159.525390625 54.765625 106.362304688 c 0
 79.494140625 64.650390625 118.14453125 32.14453125 163.422851562 15 c 0
  Spiro
    163.423 15 o
    318.398 14.4364 o
    429.247 110.886 o
    446.404 267.173 o
    406.404 346.225 o
    336.183 407.47 o
    247.029 431.937 o
    207.852 409.358 o
    205.914 366.144 o
    242.045 339.607 o
    300.022 319.71 o
    343.54 276.196 o
    360.596 214.117 o
    336.936 141.725 o
    276.573 98.3516 o
    196.165 101.625 o
    171.975 114.143 o
    150.947 131.826 o
    134.473 153.478 o
    93.7898 175.099 o
    54.8634 153.177 o
    54.7657 106.362 o
    83.8315 67.9819 o
    120.664 37.0103 o
    0 0 z
  EndSpiro
210.194335938 435.212890625 m 1
 202.40625 342.9375 l 2
 215.962890625 341.788085938 229.541015625 340.66015625 243.086914062 339.5 c 1
 250.971679688 431.764648438 l 1
 250.971679688 431.764648438 210.280273438 435.202148438 210.194335938 435.212890625 c 1
  Spiro
    210.194 435.213 v
    202.406 342.938 ]
    215.955 341.794 o
    229.546 340.65 o
    243.087 339.5 v
    250.972 431.765 v
    240.437 432.655 o
    220.786 434.316 o
    0 0 z
  EndSpiro
EndSplineSet
Validated: 524325
EndChar

StartChar: T
Encoding: 49 84 19
Width: 500
InSpiro: 1
Flags: HW
HStem: -13860.4 14520<3775.81 19971.1 32192.1 49235.4>
VStem: 19971.1 11858<-88102.4 -13860.4>
LayerCount: 6
Fore
SplineSet
93.931640625 697.254882812 m 2
 34.3232421875 697.254882812 34.01171875 604.66796875 93.931640625 604.66796875 c 2
 406.067382812 604.66796875 l 2
 465.67578125 604.66796875 465.987304688 697.254882812 406.067382812 697.254882812 c 2
 93.931640625 697.254882812 l 2
  Spiro
    93.9318 697.255 ]
    54.1436 673.292 o
    54.0743 628.631 o
    93.9318 604.668 [
    406.068 604.668 ]
    445.856 628.631 o
    445.925 673.292 o
    406.068 697.255 [
    0 0 z
  EndSpiro
295.3046875 638.376953125 m 2
 295.3046875 697.30859375 203.749023438 697.620117188 203.749023438 638.376953125 c 2
 203.749023438 44.4091796875 l 2
 203.749023438 -14.533203125 295.3046875 -14.833984375 295.3046875 44.4091796875 c 2
 295.3046875 638.376953125 l 2
  Spiro
    295.305 638.377 ]
    271.609 677.714 o
    227.445 677.783 o
    203.749 638.377 [
    203.749 44.4089 ]
    227.445 5.06694 o
    271.609 5 o
    295.305 44.4089 [
    0 0 z
  EndSpiro
EndSplineSet
Validated: 524325
EndChar

StartChar: U
Encoding: 50 85 20
Width: 500
InSpiro: 1
Flags: HW
HStem: -89468.8 13794<16179.8 34136.7>
VStem: -590.559 11737<-70865.2 -260.867> 39339.4 11737<-70743.9 -23.1018>
LayerCount: 6
Fore
SplineSet
140.793945312 652.598632812 m 2
 140.793945312 712.20703125 48.20703125 712.5078125 48.20703125 652.598632812 c 2
 48.20703125 179.65234375 l 2
 48.20703125 120.043945312 140.793945312 119.732421875 140.793945312 179.65234375 c 2
 140.793945312 652.598632812 l 2
  Spiro
    140.794 652.599 ]
    116.831 692.385 o
    72.1703 692.451 o
    48.2074 652.599 [
    48.2074 179.652 ]
    72.1703 139.864 o
    116.831 139.795 o
    140.794 179.652 [
    0 0 z
  EndSpiro
451.919921875 652.340820312 m 2
 451.919921875 711.94921875 359.333007812 712.260742188 359.333007812 652.340820312 c 2
 359.333007812 179.65234375 l 2
 359.333007812 120.043945312 451.919921875 119.732421875 451.919921875 179.65234375 c 2
 451.919921875 652.340820312 l 2
  Spiro
    451.92 652.341 ]
    427.957 692.129 o
    383.296 692.198 o
    359.333 652.341 [
    359.333 179.652 ]
    383.296 139.864 o
    427.957 139.795 o
    451.92 179.652 [
    0 0 z
  EndSpiro
140.299804688 186.462890625 m 0
 131.845703125 243.686523438 39.677734375 233.87890625 48.701171875 172.841796875 c 0
 69.8310546875 29.86328125 251.846679688 -59.7158203125 379.560546875 45.6005859375 c 0
 416.610351562 76.1943359375 451.919921875 127.456054688 451.919921875 179.65234375 c 0
 451.919921875 236.478515625 367.744140625 240.206054688 359.827148438 186.44140625 c 0
 348.096679688 106.755859375 243.983398438 58.5771484375 175.6953125 120.323242188 c 0
 157.100585938 137.102539062 143.995117188 161.4765625 140.299804688 186.462890625 c 0
  Spiro
    140.3 186.463 o
    110.834 221.914 o
    66.5223 216.192 o
    48.7015 172.842 o
    115.386 52.9955 o
    241.856 0 o
    379.561 45.6007 o
    414.755 82.3107 o
    441.414 128.548 o
    451.92 179.652 o
    429.842 218.595 o
    387.181 221.189 o
    359.828 186.441 o
    322.11 120.213 o
    251.099 92.3117 o
    175.696 120.323 o
    159.09 139.355 o
    146.977 161.963 o
    0 0 z
  EndSpiro
EndSplineSet
Validated: 524325
EndChar

StartChar: V
Encoding: 51 86 21
Width: 500
InSpiro: 1
Flags: HW
LayerCount: 6
Fore
SplineSet
139.313476562 665.767578125 m 2
 124.940429688 721.315429688 34.09375 702.677734375 49.669921875 642.532226562 c 2
 207.182617188 34.01953125 l 2
 221.56640625 -21.5283203125 312.40234375 -2.890625 296.826171875 57.2548828125 c 2
 139.313476562 665.767578125 l 2
  Spiro
    139.313 665.768 ]
    106.268 697.788 o
    62.7585 687.603 o
    49.6693 642.533 [
    207.182 34.0199 ]
    240.232 2 o
    283.739 12.1848 o
    296.826 57.2552 [
    0 0 z
  EndSpiro
450.439453125 642.80078125 m 2
 465.478515625 702.409179688 375.018554688 722.421875 360.65625 665.48828125 c 2
 207.118164062 56.986328125 l 2
 192.068359375 -2.6220703125 282.5390625 -22.634765625 296.901367188 34.298828125 c 2
 450.439453125 642.80078125 l 2
  Spiro
    450.439 642.801 ]
    437.072 687.799 o
    393.613 698.147 o
    360.656 665.489 [
    207.118 56.9867 ]
    220.479 11.9893 o
    263.941 1.6408 o
    296.901 34.2992 [
    0 0 z
  EndSpiro
EndSplineSet
Validated: 524325
EndChar

StartChar: W
Encoding: 52 87 22
Width: 500
Flags: HW
VStem: 1348.67 11011<-63954.7 -594.944> 41399.7 11011<-64075.7 -715.944>
LayerCount: 6
Fore
SplineSet
47.50390625 44 m 2
 47.50390625 -14.0400390625 137.673828125 -14.3408203125 137.673828125 44 c 2
 137.673828125 654.2421875 l 2
 137.673828125 712.29296875 47.50390625 712.59375 47.50390625 654.2421875 c 2
 47.50390625 44 l 2
55.5078125 69.4912109375 m 2
 25.021484375 16.6826171875 106.349609375 -27.62890625 135.751953125 23.2890625 c 2
 290.556640625 291.4140625 l 2
 321.04296875 344.22265625 239.71484375 388.534179688 210.3125 337.60546875 c 2
 55.5078125 69.4912109375 l 2
362.326171875 46.384765625 m 2
 362.326171875 -11.6552734375 452.49609375 -11.9560546875 452.49609375 46.384765625 c 2
 452.49609375 654.2421875 l 2
 452.49609375 712.29296875 362.326171875 712.59375 362.326171875 654.2421875 c 2
 362.326171875 46.384765625 l 2
365.0859375 22.580078125 m 2
 393.822265625 -27.3173828125 476.224609375 15.1142578125 445.39453125 68.685546875 c 2
 290.58984375 337.5625 l 2
 261.853515625 387.459960938 179.451171875 345.028320312 210.28125 291.45703125 c 2
 365.0859375 22.580078125 l 2
EndSplineSet
Validated: 524325
EndChar

StartChar: X
Encoding: 53 88 23
Width: 500
Flags: HW
HStem: 0 21G<509.678 536.011> 0 21G<509.678 536.011> 725.779 20G<181.293 207.626 507.98 534.313> 725.779 20G<181.293 207.626 507.98 534.313>
VStem: 284.182 142.546<317.497 430.824>
LayerCount: 6
Fore
SplineSet
53.9658203125 67.259765625 m 6
 25.9931640625 12.861328125 109.459960938 -27.29296875 136.358398438 25 c 6
 447.6015625 637.094726562 l 2
 475.584960938 691.482421875 392.107421875 731.647460938 365.208984375 679.354492188 c 2
 53.9658203125 67.259765625 l 6
365.155273438 30.193359375 m 2
 391.505859375 -20.982421875 475.821289062 17.5498046875 447.526367188 72.49609375 c 2
 134.842773438 679.55859375 l 2
 108.481445312 730.723632812 24.166015625 692.202148438 52.4716796875 637.255859375 c 2
 365.155273438 30.193359375 l 2
EndSplineSet
Validated: 8912933
EndChar

StartChar: Y
Encoding: 54 89 24
Width: 500
Flags: HW
HStem: -90708.5 2541G<26120.6 26874> -90708.5 2541G<26120.6 26874> -2741.46 2420G<5868.5 9052.95 44471.7 47656.2> -2741.46 2420G<5868.5 9052.95 44471.7 47656.2>
VStem: 20996.1 11191.8<-89019.8 -44465.5>
LayerCount: 6
Fore
SplineSet
209.306640625 47 m 6
 209.306640625 -14.4130859375 304.708007812 -14.7353515625 304.708007812 47 c 6
 304.708007812 371.833007812 l 6
 304.708007812 433.24609375 209.306640625 433.568359375 209.306640625 371.833007812 c 6
 209.306640625 47 l 6
216.450195312 347.6953125 m 6
 243.875 297.078125 327.36328125 337.361328125 297.9296875 391.706054688 c 6
 134.616210938 693.131835938 l 6
 107.202148438 743.759765625 23.7138671875 703.4765625 53.1474609375 649.131835938 c 6
 216.450195312 347.6953125 l 6
215.655273438 390.169921875 m 6
 188.541992188 335.3203125 272.653320312 296.498046875 298.713867188 349.231445312 c 6
 447.729492188 650.657226562 l 6
 474.853515625 705.506835938 390.7421875 744.33984375 364.681640625 691.606445312 c 6
 215.655273438 390.169921875 l 6
EndSplineSet
Validated: 8912933
EndChar

StartChar: Z
Encoding: 55 90 25
Width: 500
InSpiro: 1
Flags: HW
HStem: -90660.3 12584<41901.3 48479> -13462.3 12584<2653.55 9231.27>
LayerCount: 6
Fore
SplineSet
52.4033203125 67.5595703125 m 2
 24.3017578125 13.2470703125 107.671875 -27.1220703125 134.69921875 25.1064453125 c 2
 447.59765625 629.848632812 l 2
 475.69921875 684.171875 392.318359375 724.530273438 365.301757812 672.3125 c 2
 52.4033203125 67.5595703125 l 2
  Spiro
    52.403 67.5597 ]
    55.2158 20.8444 o
    95.1519 0.830116 o
    134.699 25.1066 [
    447.597 629.849 ]
    444.782 676.569 o
    404.844 696.584 o
    365.301 672.313 [
    0 0 z
  EndSpiro
405.6171875 607.204101562 m 2
 465.225585938 607.204101562 465.526367188 699.801757812 405.6171875 699.801757812 c 2
 93.36328125 699.801757812 l 2
 33.765625 699.801757812 33.4541015625 607.204101562 93.36328125 607.204101562 c 2
 405.6171875 607.204101562 l 2
  Spiro
    405.617 607.204 ]
    445.403 631.17 o
    445.47 675.836 o
    405.617 699.802 [
    93.363 699.802 ]
    53.582 675.836 o
    53.5126 631.17 o
    93.363 607.204 [
    0 0 z
  EndSpiro
406.229492188 0.0341796875 m 2
 465.837890625 0.0341796875 466.149414062 92.6318359375 406.229492188 92.6318359375 c 2
 93.5458984375 92.6318359375 l 2
 33.9375 92.6318359375 33.63671875 0.0341796875 93.5458984375 0.0341796875 c 2
 406.229492188 0.0341796875 l 2
  Spiro
    406.229 0.0343444 ]
    446.017 24 o
    446.087 68.6663 o
    406.229 92.632 [
    93.5456 92.632 ]
    53.7598 68.6663 o
    53.6929 24 o
    93.5456 0.0343444 [
    0 0 z
  EndSpiro
EndSplineSet
Validated: 524325
EndChar

StartChar: zero
Encoding: 13 48 26
Width: 500
InSpiro: 1
Flags: HW
HStem: -90237.2 11745.9<17061.7 36538.1> -12956 12842.1<17153.3 35121.9>
VStem: -292.609 11137.4<-71605.3 -19961.6> 41306.6 11258.4<-73109 -19853.6>
LayerCount: 6
Fore
SplineSet
140.426757812 505.748046875 m 2
 140.426757812 565.356445312 47.8291015625 565.66796875 47.8291015625 505.748046875 c 2
 47.8291015625 189.669921875 l 2
 47.8291015625 130.061523438 140.426757812 129.760742188 140.426757812 189.669921875 c 2
 140.426757812 505.748046875 l 2
  Spiro
    140.426 505.748 ]
    116.461 545.536 o
    71.7942 545.606 o
    47.8286 505.748 [
    47.8286 189.67 ]
    71.7942 149.884 o
    116.461 149.817 o
    140.426 189.67 [
    0 0 z
  EndSpiro
137.494140625 205.901367188 m 0
 117.502929688 259.2578125 28.8154296875 232.004882812 50.76171875 173.44921875 c 0
 73.3525390625 113.174804688 111.165039062 57.841796875 155.809570312 15.8291015625 c 0
 199.1328125 -24.9267578125 262.919921875 42.1689453125 219.231445312 83.2685546875 c 0
 184.458984375 115.989257812 155.111328125 158.904296875 137.494140625 205.901367188 c 0
  Spiro
    137.494 205.901 o
    101.291 234.209 o
    59.0191 219.712 o
    50.7612 173.449 o
    78.0834 115.188 o
    113.792 61.9217 o
    155.809 15.8292 o
    201.172 6.05031 o
    231.846 38.5046 o
    219.231 83.2687 o
    186.531 119.122 o
    158.763 160.535 o
    0 0 z
  EndSpiro
452.165039062 505.748046875 m 2
 452.165039062 565.356445312 359.578125 565.66796875 359.578125 505.748046875 c 2
 359.578125 189.669921875 l 2
 359.578125 130.061523438 452.165039062 129.760742188 452.165039062 189.669921875 c 2
 452.165039062 505.748046875 l 2
  Spiro
    452.165 505.748 ]
    428.202 545.536 o
    383.54 545.606 o
    359.578 505.748 [
    359.578 189.67 ]
    383.54 149.884 o
    428.202 149.817 o
    452.165 189.67 [
    0 0 z
  EndSpiro
449.243164062 173.44921875 m 0
 470.8671875 231.166992188 383.017578125 260.6328125 362.5 205.901367188 c 0
 344.904296875 158.947265625 315.53515625 115.978515625 280.7734375 83.2685546875 c 0
 237.665039062 42.716796875 300.453125 -25.3134765625 344.1953125 15.8291015625 c 0
 388.83984375 57.841796875 426.663085938 113.20703125 449.243164062 173.44921875 c 0
  Spiro
    449.243 173.449 o
    440.956 219.645 o
    398.867 234.634 o
    362.499 205.901 o
    341.24 160.552 o
    313.47 119.127 o
    280.773 83.2687 o
    268.322 38.6623 o
    298.774 6 o
    344.195 15.8292 o
    386.214 61.9289 o
    421.925 115.203 o
    0 0 z
  EndSpiro
314.439453125 95.84765625 m 0
 250.115234375 95.84765625 141.221679688 115.3984375 141.221679688 49.548828125 c 0
 141.221679688 -16.2578125 250.190429688 3.2607421875 314.439453125 3.2607421875 c 0
 374.037109375 3.2607421875 374.348632812 95.84765625 314.439453125 95.84765625 c 0
  Spiro
    314.439 95.8478 o
    241.019 98.4762 o
    171.78 90.7982 o
    141.221 49.549 o
    171.796 8.32153 o
    241.052 0.63915 o
    314.439 3.26086 o
    354.22 27.2237 o
    354.289 71.8849 o
    0 0 z
  EndSpiro
50.76171875 531.540039062 m 0
 29.1162109375 473.822265625 116.965820312 444.334960938 137.494140625 499.06640625 c 0
 155.057617188 545.891601562 184.448242188 589.053710938 219.166992188 621.61328125 c 0
 262.33984375 662.08984375 199.669921875 730.23828125 155.86328125 689.16015625 c 0
 111.122070312 647.201171875 73.3525390625 591.760742188 50.76171875 531.540039062 c 0
  Spiro
    50.7612 531.54 o
    59.0336 485.339 o
    101.119 470.339 o
    137.494 499.067 o
    158.734 544.37 o
    186.495 585.816 o
    219.166 621.613 o
    231.691 666.2 o
    201.296 698.916 o
    155.863 689.16 o
    113.789 643.08 o
    78.0758 589.789 o
    0 0 z
  EndSpiro
362.510742188 499.06640625 m 0
 382.5234375 445.709960938 471.200195312 472.995117188 449.232421875 531.540039062 c 0
 426.65234375 591.728515625 388.861328125 647.211914062 344.130859375 689.16015625 c 0
 300.743164062 729.8515625 237.063476562 662.6484375 280.827148438 621.61328125 c 0
 315.545898438 589.053710938 344.947265625 545.870117188 362.510742188 499.06640625 c 0
  Spiro
    362.51 499.067 o
    398.724 470.767 o
    440.991 485.276 o
    449.232 531.54 o
    421.92 589.777 o
    386.202 643.077 o
    344.13 689.16 o
    298.752 698.868 o
    268.133 666.362 o
    280.827 621.613 o
    313.501 585.811 o
    341.267 544.361 o
    0 0 z
  EndSpiro
314.439453125 701.674804688 m 0
 250.115234375 701.674804688 141.221679688 721.225585938 141.221679688 655.38671875 c 0
 141.221679688 589.569335938 250.190429688 609.087890625 314.439453125 609.087890625 c 0
 374.037109375 609.087890625 374.348632812 701.674804688 314.439453125 701.674804688 c 0
  Spiro
    314.439 701.675 o
    241.019 704.304 o
    171.78 696.629 o
    141.221 655.387 o
    171.796 614.152 o
    241.052 606.467 o
    314.439 609.088 o
    354.22 633.051 o
    354.289 677.712 o
    0 0 z
  EndSpiro
EndSplineSet
Validated: 524325
EndChar

StartChar: one
Encoding: 14 49 27
Width: 500
InSpiro: 1
Flags: HW
HStem: -90232.9 10769<10616.2 22074.4 32238.4 44567.5>
VStem: 22195.4 10769<-79221.9 -22593.9>
LayerCount: 6
Fore
SplineSet
298.123046875 653.633789062 m 2
 298.123046875 713.2421875 205.525390625 713.553710938 205.525390625 653.633789062 c 2
 205.525390625 51.78125 l 2
 205.525390625 -7.81640625 298.123046875 -8.1279296875 298.123046875 51.78125 c 2
 298.123046875 653.633789062 l 2
  Spiro
    298.123 653.634 ]
    274.157 693.422 o
    229.491 693.491 o
    205.525 653.634 [
    205.525 51.781 ]
    229.491 12 o
    274.157 11.9307 o
    298.123 51.781 [
    0 0 z
  EndSpiro
338.051757812 0.4228515625 m 2
 397.66015625 0.4228515625 397.971679688 93.0205078125 338.051757812 93.0205078125 c 2
 161.944335938 93.0205078125 l 2
 102.3359375 93.0205078125 102.03515625 0.4228515625 161.944335938 0.4228515625 c 2
 338.051757812 0.4228515625 l 2
  Spiro
    338.052 0.42261 ]
    377.84 24.3883 o
    377.909 69.0546 o
    338.052 93.0203 [
    161.944 93.0203 ]
    122.159 69.0546 o
    122.092 24.3883 o
    161.944 0.42261 [
    0 0 z
  EndSpiro
137.409179688 581.510742188 m 2
 100.57421875 533.955078125 174.30859375 477.966796875 210.649414062 524.877929688 c 2
 288.444335938 625.317382812 l 2
 325.279296875 672.873046875 251.544921875 728.861328125 215.204101562 681.950195312 c 2
 137.409179688 581.510742188 l 2
  Spiro
    137.409 581.511 ]
    131.93 535.308 o
    167.369 508.134 o
    210.65 524.878 [
    288.444 625.317 ]
    293.923 671.519 o
    258.485 698.694 o
    215.204 681.95 [
    0 0 z
  EndSpiro
EndSplineSet
Validated: 524325
EndChar

StartChar: two
Encoding: 15 50 28
Width: 500
InSpiro: 1
Flags: HW
HStem: -91193.8 11374<16279.8 48029.3>
LayerCount: 6
Fore
SplineSet
362.883789062 0.0341796875 m 2
 422.4921875 0.0341796875 422.803710938 92.6318359375 362.883789062 92.6318359375 c 2
 136.653320312 92.6318359375 l 2
 77.044921875 92.6318359375 76.7333984375 0.0341796875 136.653320312 0.0341796875 c 2
 362.883789062 0.0341796875 l 2
  Spiro
    362.884 0.0343444 ]
    402.672 24 o
    402.741 68.6663 o
    362.884 92.632 [
    136.654 92.632 ]
    96.8653 68.6663 o
    96.796 24 o
    136.654 0.0343444 [
    0 0 z
  EndSpiro
90.1826171875 46.1181640625 m 0
 90.451171875 -13.2001953125 182.952148438 -13.7265625 182.952148438 46.5478515625 c 0
 182.952148438 49.5234375 182.909179688 52.48828125 182.909179688 55.4638671875 c 2
 427.3046875 393.456054688 l 2
 462.592773438 442.2578125 387.010742188 495.721679688 352.227539062 447.618164062 c 0
 264.872070312 326.822265625 177.52734375 206.026367188 90.1826171875 85.23046875 c 0
 90.1826171875 72.2001953125 90.1826171875 59.1591796875 90.1826171875 46.1181640625 c 0
  Spiro
    90.1828 46.1183 o
    114.312 6.49162 o
    159.002 6.48611 o
    182.952 46.548 o
    182.941 49.5178 o
    182.92 52.4942 o
    182.909 55.464 [
    427.305 393.456 ]
    431.275 439.837 o
    394.948 465.808 o
    352.228 447.618 o
    264.963 326.943 o
    177.441 205.906 o
    90.1828 85.2306 o
    0 0 z
  EndSpiro
359.875976562 492.080078125 m 0
 359.875976562 467.5234375 344.665039062 446.672851562 344.665039062 423.13671875 c 0
 344.665039062 397.591796875 365.408203125 376.848632812 390.953125 376.848632812 c 0
 439.787109375 376.848632812 452.473632812 448.2734375 452.473632812 492.080078125 c 0
 452.473632812 616.206054688 350.08984375 718.084960938 214.061523438 698.834960938 c 0
 138.586914062 688.146484375 78.828125 637.260742188 51.865234375 575.385742188 c 0
 27.4052734375 519.236328125 113.278320312 484.506835938 136.803710938 538.475585938 c 0
 153.25 576.234375 191.008789062 608.2890625 243.301757812 608.2890625 c 0
 309.817382812 608.2890625 359.875976562 557.71484375 359.875976562 492.080078125 c 0
  Spiro
    359.876 492.08 o
    355.939 468.545 o
    348.602 445.992 o
    344.665 423.137 o
    350.977 399.804 o
    367.62 383.161 o
    390.953 376.849 o
    428.58 396.952 o
    447.387 442.787 o
    452.474 492.08 o
    420.952 605.03 o
    336.223 681.422 o
    214.062 698.835 o
    144.521 675.864 o
    89.0808 632.465 o
    51.8654 575.386 o
    57.7577 528.903 o
    98.9374 511.584 o
    136.804 538.476 o
    160.073 573.326 o
    196.147 598.599 o
    243.302 608.289 o
    303.036 592.776 o
    344.464 551.328 o
    0 0 z
  EndSpiro
EndSplineSet
Validated: 524325
EndChar

StartChar: three
Encoding: 16 51 29
Width: 500
InSpiro: 1
Flags: HW
HStem: -51423.2 10890<17433.5 37748.4>
VStem: 42826.8 10948.1<-73136.4 -56670.4>
LayerCount: 6
Fore
SplineSet
446.264648438 438.764648438 m 0
 487.58984375 605.322265625 328.659179688 753.618164062 161.231445312 685.287109375 c 0
 114.578125 666.241210938 75.6806640625 630.469726562 52.7568359375 585.513671875 c 0
 24.966796875 531.018554688 108.583984375 491.154296875 135.299804688 543.543945312 c 0
 153.400390625 579.046875 189.837890625 608.244140625 241.228515625 608.244140625 c 0
 315.478515625 608.244140625 376.569335938 542.448242188 356.374023438 461.0546875 c 0
 349.4453125 433.071289062 331.366210938 407.247070312 307.690429688 391.2734375 c 0
 259.447265625 358.724609375 308.818359375 280.349609375 359.381835938 314.456054688 c 0
 402.619140625 343.631835938 433.803710938 388.405273438 446.264648438 438.764648438 c 0
  Spiro
    446.264 438.765 o
    428.011 591.756 o
    318.584 688.81 o
    161.231 685.287 o
    117.508 660.975 o
    80.6678 627.091 o
    52.7565 585.514 o
    55.8408 538.807 o
    95.8961 519.03 o
    135.299 543.544 o
    159.357 576.068 o
    194.988 599.376 o
    241.228 608.244 o
    308.511 588.21 o
    352.023 535.324 o
    356.374 461.055 o
    345.948 434.102 o
    329.275 410.224 o
    307.69 391.273 o
    288.408 349.358 o
    312.826 311.957 o
    359.381 314.456 o
    398.32 348.422 o
    427.833 390.684 o
    0 0 z
  EndSpiro
196.165039062 101.266601562 m 0
 170.362304688 111.76171875 147.954101562 132.365234375 135.310546875 157.201171875 c 0
 109.217773438 208.495117188 24.708984375 170.392578125 52.7353515625 115.306640625 c 0
 84.9619140625 51.970703125 149.51171875 0 240.981445312 0 c 0
 373.29296875 0 482.165039062 117.465820312 445.555664062 262.5390625 c 0
 432.858398438 312.876953125 401.426757812 357.478515625 358.092773438 386.439453125 c 0
 307.819335938 420.01953125 257.40625 342.353515625 306.745117188 309.385742188 c 0
 421.2890625 232.858398438 329.9375 46.6640625 196.165039062 101.266601562 c 0
  Spiro
    196.165 101.267 o
    171.752 114.897 o
    150.954 134.015 o
    135.31 157.201 o
    96.123 181.378 o
    55.8608 162.014 o
    52.735 115.307 o
    95.4827 57.3143 o
    158.758 15.7895 o
    240.981 0 o
    360.856 35.7589 o
    438.238 130.113 o
    445.555 262.539 o
    426.891 310.553 o
    397.171 352.67 o
    358.092 386.439 o
    311.511 388.736 o
    286.951 351.432 o
    306.745 309.386 o
    358.716 209.394 o
    309.655 113.883 o
    0 0 z
  EndSpiro
198.807617188 305.153320312 m 0
 259.68359375 305.153320312 358.823242188 286.956054688 358.823242188 349.615234375 c 0
 358.823242188 412.231445312 259.619140625 394.077148438 198.807617188 394.077148438 c 0
 141.5625 394.077148438 141.272460938 305.153320312 198.807617188 305.153320312 c 0
  Spiro
    198.807 305.153 o
    267.278 302.757 o
    330.916 310.259 o
    358.823 349.615 o
    330.902 388.952 o
    267.249 396.464 o
    198.807 394.077 o
    160.599 371.062 o
    160.534 328.168 o
    0 0 z
  EndSpiro
EndSplineSet
Validated: 524325
EndChar

StartChar: four
Encoding: 17 52 30
Width: 500
InSpiro: 1
Flags: HW
HStem: -66225.6 10527<17337.5 38234.2 48761.2 55533.5>
VStem: 38234.2 10406<-89424.7 -66346.6 -55698.6 -22387.3>
LayerCount: 6
Fore
SplineSet
300.943359375 44.8525390625 m 2
 300.943359375 -14.755859375 393.541015625 -15.056640625 393.541015625 44.8525390625 c 2
 393.541015625 648.337890625 l 2
 393.541015625 707.946289062 300.943359375 708.247070312 300.943359375 648.337890625 c 2
 300.943359375 44.8525390625 l 2
  Spiro
    300.944 44.8527 ]
    324.909 5.06694 o
    369.576 5 o
    393.541 44.8527 [
    393.541 648.338 ]
    369.576 688.124 o
    324.909 688.191 o
    300.944 648.338 [
    0 0 z
  EndSpiro
55.462890625 286.551757812 m 2
 22.591796875 235.784179688 100.98828125 186.509765625 133.236328125 236.321289062 c 2
 386.12890625 626.907226562 l 2
 419 677.674804688 340.603515625 726.959960938 308.35546875 677.137695312 c 2
 55.462890625 286.551757812 l 2
  Spiro
    55.4632 286.552 ]
    53.8273 239.936 o
    91.4815 215.919 o
    133.237 236.321 [
    386.129 626.907 ]
    387.765 673.526 o
    350.111 697.545 o
    308.356 677.138 [
    0 0 z
  EndSpiro
94.349609375 307.735351562 m 2
 34.7412109375 307.735351562 34.4296875 215.137695312 94.349609375 215.137695312 c 2
 407.61328125 215.137695312 l 2
 467.2109375 215.137695312 467.522460938 307.735351562 407.61328125 307.735351562 c 2
 94.349609375 307.735351562 l 2
  Spiro
    94.3499 307.736 ]
    54.5617 283.77 o
    54.4924 239.104 o
    94.3499 215.138 [
    407.614 215.138 ]
    447.395 239.104 o
    447.464 283.77 o
    407.614 307.736 [
    0 0 z
  EndSpiro
EndSplineSet
Validated: 524325
EndChar

StartChar: five
Encoding: 18 53 31
Width: 500
InSpiro: 1
Flags: HW
HStem: -12173.8 10890<48047.2 53156.9>
LayerCount: 6
Fore
SplineSet
405.512695312 606.067382812 m 2
 465.12109375 606.067382812 465.432617188 698.665039062 405.512695312 698.665039062 c 2
 92.8291015625 698.665039062 l 2
 33.220703125 698.665039062 32.919921875 606.067382812 92.8291015625 606.067382812 c 2
 405.512695312 606.067382812 l 2
  Spiro
    405.513 606.069 ]
    445.301 630.034 o
    445.371 674.701 o
    405.513 698.666 [
    92.8297 698.666 ]
    53.0439 674.701 o
    52.9769 630.034 o
    92.8297 606.069 [
    0 0 z
  EndSpiro
139.127929688 652.366210938 m 2
 139.127929688 711.974609375 46.5302734375 712.286132812 46.5302734375 652.366210938 c 2
 46.5302734375 384.176757812 l 2
 46.5302734375 324.568359375 139.127929688 324.256835938 139.127929688 384.176757812 c 2
 139.127929688 652.366210938 l 2
  Spiro
    139.128 652.368 ]
    115.163 692.156 o
    70.4965 692.225 o
    46.5308 652.368 [
    46.5308 384.178 ]
    70.4965 344.39 o
    115.163 344.321 o
    139.128 384.178 [
    0 0 z
  EndSpiro
453.551757812 234.419921875 m 0
 453.551757812 376.990234375 323.442382812 495.959960938 166.627929688 465.688476562 c 0
 128.106445312 458.244140625 46.5302734375 434.482421875 46.5302734375 384.176757812 c 0
 46.5302734375 347.728515625 89.3486328125 324.24609375 120.146484375 346.793945312 c 0
 216.181640625 417.123046875 360.96484375 354.635742188 360.96484375 234.419921875 c 0
 360.96484375 114.21484375 215.161132812 45.6689453125 123.455078125 127.008789062 c 0
 78.9072265625 166.518554688 17.171875 97.5322265625 62.0634765625 57.7216796875 c 0
 212.905273438 -76.072265625 453.551757812 36.162109375 453.551757812 234.419921875 c 0
  Spiro
    453.552 234.421 o
    414.088 364.358 o
    310.584 450.923 o
    166.628 465.69 o
    118.425 452.447 o
    69.0664 425.981 o
    46.5308 384.178 o
    58.7501 353.301 o
    87.4062 338.362 o
    120.147 346.795 o
    225.157 375.643 o
    319.947 332.54 o
    360.965 234.421 o
    319.843 135.149 o
    225.685 91.9865 o
    123.456 127.01 o
    77.8066 135.471 o
    48.1166 102.116 o
    62.064 57.723 o
    230.428 0 o
    385.699 70.8872 o
    0 0 z
  EndSpiro
EndSplineSet
Validated: 524325
EndChar

StartChar: six
Encoding: 19 54 32
Width: 500
InSpiro: 1
Flags: HW
HStem: -10282.7 10043<26170.3 51626.3>
VStem: 1850.9 10890<-73385.1 -50789.2 -38475.7 -23621.7> 42022.9 11011<-72194.7 -52628.3>
LayerCount: 6
Fore
SplineSet
343.716796875 612.337890625 m 0
 365.05078125 612.337890625 385.6328125 604.442382812 406.494140625 604.442382812 c 0
 460.95703125 604.442382812 467.552734375 682.860351562 418.041992188 695.579101562 c 0
 287.986328125 728.998046875 182.401367188 673.482421875 121.836914062 605.989257812 c 0
 85.15234375 565.147460938 48.392578125 503.594726562 48.392578125 444.716796875 c 0
 48.392578125 387.987304688 132.2890625 384.15234375 140.453125 437.69140625 c 0
 155.008789062 533.243164062 233.877929688 612.337890625 343.716796875 612.337890625 c 0
  Spiro
    343.716 612.337 o
    364.817 610.294 o
    385.708 606.485 o
    406.494 604.442 o
    444.674 625.207 o
    449.142 666.338 o
    418.041 695.579 o
    297.015 702.22 o
    196.558 666.588 o
    121.836 605.989 o
    86.5236 559.161 o
    59.2606 503.562 o
    48.392 444.716 o
    70.4071 405.805 o
    112.997 403.126 o
    140.453 437.691 o
    175.157 525.359 o
    245.521 588.338 o
    0 0 z
  EndSpiro
140.979492188 444.716796875 m 2
 140.979492188 504.325195312 48.392578125 504.625976562 48.392578125 444.716796875 c 2
 48.392578125 185.63671875 l 2
 48.392578125 126.028320312 140.979492188 125.716796875 140.979492188 185.63671875 c 2
 140.979492188 444.716796875 l 2
  Spiro
    140.979 444.716 ]
    117.016 484.502 o
    72.3549 484.569 o
    48.392 444.716 [
    48.392 185.636 ]
    72.3549 145.848 o
    117.016 145.779 o
    140.979 185.636 [
    0 0 z
  EndSpiro
140.689453125 190.857421875 m 0
 134.201171875 248.661132812 41.8291015625 241.420898438 48.6826171875 180.416015625 c 0
 61.1005859375 69.87890625 166.4921875 -27.74609375 300.715820312 7.294921875 c 0
 374.740234375 26.5986328125 435.00390625 89.279296875 448.83984375 167.879882812 c 0
 459.474609375 228.358398438 367.811523438 241.764648438 357.649414062 184.00390625 c 0
 337.411132812 68.998046875 154.9765625 63.7021484375 140.689453125 190.857421875 c 0
  Spiro
    140.689 190.857 o
    112.472 227.381 o
    68.0091 223.057 o
    48.682 180.416 o
    89.6483 78.7064 o
    178.586 12 o
    300.715 7.29441 o
    368.882 39.995 o
    420.778 95.6673 o
    448.839 167.879 o
    432.219 211.748 o
    388.126 218.921 o
    357.649 184.003 o
    295.672 106.449 o
    198.7 107.051 o
    0 0 z
  EndSpiro
360.06640625 223.75 m 0
 360.06640625 207.733398438 357.23046875 193.435546875 357.23046875 178.1171875 c 0
 357.23046875 152.561523438 377.984375 131.818359375 403.529296875 131.818359375 c 0
 448.915039062 131.818359375 452.653320312 177.6015625 452.653320312 223.75 c 0
 452.653320312 360.465820312 385.9765625 460.80859375 249.368164062 460.776367188 c 0
 154.536132812 459.938476562 81.392578125 398.9765625 51.486328125 328.325195312 c 0
 27.6064453125 271.907226562 113.844726562 238.069335938 136.80078125 292.295898438 c 0
 154.213867188 333.438476562 195.58203125 367.706054688 251.35546875 368.189453125 c 0
 332.544921875 368.189453125 360.06640625 306.615234375 360.06640625 223.75 c 0
  Spiro
    360.066 223.749 o
    359.332 208.22 o
    357.964 193.181 o
    357.23 178.117 o
    363.545 154.776 o
    380.193 138.13 o
    403.529 131.818 o
    436.414 145.371 o
    450.009 179.446 o
    452.653 223.749 o
    430.351 345.865 o
    362.696 429.78 o
    249.368 460.776 o
    162.641 441.8 o
    94.95 393.82 o
    51.4857 328.325 o
    57.8594 281.893 o
    99.2182 265.001 o
    136.8 292.295 o
    161.812 330.116 o
    200.782 357.461 o
    251.355 368.189 o
    315.575 349.193 o
    349.945 297.962 o
    0 0 z
  EndSpiro
EndSplineSet
Validated: 524325
EndChar

StartChar: seven
Encoding: 20 55 33
Width: 500
InSpiro: 1
Flags: HW
HStem: 645 101<-49.2297 -10.7216>
LayerCount: 6
Fore
SplineSet
92.7958984375 698.262695312 m 2
 33.1875 698.262695312 32.88671875 605.665039062 92.7958984375 605.665039062 c 2
 405.264648438 605.665039062 l 2
 464.873046875 605.665039062 465.173828125 698.262695312 405.264648438 698.262695312 c 2
 92.7958984375 698.262695312 l 2
  Spiro
    92.7956 698.263 ]
    53.0098 674.297 o
    52.9429 629.631 o
    92.7956 605.665 [
    405.264 605.665 ]
    445.05 629.631 o
    445.117 674.297 o
    405.264 698.263 [
    0 0 z
  EndSpiro
448.684570312 635.893554688 m 2
 470.115234375 693.686523438 382.158203125 722.8515625 361.833984375 668.034179688 c 2
 136.795898438 61.0146484375 l 2
 115.365234375 3.2109375 203.322265625 -25.943359375 223.646484375 28.86328125 c 2
 448.684570312 635.893554688 l 2
  Spiro
    448.684 635.894 ]
    440.24 682.061 o
    398.1 696.903 o
    361.834 668.034 [
    136.796 61.0146 ]
    145.239 14.8418 o
    187.38 0 o
    223.646 28.8632 [
    0 0 z
  EndSpiro
EndSplineSet
Validated: 524325
EndChar

StartChar: eight
Encoding: 21 56 34
Width: 500
InSpiro: 1
Flags: HW
HStem: 1909.65 1109.89<1098.85 2765.35>
LayerCount: 6
Fore
SplineSet
139.33984375 502.369140625 m 0
 139.33984375 564.061523438 190.837890625 610.37109375 255.806640625 606.93359375 c 0
 281.3515625 606.93359375 302.10546875 627.676757812 302.10546875 653.232421875 c 0
 302.10546875 684.481445312 277.794921875 699.928710938 244.90234375 699.928710938 c 0
 135.740234375 699.928710938 46.7421875 609.833984375 46.7421875 502.369140625 c 0
 46.7421875 394.356445312 137.0078125 304.293945312 244.849609375 304.293945312 c 0
 309.35546875 304.293945312 311.1171875 396.966796875 249.650390625 396.966796875 c 0
 188.96875 396.966796875 139.33984375 441.8046875 139.33984375 502.369140625 c 0
  Spiro
    139.339 502.369 o
    155.067 557.614 o
    196.788 595.087 o
    255.806 606.934 o
    279.142 613.246 o
    295.79 629.892 o
    302.105 653.232 o
    294.599 679.207 o
    274.327 694.777 o
    244.903 699.929 o
    145.099 672.643 o
    73.8069 601.263 o
    46.7417 502.369 o
    74.0862 403.099 o
    145.647 331.592 o
    244.849 304.294 o
    288.4 328.279 o
    290.04 372.982 o
    249.651 396.967 o
    194.131 410.808 o
    154.425 448.172 o
    0 0 z
  EndSpiro
254.23828125 397.310546875 m 0
 221.83984375 397.310546875 197.9375 381.530273438 197.9375 350.678710938 c 0
 197.9375 320.729492188 218.69140625 304.723632812 254.23828125 304.723632812 c 0
 313.82421875 304.723632812 358.8125 258.392578125 360.671875 198.7734375 c 0
 360.671875 138.896484375 313.115234375 92.5439453125 250.4140625 92.640625 c 0
 189.537109375 92.640625 190.396484375 0 254.3671875 0 c 0
 362.529296875 0 453.2578125 90.341796875 453.2578125 198.7734375 c 0
 453.2578125 306.796875 363.83984375 397.310546875 254.23828125 397.310546875 c 0
  Spiro
    254.238 397.311 o
    225.267 392.087 o
    205.32 376.46 o
    197.938 350.679 o
    204.622 325.474 o
    223.868 309.972 o
    254.238 304.724 o
    307.855 290.531 o
    345.521 252.692 o
    360.671 198.773 o
    346.048 144.671 o
    306.818 106.78 o
    250.414 92.6406 o
    210.187 68.6638 o
    211.405 23.9768 o
    254.367 0 o
    353.915 27.3858 o
    425.782 99.1361 o
    453.258 198.773 o
    426.068 298.168 o
    354.459 369.895 o
    0 0 z
  EndSpiro
140.123046875 198.880859375 m 0
 140.123046875 260.616210938 191.697265625 307.516601562 256.568359375 304.379882812 c 0
 282.11328125 304.379882812 302.857421875 325.123046875 302.857421875 350.678710938 c 0
 302.857421875 381.508789062 278.9453125 397.310546875 246.556640625 397.310546875 c 0
 137.0625 397.310546875 47.537109375 306.850585938 47.537109375 198.880859375 c 0
 47.537109375 90.4384765625 138.158203125 0 246.4609375 0 c 0
 310.150390625 0 311.580078125 92.640625 250.4140625 92.640625 c 0
 189.87109375 92.640625 140.123046875 138.391601562 140.123046875 198.880859375 c 0
  Spiro
    140.124 198.881 o
    155.867 254.319 o
    197.599 292.168 o
    256.569 304.38 o
    279.902 310.692 o
    296.545 327.338 o
    302.857 350.679 o
    295.472 376.45 o
    275.523 392.082 o
    246.557 397.311 o
    146.383 369.911 o
    74.7503 298.224 o
    47.5366 198.881 o
    74.9899 99.2109 o
    146.841 27.4112 o
    246.46 0 o
    289.362 23.9768 o
    290.708 68.6638 o
    250.414 92.6406 o
    194.961 106.715 o
    155.234 144.5 o
    0 0 z
  EndSpiro
254.41015625 699.928710938 m 0
 221.505859375 699.928710938 197.20703125 684.513671875 197.20703125 653.232421875 c 0
 197.20703125 622.875 218.015625 607.341796875 254.41015625 607.341796875 c 0
 312.44921875 607.341796875 359.97265625 559.431640625 359.97265625 502.369140625 c 0
 359.97265625 442.438476562 313.09375 396.81640625 249.650390625 396.966796875 c 0
 188.484375 396.966796875 189.666015625 304.293945312 254.462890625 304.293945312 c 0
 362.271484375 304.293945312 452.5703125 394.32421875 452.5703125 502.369140625 c 0
 452.5703125 609.833984375 363.58203125 699.928710938 254.41015625 699.928710938 c 0
  Spiro
    254.41 699.929 o
    224.981 694.784 o
    204.711 679.221 o
    197.208 653.232 o
    203.937 627.863 o
    223.43 612.483 o
    254.41 607.342 o
    307.527 592.835 o
    345.53 554.899 o
    359.973 502.369 o
    345.497 448.42 o
    306.401 410.882 o
    249.651 396.967 o
    209.334 372.982 o
    210.847 328.279 o
    254.463 304.294 o
    353.651 331.585 o
    425.219 403.084 o
    452.571 502.369 o
    425.508 601.263 o
    354.218 672.643 o
    0 0 z
  EndSpiro
777.228515625 -2489.26269531 m 1024
  Spiro
    777.228 -2489.26 {
    0 0 z
  EndSpiro
EndSplineSet
Validated: 524325
EndChar

StartChar: nine
Encoding: 22 57 35
Width: 500
InSpiro: 1
Flags: HW
HStem: -145918 128442<197808 378147>
LayerCount: 6
Fore
SplineSet
235.6 603 m 0
 260.350548849 606.038287405 286.071258914 600.50949914 307.387097181 587.569023968 c 0
 328.702935447 574.628548797 345.47560279 554.360345717 354.2 531 c 0
 364.899664523 502.350701225 363.178068125 469.299448237 349.559775096 441.916839958 c 0
 335.941482068 414.534231679 310.624241626 393.217886905 281.322126645 384.462819869 c 0
 252.020011663 375.707752834 219.158513813 379.641094568 192.750414298 395.064369875 c 0
 166.342314784 410.487645183 146.771081707 437.176894969 140 467 c 0
 133.088256163 497.442648798 139.645530822 530.691319506 157.597921156 556.230284834 c 0
 175.55031149 581.769250161 204.615168101 599.196414731 235.6 603 c 0
  Spiro
    235.6 603 o
    354.2 531 o
    140 467 o
    0 0 z
  EndSpiro
120.025390625 92.1787109375 m 0
 97.390625 89.16015625 79.90234375 69.7490234375 79.90234375 46.2880859375 c 0
 79.90234375 20.7431640625 100.646484375 0 126.201171875 0 c 0
 128.296875 0 130.359375 0.1396484375 132.37890625 0.408203125 c 0
 166.35546875 4.94140625 199.26953125 15.6083984375 229.466796875 31.8076171875 c 0
 279.353515625 58.587890625 318.6484375 98.720703125 348.619140625 142.366210938 c 0
 378.58984375 185.958007812 399.482421875 232.965820312 416.83203125 279.049804688 c 0
 431.837890625 318.903320312 445.501953125 361.49609375 451.63671875 407.333007812 c 0
 453.73046875 423.038085938 454.912109375 439.086914062 454.912109375 455.350585938 c 0
 454.912109375 486.771484375 450.541015625 518.84765625 439.734375 549.989257812 c 0
 427.412109375 585.4921875 406.958984375 618.997070312 378.0625 645.723632812 c 0
 349.14453125 672.50390625 312.6328125 691.506835938 272.40234375 697.876953125 c 0
 262.541015625 699.4453125 252.60546875 700.208007812 242.6796875 700.208007812 c 0
 210.001953125 700.208007812 177.96875 692.043945312 149.33984375 676.403320312 c 0
 112.12890625 656.079101562 82.3515625 623.9921875 64.455078125 585.986328125 c 0
 51.51171875 558.443359375 45.087890625 528.547851562 45.087890625 498.405273438 c 0
 45.087890625 486.954101562 46.033203125 475.502929688 47.923828125 464.202148438 c 0
 54.80859375 423.263671875 73.748046875 385.290039062 101.751953125 354.986328125 c 0
 136.9765625 316.776367188 185.166015625 292.423828125 236.56640625 286.612304688 c 0
 244.6015625 285.688476562 252.669921875 285.237304688 260.736328125 285.237304688 c 0
 282.048828125 285.237304688 303.189453125 288.341796875 323.470703125 294.411132812 c 1
 309.06640625 258.317382812 292.68359375 224.42578125 272.263671875 194.723632812 c 0
 248.630859375 160.31640625 219.29296875 131.44140625 185.767578125 113.4375 c 0
 165.388671875 102.512695312 142.90625 95.240234375 120.025390625 92.1787109375 c 0
  Spiro
    120.025 92.1787 o
    99.5813 84.1657 o
    85.2648 67.9226 o
    79.9028 46.2881 o
    86.2151 22.9547 o
    102.861 6.31191 o
    126.202 0 o
    128.283 0.0460598 o
    130.347 0.183197 o
    132.378 0.408203 o
    165.907 6.95517 o
    198.457 17.4872 o
    229.466 31.8076 o
    275.826 62.6397 o
    315.529 100.296 o
    348.619 142.366 o
    375.744 186.891 o
    398.117 232.865 o
    416.832 279.05 o
    431.148 319.793 o
    443.232 362.603 o
    451.636 407.333 o
    453.415 423.132 o
    454.529 439.179 o
    454.913 455.351 o
    453.382 486.899 o
    448.465 518.627 o
    439.734 549.989 o
    424.708 584.615 o
    404.133 616.945 o
    378.063 645.724 o
    346.791 669.711 o
    311.212 687.49 o
    272.403 697.877 o
    262.53 699.177 o
    252.595 699.953 o
    242.679 700.208 o
    210.351 697.517 o
    178.971 689.516 o
    149.34 676.403 o
    114.804 652.402 o
    86.1223 621.769 o
    64.4556 585.986 o
    53.6898 557.766 o
    47.228 528.358 o
    45.0874 498.405 o
    45.4019 486.971 o
    46.3491 475.536 o
    47.9233 464.202 o
    58.7015 424.465 o
    76.9019 387.638 o
    101.752 354.986 o
    140.894 321.597 o
    186.646 298.413 o
    236.567 286.612 o
    244.604 285.846 o
    252.679 285.388 o
    260.737 285.237 o
    281.945 286.265 o
    302.95 289.339 o
    323.471 294.411 v
    308.347 259.159 o
    291.396 225.716 o
    272.263 194.724 o
    246.812 162.388 o
    217.81 134.843 o
    185.767 113.438 o
    164.772 103.759 o
    142.688 96.6174 o
    0 0 z
  EndSpiro
453.505371094 479.05859375 m 0
 454.111597531 491.206598046 452.926142989 503.408236855 450.45910169 515.318536016 c 0
 447.990134066 527.238135025 444.669031819 538.965391005 441.27728933 550.655930965 c 0
 439.563629651 556.562513501 437.695597191 562.441031623 435.18398683 568.054957178 c 0
 432.67237647 573.668882733 429.416860583 578.914015766 426.005371094 584.03125 c 2
 425.940917969 584.127929688 l 1025
  Spiro
    453.505 479.059 {
    450.459 515.319 o
    441.277 550.656 o
    426.005 584.031 [
    425.941 584.128 v
    0 0 z
  EndSpiro
EndSplineSet
Validated: 524331
Layer: 2
SplineSet
506.201171875 -81 m 1024
  Spiro
    506.202 -81 {
    0 0 z
  EndSpiro
EndSplineSet
Layer: 3
SplineSet
156.201171875 458 m 1024
  Spiro
    156.202 458 {
    0 0 z
  EndSpiro
EndSplineSet
EndChar

StartChar: slash
Encoding: 12 47 36
Width: 500
InSpiro: 1
Flags: W
LayerCount: 6
Fore
SplineSet
41 67 m 2
 392 719 l 2
 394.880364193 730.395339561 403.238587472 740.273239799 414 745 c 0
 425.189144584 749.914633944 438.723823366 749.114653924 449.242010142 742.89224842 c 0
 459.760196919 736.669842917 466.982448409 725.178471664 468 713 c 0
 468.699099403 704.632893764 466.554314172 696.053752842 462 689 c 2
 115 36 l 2
 110.871324664 26.5445649674 104.25580742 18.1881221331 96 12 c 0
 87.928390255 5.94994282536 78.087160184 1.94277139184 68 2 c 0
 59.3570245096 2.04903515446 50.736796101 5.15894818131 44.1535508277 10.7593331187 c 0
 37.5703055544 16.359718056 33.1016385813 24.4273795015 32 33 c 0
 30.9544603237 41.136075672 32.8727193387 49.4165313859 36 57 c 0
 37.4220328453 60.4483446221 39.0945440095 63.7933669505 41 67 c 2
  Spiro
    41 67 v
    392 719 v
    414 745 c
    468 713 c
    462 689 v
    115 36 v
    96 12 c
    68 2 c
    32 33 c
    36 57 c
    0 0 z
  EndSpiro
EndSplineSet
Validated: 33
EndChar

StartChar: degree
Encoding: 90 176 37
Width: 500
InSpiro: 1
Flags: W
HStem: 454.897 289.207
VStem: 105.397 289.207
LayerCount: 6
Fore
SplineSet
201 562 m 0
 210.424804688 548.779296875 225.234375 539.51953125 241.247070312 536.834960938 c 0
 257.259765625 534.151367188 274.279296875 538.075195312 287.5 547.5 c 0
 300.720703125 556.924804688 309.98046875 571.734375 312.665039062 587.747070312 c 0
 315.348632812 603.759765625 311.424804688 620.779296875 302 634 c 0
 292.575195312 647.220703125 277.765625 656.48046875 261.752929688 659.165039062 c 0
 245.740234375 661.848632812 228.720703125 657.924804688 215.5 648.5 c 0
 202.279296875 639.075195312 193.01953125 624.265625 190.334960938 608.252929688 c 0
 187.651367188 592.240234375 191.575195312 575.220703125 201 562 c 0
  Spiro
    302 634 c
    201 562 c
    0 0 z
  EndSpiro
129 516 m 0
 107.139751119 547.677725924 98.4546586565 588.159439259 105.396663247 626.016504294 c 0
 112.338667838 663.87356933 134.822274076 698.639751119 166.5 720.5 c 0
 198.177725924 742.360248881 238.659439259 751.045341344 276.516504294 744.103336753 c 0
 314.37356933 737.161332162 349.139751119 714.677725924 371 683 c 0
 392.860248881 651.322274076 401.545341344 610.840560741 394.603336753 572.983495706 c 0
 387.661332162 535.12643067 365.177725924 500.360248881 333.5 478.5 c 0
 301.822274076 456.639751119 261.340560741 447.954658656 223.483495706 454.896663247 c 0
 185.62643067 461.838667838 150.860248881 484.322274076 129 516 c 0
  Spiro
    129 516 c
    371 683 c
    0 0 z
  EndSpiro
EndSplineSet
Validated: 33
EndChar

StartChar: period
Encoding: 11 46 38
Width: 500
Flags: W
HStem: 9 146.675<201.49 292.376>
VStem: 172.167 150.59<26.5018 124.993>
LayerCount: 6
Fore
SplineSet
213.502929688 9.34765625 m 5
 191.962890625 21.03515625 172.166992188 53.4453125 172.166992188 77.0234375 c 4
 172.166992188 114.107421875 213.415039062 156.373046875 248.922851562 155.674804688 c 4
 281.31640625 155.036132812 322.661132812 111.799804688 322.756835938 78.4609375 c 4
 322.829101562 52.890625 303.196289062 20.9951171875 280 9 c 4
 254.001953125 -4.4443359375 238.774414062 -4.3642578125 213.502929688 9.34765625 c 5
EndSplineSet
Validated: 33
EndChar

StartChar: hyphen
Encoding: 10 45 39
Width: 500
InSpiro: 1
Flags: W
HStem: 323 97<41.9836 86 413 456.315>
LayerCount: 6
Fore
SplineSet
143 323 m 0
 229.65560322 321.065133573 316.361843885 321.398619114 403 324 c 0
 410.370803796 324.22131436 417.787520028 324.464467094 425 326 c 0
 438.939577048 328.967728068 451.995568682 337.117315361 459.545066107 349.205504091 c 0
 463.31981482 355.249598456 465.683186502 362.196343343 466.177776906 369.305153713 c 0
 466.67236731 376.413964082 465.275587174 383.671466742 462 390 c 0
 457.533869737 398.628698429 449.749566767 405.247538036 441.025547561 409.524481452 c 0
 432.301528354 413.801424867 422.6517699 415.884610432 413 417 c 0
 407.026946569 417.690265263 401.012756331 418.024386942 395 418 c 2
 145 420 l 1
 105 420 l 2
 98.6536122348 420.123728694 92.2983367545 419.789240511 86 419 c 0
 76.2874183959 417.782922672 66.6136874411 415.445926318 57.9183979692 410.95065551 c 0
 49.2231084973 406.455384702 41.5272503993 399.678682069 37 391 c 0
 33.6532295891 384.58428322 32.1175314241 377.25846715 32.4471408255 370.029798419 c 0
 32.7767502268 362.801129688 34.9547325217 355.682916331 38.5888745819 349.425496298 c 0
 45.8571587023 336.910656232 58.8790145947 328.169691961 73 325 c 0
 80.8480093073 323.238382712 88.9572274333 323.091405664 97 323 c 0
 112.332673223 322.82574502 127.667326777 322.82574502 143 323 c 0
  Spiro
    143 323 v
    403 324 c
    425 326 c
    462 390 c
    413 417 c
    395 418 v
    145 420 v
    105 420 v
    86 419 c
    37 391 c
    73 325 c
    97 323 c
    0 0 z
  EndSpiro
EndSplineSet
Validated: 41
EndChar

StartChar: uni0394
Encoding: 88 916 40
Width: 502
InSpiro: 1
Flags: W
HStem: 0 109<128 378> 719 20G<254.453 268.332>
LayerCount: 6
Fore
SplineSet
256 569 m 1
 128 109 l 1
 378 111 l 1
 256 569 l 1
  Spiro
    256 569 v
    128 109 v
    378 111 v
    0 0 z
  EndSpiro
240 0 m 1
 126 0 l 2
 120.668945312 0.1796875 115.331054688 0.1796875 110 0 c 0
 94.30859375 -0.5302734375 78.4814453125 -2.611328125 63 0 c 0
 57.408203125 0.943359375 51.884765625 2.5087890625 46.8408203125 5.099609375 c 0
 41.796875 7.69140625 37.236328125 11.34375 34 16 c 0
 31.0234375 20.2822265625 29.232421875 25.3056640625 28.2431640625 30.42578125 c 0
 27.25390625 35.546875 27.0380859375 40.78515625 27 46 c 0
 26.6875 89.171875 38.3388671875 131.431640625 50 173 c 0
 97.638671875 342.821289062 146.975585938 512.165039062 198 681 c 0
 201.09765625 696.340820312 209.299804688 710.60546875 221 721 c 0
 232.341796875 731.077148438 246.905273438 737.470703125 262 739 c 1
 274.663085938 735.586914062 286.45703125 728.99609375 296 720 c 0
 307.353515625 709.296875 315.4609375 695.196289062 319 680 c 0
 361.368164062 510.071289062 406.041015625 340.717773438 453 172 c 0
 464.576171875 130.408203125 476.387695312 88.1708984375 476 45 c 0
 475.953125 39.787109375 475.724609375 34.5517578125 474.732421875 29.43359375 c 0
 473.739257812 24.3154296875 471.955078125 19.294921875 469 15 c 0
 465.78125 10.3212890625 461.245117188 6.625 456.202148438 4.0146484375 c 0
 451.158203125 1.404296875 445.615234375 -0.15234375 440 -1 c 0
 428.442382812 -2.7451171875 416.67578125 -1.5380859375 405 -1 c 0
 395.672851562 -0.5703125 386.327148438 -0.5703125 377 -1 c 2
 240 0 l 1
  Spiro
    240 0 v
    126 0 v
    110 0 c
    63 0 c
    34 16 c
    27 46 c
    50 173 c
    198 681 v
    221 721 c
    262 739 v
    296 720 c
    319 680 v
    453 172 c
    476 45 c
    469 15 c
    440 -1 c
    405 -1 c
    377 -1 v
    0 0 z
  EndSpiro
EndSplineSet
Validated: 33
EndChar

StartChar: colon
Encoding: 23 58 46
Width: 500
Flags: W
HStem: 0 172.649<191.835 300.165> 259.503 171.875<191.835 299.541>
VStem: 164.493 163.748<28.0075 143.868 288.331 401.892>
LayerCount: 6
Fore
SplineSet
246 431.377929688 m 0
 268.518554688 431.377929688 287.610351562 422.861328125 303.275390625 405.829101562 c 0
 319.4296875 389.3125 327.506835938 369.182617188 327.506835938 345.440429688 c 0
 327.506835938 321.698242188 319.4296875 301.310546875 303.275390625 284.27734375 c 0
 287.610351562 267.760742188 268.518554688 259.502929688 246 259.502929688 c 0
 223.481445312 259.502929688 204.145507812 267.760742188 187.990234375 284.27734375 c 0
 172.326171875 301.310546875 164.493164062 321.698242188 164.493164062 345.440429688 c 0
 164.493164062 369.182617188 172.326171875 389.3125 187.990234375 405.829101562 c 0
 204.145507812 422.861328125 223.481445312 431.377929688 246 431.377929688 c 0
246 172.649414062 m 0
 269.0078125 172.649414062 288.344726562 164.1328125 304.009765625 147.100585938 c 0
 320.1640625 130.067382812 328.241210938 109.6796875 328.241210938 85.9375 c 0
 328.241210938 62.1953125 320.1640625 41.8076171875 304.009765625 24.7744140625 c 0
 287.85546875 8.2578125 268.518554688 0 246 0 c 0
 223.481445312 0 204.145507812 8.2578125 187.990234375 24.7744140625 c 0
 172.326171875 41.8076171875 164.493164062 62.1953125 164.493164062 85.9375 c 0
 164.493164062 109.6796875 172.326171875 130.067382812 187.990234375 147.100585938 c 0
 204.145507812 164.1328125 223.481445312 172.649414062 246 172.649414062 c 0
EndSplineSet
Validated: 1
EndChar

StartChar: plus
Encoding: 8 43 47
Width: 500
InSpiro: 1
Flags: W
HStem: 325 94<80.3616 109 391 419.638>
VStem: 205 91<201.362 230 512 540.638>
LayerCount: 6
Fore
SplineSet
204 323 m 1
 205 230 l 2
 205 219 211.375976562 208.822265625 219 201 c 0
 227.763671875 192.009765625 240.06640625 186.436523438 252.620117188 186.274414062 c 0
 265.173828125 186.111328125 277.793945312 191.498046875 286 201 c 0
 292.626953125 208.673828125 296 219 296 229 c 2
 298 325 l 1
 391 326 l 2
 402 326 412.178112299 332.375817007 420 340 c 0
 428.990460011 348.763218668 434.563223458 361.066579104 434.72591291 373.620299858 c 0
 434.888602361 386.174020613 429.502017043 398.794267567 420 407 c 0
 412.325877502 413.627203003 402 417 392 417 c 2
 296 419 l 1
 295 512 l 2
 295 523 288.624023438 533.177734375 281 541 c 0
 272.236328125 549.990234375 259.93359375 555.563476562 247.379882812 555.725585938 c 0
 234.826171875 555.888671875 222.206054688 550.501953125 214 541 c 0
 207.373046875 533.326171875 204 523 204 513 c 2
 202 417 l 1
 109 416 l 2
 98 416 87.822265625 409.624023438 80 402 c 0
 71.009765625 393.236328125 65.4365234375 380.93359375 65.2744140625 368.379882812 c 0
 65.111328125 355.826171875 70.498046875 343.206054688 80 335 c 0
 87.673828125 328.373046875 98 325 108 325 c 2
 204 323 l 1
  Spiro
    204 323 v
    205 230 v
    219 201 c
    286 201 c
    296 229 v
    298 325 v
    391 326 v
    420 340 c
    420 407 c
    392 417 v
    296 419 v
    295 512 v
    281 541 c
    214 541 c
    204 513 v
    202 417 v
    109 416 v
    80 402 c
    80 335 c
    108 325 v
    0 0 z
  EndSpiro
EndSplineSet
Validated: 41
EndChar

StartChar: a
Encoding: 62 97 48
Width: 500
Flags: W
HStem: 208.805 106.354<195.044 275.04> 725 20G<226.535 247.465> 725 20G<226.535 247.465>
LayerCount: 6
Fore
SplineSet
34.4921875 18.0224609375 m 0xc0
 15.935546875 37.775390625 13.7275390625 82.4580078125 28.9267578125 130.676757812 c 0
 39.0068359375 162.658203125 47.9443359375 194.087890625 76.552734375 298.170898438 c 0
 85.1982421875 329.627929688 100.118164062 381.102539062 109.706054688 412.55859375 c 0
 125.444335938 464.190429688 146.698242188 542.258789062 171.989257812 641.3359375 c 0
 177.008789062 660.99609375 188.413085938 692.36328125 197.333984375 711.041015625 c 0
 211.811523438 741.353515625 216.0703125 745 237 745 c 0
 257.930664062 745 262.189453125 741.353515625 276.666992188 711.041015625 c 0
 285.586914062 692.36328125 296.9921875 660.99609375 302.010742188 641.3359375 c 0
 327.302734375 542.258789062 348.556640625 464.190429688 364.293945312 412.55859375 c 0
 373.8828125 381.102539062 388.801757812 329.627929688 397.448242188 298.170898438 c 0
 426.056640625 194.087890625 434.993164062 162.658203125 445.07421875 130.676757812 c 0
 460.815429688 80.7353515625 458.203125 35.5244140625 438.506835938 17.0205078125 c 0
 418.787109375 -1.5048828125 417.30078125 -1.6357421875 387.465820312 12.521484375 c 0
 369.940429688 20.837890625 361.993164062 30.99609375 355.3046875 53.6298828125 c 0
 350.41796875 70.1640625 342.380859375 88.7998046875 339.967773438 96.1064453125 c 0
 336.740234375 105.87890625 334.740234375 113.87890625 333.515625 121.619140625 c 0
 332.390625 128.733398438 328.565429688 151.38671875 322.514648438 171.760742188 c 0
 311.513671875 208.8046875 311.513671875 208.8046875 237 208.8046875 c 0
 162.487304688 208.8046875 162.487304688 208.8046875 151.486328125 171.760742188 c 0
 145.435546875 151.38671875 142.0703125 128.645507812 140.485351562 121.619140625 c 0
 138.740234375 113.87890625 137.581054688 102.934570312 134.032226562 96.1064453125 c 0
 130.483398438 89.279296875 123.58203125 70.1640625 118.696289062 53.6298828125 c 0
 112.006835938 30.99609375 104.059570312 20.837890625 86.5341796875 12.521484375 c 0
 56.1484375 -1.8974609375 52.8818359375 -1.552734375 34.4921875 18.0224609375 c 0xc0
275.040039062 315.100585938 m 1
 282.7734375 320.00390625 282.307617188 328.717773438 272.466796875 363.249023438 c 0
 265.858398438 386.4375 255.55859375 415.98046875 249.578125 428.899414062 c 0
 239.604492188 450.443359375 237.9609375 451.330078125 229.7421875 439.594726562 c 0
 224.8125 432.55859375 213.704101562 403.041015625 205.055664062 374.001953125 c 0
 192.233398438 330.946289062 189.692382812 315.91015625 198.8671875 315.158203125 c 0
 215.10546875 313.826171875 269.360351562 318.103515625 275.040039062 315.104492188 c 1
 275.040039062 315.100585938 l 1
EndSplineSet
Validated: 33
EndChar

StartChar: b
Encoding: 63 98 49
Width: 500
Flags: W
HStem: 0.640625 92.7129<125.275 293.445> 333.843 98.7355<123.212 280.486> 644.622 94.318<126.575 269.692>
VStem: 25.5088 92.3906<108.513 630.159>
LayerCount: 6
Fore
SplineSet
72 5 m 1
 64.345703125 6.9443359375 50.7529296875 13.3369140625 41.794921875 19.20703125 c 0
 25.5087890625 29.8779296875 25.5087890625 29.8779296875 25.5087890625 372.647460938 c 0
 25.5087890625 695.690429688 26.2568359375 716.092773438 38.5048828125 727.177734375 c 0
 49.474609375 737.10546875 69.486328125 738.940429688 166.783203125 738.940429688 c 0
 299.796875 738.940429688 307.53125 736.596679688 363.2734375 679.396484375 c 0
 402.731445312 638.90625 423.240234375 601.702148438 428.750976562 560.62109375 c 0
 433.41015625 525.88671875 411.625976562 443.541992188 390.201171875 414.90234375 c 0
 372.77734375 391.610351562 374.900390625 386.473632812 380.856445312 376.484375 c 0
 383.434570312 372.16015625 384.836914062 369.615234375 386.900390625 365.473632812 c 0
 389.390625 360.475585938 393.900390625 353.473632812 398.0078125 346.134765625 c 0
 401.82421875 339.31640625 414.725585938 323.639648438 422.8828125 308.420898438 c 0
 443.41015625 270.122070312 443.602539062 156.46875 423.1953125 124.1875 c 0
 415.78125 112.4609375 404.407226562 93.4287109375 397.91796875 81.8935546875 c 0
 380.8359375 51.5263671875 374.162109375 46.25 321.95703125 21.8427734375 c 0
 276.283203125 0.48828125 271.959960938 -0.1591796875 180.380859375 0.640625 c 0
 128.42578125 1.0927734375 79.654296875 3.056640625 71.9990234375 5 c 1
 72 5 l 1
  Spiro
    72 5 v
    62.7683 8.23863 o
    51.8954 13.3525 o
    41.7949 19.207 o
    30.3416 39.3686 o
    26.1102 131.198 o
    25.5088 372.647 o
    26.1547 605.52 o
    29.6977 702.173 o
    38.5049 727.178 o
    54.9916 734.634 o
    92.7739 738.099 o
    166.783 738.94 o
    264.386 736.222 o
    317.159 720.23 o
    363.273 679.396 o
    396.534 639.775 o
    418.11 600.636 o
    428.751 560.621 o
    425.598 513.824 o
    410.734 457.638 o
    390.201 414.902 o
    378.717 396.824 o
    376.762 385.699 o
    380.856 376.484 o
    383.109 372.632 o
    384.991 369.205 o
    386.9 365.474 o
    389.971 359.876 o
    393.86 353.293 o
    398.008 346.135 o
    404.332 336.72 o
    413.666 323.433 o
    422.883 308.421 o
    436.615 250.88 o
    436.739 177.719 o
    423.195 124.188 o
    414.798 110.589 o
    405.699 95.3646 o
    397.918 81.8936 o
    382.25 58.2707 o
    361.029 41.4943 o
    321.957 21.8428 o
    285.336 6.68699 o
    247.59 1.03426 o
    180.381 0.640625 o
    130.938 1.53864 o
    91.9239 3.10834 o
    71.999 5 v
    0 0 z
  EndSpiro
284.913085938 107.815429688 m 0
 292.73046875 114.446289062 307.041992188 126.092773438 316.716796875 133.6953125 c 0
 332.114257812 145.795898438 334.647460938 154.244140625 337.03125 201.45703125 c 0
 339.754882812 255.39453125 339.754882812 255.39453125 299.579101562 294.618164062 c 0
 259.40234375 333.842773438 259.40234375 333.842773438 188.651367188 333.842773438 c 0
 117.899414062 333.842773438 117.899414062 333.842773438 117.899414062 226.021484375 c 0
 117.899414062 88.26171875 116.750976562 89.978515625 206.629882812 93.353515625 c 0
 253.91796875 95.12890625 274.421875 98.9169921875 284.913085938 107.815429688 c 0
  Spiro
    284.913 107.815 o
    294.472 115.774 o
    305.92 125.09 o
    316.717 133.695 o
    328.289 146.135 o
    334.131 165.621 o
    337.031 201.457 o
    337.463 240.837 o
    327.733 265.042 o
    299.579 294.618 o
    268.712 322.203 o
    239.891 332.394 o
    188.651 333.843 o
    138.894 329.861 o
    120.512 301.848 o
    117.899 226.021 o
    120.921 129.71 o
    143.719 95.6226 o
    206.63 93.3535 o
    245.58 95.9111 o
    270.482 100.512 o
    0 0 z
  EndSpiro
262.282 441.301 m 0
 266.22171924 443.13557369 269.779636296 445.686282634 273.254 448.297 c 0
 277.934659298 451.814155818 282.610494525 455.340832457 287.156 459.031 c 0
 291.894696162 462.878005106 296.422208943 466.977461291 300.903 471.122 c 0
 306.461955562 476.263794431 312.060812384 481.508507068 316.112 487.906 c 0
 319.471716068 493.211545393 321.588771422 499.251241037 322.631 505.444 c 0
 324.173173829 514.607355335 323.824881871 523.96944762 324.001 533.26 c 0
 324.186343554 543.037210394 324.759891309 552.960755542 322.479 562.47 c 0
 320.791722043 569.504416107 317.475405684 576.092570333 313.173 581.908 c 0
 306.378176333 591.09235453 297.597267523 598.584661503 289.08 606.199 c 0
 278.172279094 615.95037613 267.573708343 626.242946152 255.094 633.88 c 0
 245.087944558 640.003282861 233.683187125 643.822624189 221.993 644.8 c 0
 213.525845834 645.507909256 205.012464245 644.933838926 196.521476427 644.62245321 c 0
 188.030488609 644.311067494 179.526478953 644.507314065 171.053 645.135 c 0
 165.036747415 645.580663127 158.991968047 646.140095268 152.982058383 645.615789422 c 0
 146.972148719 645.091483576 140.973829813 643.312491298 136.098 639.76 c 0
 131.81115481 636.636638271 128.524069896 632.242446178 126.407959268 627.378856355 c 0
 124.291848639 622.515266531 123.270816456 617.241196255 122.7 611.968 c 0
 121.374803404 599.725848168 121.66602334 587.368223232 121.032508312 575.070862287 c 0
 120.398993283 562.773501342 119.480962893 550.481667659 119.485 538.168 c 0
 119.489029874 525.876395615 120.363375288 513.601023033 120.554227628 501.310899764 c 0
 120.745079967 489.020776494 119.519361844 476.700299818 120.489 464.447 c 0
 120.941329127 458.730925018 122.093485434 452.942700468 125 448 c 0
 127.733961155 443.350736846 131.963694395 439.665252276 136.767 437.212 c 0
 143.604648986 433.719722116 151.444129745 432.694022452 159.121110936 432.578228405 c 0
 166.798092127 432.462434359 174.465504011 433.082334606 182.139 433.341 c 0
 193.68833524 433.730315815 205.265091907 433.493781831 216.783 434.43 c 0
 226.414712649 435.212901227 236.022185803 436.268592369 245.631 437.295 c 0
 251.335572699 437.904358952 257.081201229 438.879190726 262.282 441.301 c 0
  Spiro
    262.282 441.301 o
    273.254 448.297 o
    287.156 459.031 o
    300.903 471.122 o
    316.112 487.906 o
    322.631 505.444 o
    324.001 533.26 o
    322.479 562.47 o
    313.173 581.908 o
    289.08 606.199 o
    255.094 633.88 o
    221.993 644.8 o
    171.053 645.135 o
    136.098 639.76 o
    122.7 611.968 o
    119.485 538.168 o
    120.489 464.447 o
    125 448 c
    136.767 437.212 o
    182.139 433.341 o
    216.783 434.43 o
    245.631 437.295 o
    0 0 z
  EndSpiro
EndSplineSet
Validated: 33
EndChar

StartChar: c
Encoding: 64 99 50
Width: 500
Flags: W
HStem: 640.565 99.8896<171.582 298.346>
VStem: 19.2725 99.5723<172.988 592.012>
LayerCount: 6
Fore
SplineSet
175.063476562 8.05078125 m 4
 128.209960938 19.927734375 53.921875 95.091796875 32.771484375 152.020507812 c 4
 17.724609375 192.521484375 17.1416015625 202.833984375 19.2724609375 390.784179688 c 4
 21.4990234375 587.21875 21.4990234375 587.21875 41.6318359375 621.0078125 c 4
 84.7578125 693.391601562 165.177734375 740.455078125 245.739257812 740.455078125 c 4
 289.081054688 740.455078125 300.123046875 737.483398438 336.909179688 715.923828125 c 4
 387.762695312 686.119140625 438.362304688 633.221679688 438.362304688 609.864257812 c 4
 438.362304688 584.330078125 416.954101562 569.400390625 380.341796875 569.400390625 c 4
 352.939453125 569.400390625 346.084960938 572.516601562 332.20703125 591.287109375 c 4
 315.4375 613.96875 263.37890625 640.752929688 236.426757812 640.565429688 c 4
 204.5703125 640.350585938 163.506835938 620.146484375 142.581054688 594.407226562 c 4
 121.19921875 568.10546875 121.19921875 568.10546875 118.844726562 396.990234375 c 4
 116.6328125 236.283203125 117.396484375 223.766601562 131.392578125 191.232421875 c 4
 139.588867188 172.1796875 153.505859375 148.810546875 162.319335938 139.299804688 c 4
 182.654296875 117.358398438 226.240234375 99 258 99 c 4
 282.421875 99 338.521484375 132.591796875 345.708007812 142.2578125 c 4
 351.028320312 149.4140625 385.39453125 170.272460938 405.771484375 170.272460938 c 4
 428.041015625 170.272460938 448.760742188 141.512695312 443.0078125 118.587890625 c 4
 436.876953125 94.1640625 375.229492188 34.5009765625 340.0390625 18.9345703125 c 4
 302.444335938 2.3046875 219.354492188 -3.1767578125 175.063476562 8.05078125 c 4
EndSplineSet
Validated: 33
EndChar

StartChar: d
Encoding: 65 100 51
Width: 500
Flags: W
HStem: 0 95<125.029 305.681> 632.86 104.423<126.018 295.319>
VStem: 26 100<94.9969 632.803> 346.241 98.2012<135.935 576.825>
LayerCount: 6
Fore
SplineSet
77 0 m 0
 58 0 31.654296875 -0.24609375 28 0 c 0
 27.4033203125 0.0400390625 28.0226974995 110.325625123 27 366 c 0
 26 616 26.0764086354 674.974609826 26 715 c 0
 25.9920134512 719.1836205 25.9949128692 727.883102938 25.997569767 732.99999987 c 0
 25.9988113642 735.391181476 26 737 26 737 c 7
 49.2802734375 737 113.233192165 737.10873912 158.110351562 737.283203125 c 4
 234.977539062 737.58203125 258.534179688 734.993164062 299.072265625 721.798828125 c 0
 357.341796875 702.83203125 399.538085938 668.296875 424.16015625 619.422851562 c 0
 441.315429688 585.368164062 442.932953098 581.286489642 444.442382812 369.5234375 c 0
 446 151 448.5632972 191.678507681 440 154 c 0
 435 132 428.96484375 126.60546875 401 83 c 0
 396.956054688 76.6953125 349.787439132 27.2382752008 325.137695312 10.8095703125 c 0
 310.737304688 1.2119140625 289.699242012 -0.726882319365 208 0 c 0
 153.228515625 0.4873046875 93.8910003818 0 77 0 c 0
279.375 101.90625 m 1
 345.055664062 135.166015625 346.241210938 148.174804688 346.241210938 362.551757812 c 0
 346.241210938 539.677734375 346.241210938 539.677734375 327.821289062 571.108398438 c 0
 317.690429688 588.39453125 300.918130898 608.554916127 290.549804688 615.908203125 c 0
 264.647460938 634.278320312 201 633 172.30859375 632.860351562 c 0
 150.982890984 632.756553894 126 633 126 632 c 3
 126 609.84765625 126.163085938 539.381047853 126.163085938 367.740234375 c 0
 126.163085938 212.737794392 125 134.4765625 125 108 c 1
 125 101.100923375 125 97.1474609375 125 95 c 3
 125 94.5126953125 134.638713791 95 149.381835938 95 c 3
 204.522840741 95 265.308333801 89.350402385 279.375 101.90625 c 1
EndSplineSet
Validated: 33
EndChar

StartChar: e
Encoding: 66 101 52
Width: 500
Flags: W
HStem: 1.15137 91<122.808 443.358> 328.151 103<120.808 381.615> 646.151 98.499<119.902 438.178>
VStem: 27.9492 92.8584<109.444 328.151 431.151 622.423>
LayerCount: 6
Fore
SplineSet
65.8076171875 1.1513671875 m 2
 11.748046875 1.1513671875 25.79296875 -4.943359375 27.94921875 367.135742188 c 0
 29.9423828125 711.04296875 23.8076171875 714.151367188 38.8076171875 733.151367188 c 0
 51.28515625 748.95703125 77.1298828125 744.650390625 241.111328125 744.650390625 c 0
 440.16015625 744.650390625 442.27734375 744.10546875 442.27734375 692.958007812 c 0
 442.27734375 650.256835938 434.81640625 648.098632812 277.997070312 645.360351562 c 0
 204.291015625 644.073242188 133.807617188 646.151367188 118.807617188 646.151367188 c 1
 118.807617188 631.151367188 118.798828125 617.151367188 118.807617188 616.151367188 c 0
 119.641601562 519.100585938 119.807617188 465.151367188 119.807617188 431.151367188 c 1
 129.807617188 431.151367188 132.327148438 431.151367188 133.807617188 431.151367188 c 0
 142.807617188 431.151367188 172.19140625 429.030273438 253.37109375 429.030273438 c 0
 382.908203125 429.030273438 384.892578125 428.2734375 384.892578125 378.817382812 c 0
 384.892578125 329.090820312 383.567382812 328.60546875 247.706054688 328.60546875 c 0
 181.879882812 328.60546875 168.807617188 328.060546875 120.807617188 328.151367188 c 1
 120.807617188 300.060546875 119.682617188 268.634765625 120.807617188 217.151367188 c 0
 122.395507812 144.4765625 122.807617188 116.151367188 122.807617188 93.1513671875 c 1
 191.807617188 92.1513671875 190.807617188 92.1513671875 194.807617188 92.1513671875 c 0
 201.806640625 92.1513671875 214.870117188 92.0625 292 92 c 0
 391.377929688 91.919921875 428.8359375 93.6123046875 437.807617188 84.1513671875 c 0
 460.545898438 60.173828125 450.251953125 28.9921875 438.284179688 14.58203125 c 0
 423.807617188 -2.8486328125 426.807617188 1.1513671875 259.807617188 1.1513671875 c 0
 170.78515625 1.1513671875 65.9560546875 -0.283203125 65.8076171875 1.1513671875 c 2
EndSplineSet
Validated: 33
EndChar

StartChar: f
Encoding: 67 102 53
Width: 500
Flags: W
HStem: 356 93<133.129 387.426> 634.538 105.227<134.897 439.083>
VStem: 38.1396 93.8604<7.68473 356 449 633>
LayerCount: 6
Fore
SplineSet
61 4 m 2
 61 4 43.1403256267 7.82709007619 38.1396484375 24.091796875 c 0
 32.7755642671 41.5384851881 34.9071037968 686.000002264 39.8173828125 704.623046875 c 0
 43.2427619361 717.614363259 52.4423828125 728.734375 68 734 c 0
 93.3095703125 742.56640625 141.513567481 739.764648438 242.155273438 739.764648438 c 0
 370.424804688 739.764648438 399.994330531 740.735769169 419 731 c 0
 431.509765625 724.591796875 451 717 451 685 c 0
 451 664.974609375 453 667 440 650 c 0
 426.349609375 632.149414062 420.207994758 636.573159072 280.950195312 634.538085938 c 0
 192.541787323 633.246111078 133 633 133 633 c 3
 133 612.974609375 133 601.92578125 133 568 c 0
 133 522.01171875 133 460.81640625 133 449 c 0
 133 449 149 449 150 449 c 0
 158 449 183.370117188 448.37890625 260.836914062 448.37890625 c 0
 352.981445312 448.37890625 374.581054688 446.41796875 383.787109375 437.2109375 c 0
 398.057617188 422.939453125 398.107421875 392.079101562 383.89453125 371.783203125 c 0
 373.258789062 356.598632812 368.508789062 355.98828125 260.944335938 355.98828125 c 0
 183.396484375 355.98828125 171 356 154 356 c 0
 143.487304688 356 132 356.142578125 132 356 c 3
 132 340.169921875 132 278.545062619 132 184 c 0
 132 38.5439453125 131.344726562 26.3447265625 118 13 c 0
 102.493164062 -2.5068359375 61 4 61 4 c 2
EndSplineSet
Validated: 33
EndChar

StartChar: g
Encoding: 68 103 54
Width: 500
Flags: W
HStem: 315.148 93.3818<246.674 353.985> 635.443 99.2988<163.487 306.113>
VStem: 25.252 100.007<158.844 587.054> 354 90.7852<140.382 314.113>
LayerCount: 6
Fore
SplineSet
190 9 m 0
 144 22 137 21 100 51 c 0
 81.8489517047 65.7170661854 60.3740178858 88.5072392204 47 119 c 0
 22 176 25 162 25.251953125 377.059570312 c 0
 25.3953321744 499.443592197 22.8046875 572.8203125 37 602 c 0
 55 639 80.3916000405 693.589290905 102.619140625 707 c 0
 154 738 158 734 269.279296875 734.7421875 c 0
 299.16611955 734.941520411 299 734 330 724.2109375 c 0
 341.85001674 720.468984129 356 709 371 695 c 0
 380.032226562 686.569335938 398.99974836 670.999823847 406 661 c 0
 418.762695313 642.768554688 440.846733142 615.026350222 434.434570312 594.823242188 c 0
 427.83984375 574.044921875 398.029296875 557.305664062 377.014648438 562.580078125 c 0
 367.120117188 565.063476562 342.604492188 581.858398438 322.536132812 599.901367188 c 0
 288.956054688 630.092773438 282.569329151 632.924696443 242.397460938 635.443359375 c 0
 205.872070312 637.733398438 206 638 182 630 c 0
 170.133826535 626.044608845 165.560546875 618.081054688 164 616 c 0
 155 604 147.824204217 590.986334149 139.056640625 569.833007812 c 0
 123.807617188 533.041992188 123.208984375 523.815429688 125.258789062 357.278320312 c 0
 127.401367188 183.184570312 127.401367188 183.184570312 151.37109375 152.9375 c 0
 180.328125 116.3984375 216.540156095 99.4637524984 256.546875 103.754882812 c 0
 293.092773438 107.674804688 330 130 345 156 c 0
 350.555664062 165.630859375 352.293911513 177.045904473 353 181 c 0
 358 209 354.154475678 263.295315466 354 288 c 0
 353.956623538 294.937026128 354.020989949 314.000000341 354 314 c 3
 345.788085937 314 322.817863455 313.919420293 302.5234375 315.1484375 c 0
 253.81303403 318.098307783 240.282226562 329.495117188 240 361 c 0
 239.66796875 398.10546875 260.948242188 408.530273438 351.813476562 408.530273438 c 0
 433.174804688 408.530273438 439.61328125 411.522460938 440 397 c 0
 440.243164062 387.86328125 444.724331059 323.394524964 444.78515625 258.580078125 c 0
 444.893554688 143.072265625 444.510742188 140.170898438 426.051757812 112.32421875 c 0
 394.4140625 64.5947265625 371.624023438 43.5732421875 332.430664062 25.9697265625 c 0
 289.168945312 6.5380859375 232.636406909 -3.04941934372 190 9 c 0
EndSplineSet
Validated: 33
EndChar

StartChar: h
Encoding: 69 104 55
Width: 500
Flags: W
VStem: 28.2832 92.9404<110.923 342.943 449.436 627.186> 350 92.9414<110.923 342.943 449.436 627.186>
LayerCount: 6
Fore
SplineSet
44.1728515625 8.421875 m 0
 28.283203125 19.55078125 28.283203125 19.55078125 28.283203125 369.0546875 c 0
 28.283203125 718.55859375 28.283203125 718.55859375 44.1728515625 729.6875 c 0
 64.369140625 743.833984375 85.1376953125 743.833984375 105.334960938 729.6875 c 0
 120.766601562 718.877929688 121.223632812 714.805664062 121.223632812 588.131835938 c 0
 121.223632812 496.221679688 123.758789062 455.171875 129.802734375 449.126953125 c 0
 141.736328125 437.192382812 329.487304688 437.192382812 341.420898438 449.126953125 c 0
 347.466796875 455.171875 350 496.221679688 350 588.131835938 c 0
 350 714.805664062 350.458007812 718.877929688 365.889648438 729.6875 c 0
 386.086914062 743.833984375 406.854492188 743.833984375 427.051757812 729.6875 c 0
 442.94140625 718.55859375 442.94140625 718.55859375 442.94140625 369.0546875 c 0
 442.94140625 19.55078125 442.94140625 19.55078125 427.051757812 8.421875 c 0
 418.3125 2.30078125 404.55078125 -2.7080078125 396.470703125 -2.7080078125 c 0
 388.390625 -2.7080078125 374.62890625 2.30078125 365.889648438 8.421875 c 0
 350.298828125 19.3427734375 350 22.4677734375 350 175 c 0
 350 286.372070312 347.568359375 332.880859375 341.420898438 339.02734375 c 0
 329.487304688 350.961914062 141.737304688 350.961914062 129.802734375 339.02734375 c 0
 123.65625 332.880859375 121.223632812 286.372070312 121.223632812 175 c 0
 121.223632812 22.4677734375 120.924804688 19.3427734375 105.334960938 8.421875 c 0
 96.595703125 2.30078125 82.833984375 -2.7080078125 74.75390625 -2.7080078125 c 0
 66.6728515625 -2.7080078125 52.912109375 2.30078125 44.1728515625 8.421875 c 0
EndSplineSet
Validated: 33
EndChar

StartChar: i
Encoding: 70 105 56
Width: 500
Flags: W
HStem: 0 107.379<99.4354 181 289 370.552> 642 109.652<99.1157 182 289 370.884>
VStem: 181 108<110 642>
LayerCount: 6
Fore
SplineSet
101 15 m 0
 80.0179360232 29.7217222494 79.9505963685 67.7675605808 99.11328125 91.341796875 c 0
 105.730013194 99.4818045674 128.80076113 105.410346678 147.43359375 107.37890625 c 0
 159.179385484 108.619849654 166 110 181 110 c 1
 181.134765625 139 181.310546875 202.792898645 181.310546875 375.826171875 c 0
 181.310546875 555.50740002 181.265625 615 182 642 c 1
 169 642 158.32909238 643.122215003 147.43359375 644.2734375 c 0
 128.80078125 646.2421875 107.056640625 653.458007812 99.11328125 660.309570312 c 0
 78.88671875 677.754882812 80.3466796875 712.186523438 102.240234375 734.081054688 c 0
 119.440429688 751.28125 122.24609375 751.65234375 235 751.65234375 c 0
 347.75390625 751.65234375 350.559570312 751.280273438 367.758789062 734.081054688 c 0
 389.653320312 712.186523438 391.11328125 677.754882812 370.88671875 660.309570312 c 0
 362.942382812 653.458007812 341.198273089 646.241895037 322.56640625 644.2734375 c 0
 310.603604865 643.009567017 299 642 289 642 c 1
 289 614 288.689453125 547.16274742 288.689453125 375.826171875 c 0
 288.689453125 200.072850003 289 134 289 108 c 1
 302 108 311.168530875 108.583273185 322.56640625 107.37890625 c 0
 341.198242188 105.41015625 363.988536121 99.2456857028 370.88671875 91.341796875 c 0
 392.326905359 66.7757828222 390.951171875 26.6953125 368 11 c 0
 347.921875 -2.73046875 347.75390625 0 235 0 c 0
 122.24609375 0 120.911751525 1.02924498849 101 15 c 0
EndSplineSet
Validated: 33
EndChar

StartChar: j
Encoding: 71 106 57
Width: 500
Flags: W
HStem: 725.176 20G<363.36 396.641> 725.176 20G<363.36 396.641>
VStem: 342.445 103.555<183.096 706.958>
LayerCount: 6
Fore
SplineSet
172.686523438 5.17578125 m 0xa0
 118.090820312 18.123046875 43.1962890625 89.82421875 24.763671875 146.791992188 c 0
 5.2001953125 207.256835938 22.5712890625 262.420898438 61.1748046875 262.420898438 c 0
 83.724609375 262.420898438 100.078125 242.763671875 120.500976562 191.109375 c 0
 144.572265625 130.23046875 167.512695312 112.444335938 221.96484375 112.444335938 c 0
 257.680664062 112.444335938 268.748046875 115.650390625 289.758789062 132.083984375 c 0
 339.15625 170.720703125 338.486328125 166.655273438 342.4453125 451.676757812 c 0
 346.49609375 743.33203125 341.034179688 745.17578125 385.686523438 745.17578125 c 0
 407.594726562 745.17578125 433.686523438 751.17578125 437.686523438 727.17578125 c 0
 442.645507812 697.421875 446 680.211914062 446 437.393554688 c 0
 446 134.825195312 445.625976562 132.791992188 377.739257812 65.6123046875 c 0
 342.962890625 31.19921875 330.036132812 23.4765625 288 12 c 0
 235.825195312 -2.244140625 210.338867188 -3.7529296875 172.686523438 5.17578125 c 0xa0
EndSplineSet
Validated: 33
EndChar

StartChar: k
Encoding: 72 107 58
Width: 500
Flags: W
HStem: -1.93457 21G<390.603 405.402>
VStem: 19.8848 99.166<22.3571 279.442 431.103 630.647> 25 81.6396<5.52822 271.114>
LayerCount: 6
Fore
SplineSet
44.59765625 6.37109375 m 0xa0
 36.796875 10.8876953125 28.7958984375 17.7197265625 25 22 c 0xa0
 20.2900390625 27.310546875 19.9447205442 180.926757937 19.884765625 365.418945312 c 0
 19.7666015625 729.03125 7 745 55.0419921875 745.432617188 c 0
 69.837890625 745.565429688 90.234375 747.588867188 98 743 c 0
 120 730 118 672 118.544921875 587.262695312 c 0
 119.104615561 500.22832114 118.739257812 432.161132812 123 431 c 0
 126.900390625 429.938476562 146.365177534 452.549843682 158.06640625 469.606445312 c 0
 212.116210938 548.393554688 325.097200237 698.862671907 343.594726562 715.245117188 c 0
 387.924825512 754.506335559 422.886737651 753.591585343 437.827148438 712.338867188 c 0
 444.159584773 694.854059367 442.5390625 685.572265625 429.83203125 660.127929688 c 0
 421.346679688 643.137695312 410.585798952 631.746634817 408.750976562 629.236328125 c 0
 402 620 401 619 391.345703125 606.188476562 c 0
 382.781775025 594.82390315 364.387695312 572.2421875 348 552 c 0
 332.233398438 532.525390625 315.036514953 512.054772429 313 509 c 0
 309 503 300.768616458 492.432784583 291 480 c 0
 280 466 266.109368573 449.915787563 251.981445312 431.680664062 c 0
 238.860442051 414.745187382 234 407 225 394 c 0
 217.204101562 382.739257812 216.019821508 376.97613482 227 359 c 0
 231.409420139 351.781143681 237.737900204 341.08468154 240 338 c 0
 262 308 255.013089315 317.859567338 286.048828125 278.192382812 c 0
 336.8515625 213.260742188 417.553710938 101.0859375 426.8046875 82.5419921875 c 0
 433.068359375 69.9853515625 438.193359375 52.3486328125 438.193359375 43.3486328125 c 0
 438.193359375 25.759765625 413.305664062 -1.9345703125 397.499023438 -1.9345703125 c 0
 383.70703125 -1.9345703125 352 18 346 26 c 0
 342.36484375 30.846875 262 144 254.020507812 154.084960938 c 0
 251.116028967 157.75581555 178.32421875 252.495117188 158.048828125 281.313476562 c 0
 155.28515625 285.241210938 145.747070312 283.04296875 135 276 c 0
 116.665039062 263.987304688 119.061552106 260.135742185 119.05078125 155.694335938 c 0xc0
 119.041992188 70.4697265625 116.7578125 46.6865234375 106.639648438 26.4326171875 c 0
 93.1064453125 -0.658203125 69.7720911833 -8.20474019671 44.59765625 6.37109375 c 0xa0
EndSplineSet
Validated: 33
EndChar

StartChar: l
Encoding: 73 108 59
Width: 500
Flags: W
HStem: 0 106.604<130.31 438.762>
VStem: 27.3281 97.9277<144.264 619.435>
LayerCount: 6
Fore
SplineSet
46.08984375 13.5830078125 m 1
 29.3115234375 27.1640625 29.3115234375 27.1640625 27.328125 359.154296875 c 0
 25.3955078125 682.723632812 21.7197265625 674.916015625 36.0927734375 704.606445312 c 0
 59.9228515625 753.833007812 83.0234375 753.97265625 106.71484375 705.032226562 c 0
 120.62109375 676.305664062 125.255859375 679.59765625 125.255859375 407.828125 c 0
 125.255859375 196.28515625 123.651367188 115.349609375 130 109 c 0
 136.013671875 102.987304688 180.768554688 106.604492188 272.72265625 106.604492188 c 0
 431.641601562 106.604492188 445.069335938 102.452148438 445.069335938 53.302734375 c 0
 445.069335938 2.3427734375 435.750976562 0 233 0 c 0
 76.0986328125 0 61.5625 1.056640625 46.08984375 13.58203125 c 1
 46.08984375 13.5830078125 l 1
EndSplineSet
Validated: 33
EndChar

StartChar: m
Encoding: 74 109 60
Width: 500
Flags: W
HStem: 728.188 20G<65.5225 73.5581 390.712 398.748>
VStem: 23.0244 91.6533<133.494 488.444> 351.393 91.6543<133.494 488.444>
LayerCount: 6
Fore
SplineSet
38.837890625 16.1884765625 m 1
 21.0361328125 33.990234375 21.0361328125 33.990234375 23.0244140625 388.620117188 c 0
 25.0126953125 743.250976562 24.1123046875 711.176757812 41.5029296875 729.682617188 c 0
 51.0673828125 739.860351562 63.0078125 748.188476562 68.037109375 748.188476562 c 0
 79.0791015625 748.188476562 106.233398438 746.444335938 132.977539062 697.771484375 c 0
 143.81640625 678.044921875 161.080078125 648.993164062 171.340820312 633.211914062 c 0
 181.6015625 617.431640625 197.708007812 589.186523438 207.1328125 570.447265625 c 0
 216.557617188 551.70703125 228.213867188 536.374023438 233.03515625 536.374023438 c 0
 237.857421875 536.374023438 249.512695312 551.70703125 258.938476562 570.447265625 c 0
 268.36328125 589.186523438 284.469726562 617.431640625 294.73046875 633.211914062 c 0
 304.991210938 648.993164062 322.254882812 678.044921875 333.09375 697.771484375 c 0
 359.837890625 746.444335938 385.19140625 748.188476562 396.232421875 748.188476562 c 0
 401.262695312 748.188476562 413.203125 739.860351562 422.767578125 729.682617188 c 0
 440.157226562 711.176757812 441.059570312 743.250976562 443.046875 388.620117188 c 0
 445.034179688 33.990234375 445.034179688 33.990234375 427.232421875 16.1884765625 c 0
 404.833007812 -6.2119140625 391.25 -6.2568359375 369 16 c 0
 351.392578125 33.6064453125 351.392578125 33.6064453125 351.392578125 271.526367188 c 0
 351.392578125 537.955078125 352.823242188 532.702148438 304.279296875 444.383789062 c 0
 276.80859375 394.408203125 249.983398438 364.225585938 233.03515625 364.225585938 c 0
 216.087890625 364.225585938 189.262695312 394.408203125 161.791992188 444.383789062 c 0
 113.24609375 532.702148438 114.677734375 537.955078125 114.677734375 271.526367188 c 0
 114.677734375 33.6064453125 114.677734375 33.6064453125 97.0712890625 16 c 0
 74.8212890625 -6.25 61.23828125 -6.2041015625 38.837890625 16.1884765625 c 1
EndSplineSet
Validated: 33
EndChar

StartChar: n
Encoding: 75 110 61
Width: 500
Flags: W
VStem: 22.6191 92.3379<105.753 456.436> 342.634 92.4932<295.236 649.597>
LayerCount: 6
Fore
SplineSet
36 14 m 0
 18.5361328125 31.4638671875 22.4760105815 31.4482420047 22.619140625 364.392578125 c 0
 22.75390625 677.879882812 17.3798828125 677.389648438 30.302734375 705.860351562 c 0
 52.587890625 754.956054688 86.9501953125 764.612304688 123.723632812 690.22265625 c 0
 133.395507812 670.657226562 159.834960938 619.4296875 182.477539062 576.384765625 c 0
 205.12109375 533.33984375 242.503394086 459.700423235 265.549804688 412.7421875 c 0
 319.4609375 302.895507812 323.418945312 291 335 291 c 0
 343.151367188 291 339.70341288 343.449213926 342.633789062 518.32421875 c 0
 346.19140625 730.630859375 341.75 706.993164062 356.790039062 722.506835938 c 0
 376.301757812 742.6328125 388.702148438 756.295898438 421.790039062 725.506835938 c 0
 439.87109375 708.682617188 435.126953125 722.88671875 435.126953125 391.864257812 c 0
 435.126953125 105.588867188 433.594726562 57.0126953125 423.790039062 32.5068359375 c 0
 402.41015625 -20.92578125 371.643554688 -11.134765625 335.657226562 60.5546875 c 0
 324.853515625 82.0771484375 299.591796875 132.428710938 279.51953125 172.446289062 c 0
 259.447265625 212.463867188 241.285542116 249.749759653 243.025390625 248.805664062 c 0
 244.792210198 247.846933137 211.721183051 304.318531767 216 297 c 0
 230.474282817 272.243040337 185.6328125 361.520507812 175 385 c 0
 148.287623243 443.986560835 134.268554688 461 123 461 c 0
 114.84765625 461 117.887407432 410.885747012 114.95703125 236.010742188 c 0
 111.399414062 23.7041015625 115.796875 23.591796875 99 10 c 0
 76.80859375 -7.95703125 57.017578125 -7.017578125 36 14 c 0
EndSplineSet
Validated: 37
EndChar

StartChar: o
Encoding: 76 111 62
Width: 500
Flags: W
HStem: 625.022 123.979<144.403 324.015>
VStem: 23.5635 95.6416<147.141 600.974> 345.912 95.6416<148.62 604.124>
LayerCount: 6
Fore
SplineSet
146.466796875 11.2802734375 m 1
 106.403320312 23.8427734375 67.8427734375 59.421875 44.671875 105.206054688 c 0
 23.5634765625 146.915039062 23.5634765625 146.915039062 23.5634765625 387.790039062 c 0
 23.5634765625 628.666015625 25.2138671875 603.768554688 46.228515625 645.286132812 c 0
 83.634765625 719.186523438 137.673828125 749.001953125 234.208984375 749.001953125 c 0
 330.744140625 749.001953125 384.783203125 719.186523438 422.189453125 645.286132812 c 0
 443.204101562 603.768554688 441.553710938 628.666015625 441.553710938 387.790039062 c 0
 441.553710938 146.915039062 441.553710938 146.915039062 420.5390625 105.397460938 c 0
 396.575195312 58.0546875 356.366210938 22.31640625 313.208984375 10.001953125 c 0
 277.024414062 -0.3232421875 181.125976562 0.412109375 146.466796875 11.2783203125 c 1
 146.466796875 11.2802734375 l 1
325.244140625 148.797851562 m 0
 345.912109375 171.934570312 345.912109375 171.934570312 345.912109375 387.790039062 c 0
 345.912109375 603.646484375 347.5625 578.749023438 326.889648438 601.885742188 c 0
 306.216796875 625.022460938 306.216796875 625.022460938 234.208984375 625.022460938 c 0
 162.201171875 625.022460938 162.201171875 625.022460938 141.528320312 601.885742188 c 0
 120.85546875 578.749023438 119.205078125 603.646484375 119.205078125 388.633789062 c 0
 119.205078125 179.719726562 119.634765625 173.076171875 134.353515625 154.365234375 c 0
 156.20703125 126.583007812 171.955078125 122.140625 242 124 c 0
 302.84375 125.616210938 305.1484375 126.302734375 325.244140625 148.797851562 c 0
EndSplineSet
Validated: 33
EndChar

StartChar: p
Encoding: 77 112 63
Width: 500
Flags: W
HStem: -0.94043 21G<73.6567 79.8823> -0.94043 21G<73.6567 79.8823> 305 128.068<130.328 305.503> 726.06 20G<109.408 178.571> 726.06 20G<109.408 178.571>
VStem: 30.5225 92.4941<124.833 300.213 437.476 649.334>
LayerCount: 6
Fore
SplineSet
47.986328125 16.5234375 m 0xb4
 30.5224609375 33.9873046875 30.5224609375 33.9873046875 30.5224609375 382.606445312 c 0
 30.5224609375 623.638671875 27.2900390625 715.032226562 32.76953125 727.059570312 c 0
 42.3515625 748.08984375 70.0458984375 746.059570312 148.76953125 746.059570312 c 0
 208.372070312 746.059570312 297.647460938 755.5234375 338.540039062 734.377929688 c 0
 356.779296875 724.946289062 374.373046875 708.684570312 398.963867188 678.532226562 c 0
 441.881835938 625.908203125 455.640625 527.188476562 430.965820312 448.912109375 c 0
 414.705078125 397.327148438 361.564453125 343.1484375 305.512695312 321.008789062 c 0
 273.046875 308.185546875 250.860351562 305 194 305 c 0
 123.016601562 305 123.016601562 305 123.016601562 169.494140625 c 0
 123.016601562 35.109375 122.87109375 33.8427734375 105.552734375 16.5234375 c 0
 95.947265625 6.9189453125 82.9951171875 -0.9404296875 76.76953125 -0.9404296875 c 0
 70.5439453125 -0.9404296875 57.591796875 6.9189453125 47.986328125 16.5234375 c 0xb4
305.791992188 453.62890625 m 0
 356.346679688 490.250976562 363.418945312 559.388671875 321.495117188 607.137695312 c 0
 295.594726562 636.635742188 231.564453125 655.6484375 169.262695312 652.33984375 c 0
 126.573242188 650.072265625 126.573242188 650.072265625 124.609375 541.5703125 c 0
 122.645507812 433.068359375 122.645507812 433.068359375 200.02734375 433.068359375 c 0
 274.059570312 433.068359375 278.637695312 433.958007812 305.791992188 453.62890625 c 0
EndSplineSet
Validated: 33
EndChar

StartChar: q
Encoding: 78 113 64
Width: 500
Flags: W
HStem: 0 119.858<162.65 223.531> 625.057 121.943<156.958 309.52>
VStem: 29.584 82.4912<197.207 563.826> 355.964 84.7422<197.456 552.332>
LayerCount: 6
Fore
SplineSet
139.634765625 11.9462890625 m 1
 106.899414062 29.8193359375 74.3505859375 68.595703125 49.052734375 119.858398438 c 0
 29.583984375 159.311523438 29.583984375 159.311523438 29.583984375 388.852539062 c 0
 29.583984375 618.39453125 33.564453125 585.603515625 53.033203125 625.056640625 c 0
 99.9423828125 720.111328125 140.727539062 747 238 747 c 0
 335.272460938 747 376.057617188 720.111328125 422.965820312 625.056640625 c 0
 442.435546875 585.603515625 438.455078125 618.39453125 440.706054688 399.25 c 0
 442.553710938 219.372070312 441.040039062 174.544921875 432.264648438 149.069335938 c 0
 425.801757812 130.311523438 423.790039062 112.008789062 427.178710938 102.806640625 c 0
 430.262695312 94.431640625 434.90234375 73.8935546875 437.487304688 57.166015625 c 0
 443.731445312 16.7685546875 424.37109375 -5.5751953125 389.568359375 1.8623046875 c 0
 377.00390625 4.5478515625 362.688476562 9.9951171875 357.756835938 13.9677734375 c 0
 351.6015625 18.92578125 345.237304688 18.2412109375 337.458007812 11.7861328125 c 0
 330.047851562 5.63671875 298.388671875 1.556640625 246 0 c 0
 176.618164062 -2.060546875 162.35546875 -0.4609375 139.634765625 11.9462890625 c 1
216.920898438 148.572265625 m 0
 187.603515625 181.022460938 182.876953125 213.420898438 203.692382812 239.245117188 c 0
 225.900390625 266.796875 243.061523438 266.145507812 277.706054688 236.434570312 c 0
 335.629882812 186.759765625 332.213867188 187.991210938 344.756835938 212.24609375 c 0
 353.846679688 229.82421875 355.963867188 261.668945312 355.963867188 380.840820312 c 0
 355.963867188 526.68359375 353.6796875 504.98046875 332.779296875 557 c 0
 305.208007812 625.623046875 299.557617188 625.056640625 238 625.056640625 c 0
 176.442382812 625.056640625 158.5703125 625.623046875 131 557 c 0
 110.23828125 505.32421875 112.075195312 525.833007812 112.075195312 388.852539062 c 0
 112.075195312 251.873046875 112.368164062 249.212890625 133.129882812 197.537109375 c 0
 157.888671875 135.9140625 174.630859375 119.858398438 214.12890625 119.858398438 c 0
 242.862304688 119.858398438 242.862304688 119.858398438 216.920898438 148.572265625 c 0
EndSplineSet
Validated: 33
EndChar

StartChar: r
Encoding: 79 114 65
Width: 500
Flags: W
HStem: 296.313 128.777<110.004 175.97> 646 97.5869<111.111 269.493>
VStem: 16.166 92.834<121.896 296.479 424.488 632.986>
LayerCount: 6
Fore
SplineSet
33.6962890625 14.1162109375 m 0
 16.166015625 31.646484375 16.166015625 31.646484375 16.166015625 378.008789062 c 0
 16.166015625 617.326171875 13.66015625 705.459960938 19.1572265625 717.524414062 c 0
 28.775390625 738.634765625 49.56640625 743.586914062 128.587890625 743.586914062 c 0
 188.415039062 743.586914062 262.000976562 731.524414062 304.587890625 713.586914062 c 0
 346.090820312 696.10546875 335.541015625 703.8515625 370.204101562 681.838867188 c 0
 433.587890625 641.586914062 442.889648438 519.573242188 418.254882812 441.421875 c 0
 403.24609375 393.80859375 354.1640625 340.268554688 305.990234375 318.958984375 c 0
 271.924804688 303.890625 271.924804688 303.890625 286.875 284.145507812 c 0
 310.66015625 252.733398438 381.815429688 148.8046875 407.146484375 108.478515625 c 0
 423.375 82.64453125 430.336914062 62.8994140625 430.357421875 42.650390625 c 0
 430.392578125 9.1572265625 420.618164062 -3.517578125 395.03515625 -3.15625 c 0
 368.720703125 -2.7841796875 345.184570312 20.2998046875 297 93 c 0
 273.569335938 128.3515625 242.415039062 174.952148438 227.768554688 196.555664062 c 0
 213.12109375 218.159179688 192.459960938 249.391601562 181.854492188 265.961914062 c 0
 164.88671875 292.471679688 159.356513901 296.123562948 135.790039062 296.313476562 c 0
 123.59826841 296.411725589 109 299.46484375 109 287 c 3
 109 272.083007812 109.008789062 236.239515042 109.008789062 164.092773438 c 0
 109.008789062 32.9921875 108.831054688 31.4677734375 91.4794921875 14.1162109375 c 0
 81.837890625 4.4755859375 68.8369140625 -3.4130859375 62.587890625 -3.4130859375 c 0
 56.3388671875 -3.4130859375 43.3369140625 4.4755859375 33.6962890625 14.1162109375 c 0
292.473632812 445.728515625 m 0
 343.21875 482.48828125 350.318359375 551.887695312 308.236328125 599.81640625 c 0
 282.23828125 629.42578125 218.009207117 642.822473482 155.4296875 645.189453125 c 0
 134 646 126 646 111 646 c 3
 111.30859375 646 109.257202288 586.021122482 109.608398438 534.002929688 c 0
 110 476 110 412.916992188 110 425 c 3
 110 427.096679688 153 425 196.310546875 425.090820312 c 0
 270.622172846 425.246648525 265.217599454 425.984243592 292.473632812 445.728515625 c 0
EndSplineSet
Validated: 33
EndChar

StartChar: s
Encoding: 80 115 66
Width: 500
Flags: W
HStem: 638.161 109.839<181.697 322.141>
VStem: 350 87.7812<173.053 282.385>
LayerCount: 6
Fore
SplineSet
155.278320312 9.03125 m 0
 120.166015625 22.2568359375 70.0263671875 59.8486328125 47.1279296875 90.1162109375 c 0
 33.09765625 108.66015625 27.69140625 123.99609375 27.861328125 144.770507812 c 0
 27.983708592 159.851510123 32.5046404896 174.734769512 39.3012939404 185.999999342 c 0
 46.3889098079 197.747489821 55.9512635955 205.560546875 65.5810546875 205.560546875 c 0
 71.5546875 205.560546875 94.978515625 189.240234375 117.6328125 169.293945312 c 0
 137.32275003 151.958360154 152.230709567 139.513054824 165 131.046673531 c 0
 177.564577156 122.716022618 188.05850849 118.237740651 199 116.743604611 c 0
 213.118166753 114.815671684 227.981502878 117.856219552 249 124 c 0
 299.790039062 138.845703125 325.492340962 159.175712048 343.247070312 198.548828125 c 0
 348.645251718 210.519904615 349.91015625 219.326171875 350 229 c 0
 350.088867188 238.487304688 349.112140334 248.848435471 343.23526307 260 c 0
 338.511000181 268.964441503 331.721784355 279.086137594 322.646484375 291.361328125 c 0
 311.255313368 306.768374585 304.088524999 315.284438589 291 322.706236347 c 4
 278.075430791 330.035063605 259.37655515 336.296867959 225.133789062 347.073242188 c 0
 98.494140625 386.926757812 53.3056640625 422.915039062 41.5390625 493.287109375 c 0
 23.0166015625 604.068359375 64.9873046875 678.536132812 164.016601562 728.786132812 c 0
 179.477467755 736.631731482 190.62429023 741.428094961 203 744.273335959 c 0
 217.594269247 747.628635492 233.897516728 748.270565083 261 748 c 0
 287.287510817 747.737730487 302.085029622 747.302797767 314 744.257026842 c 0
 327.062795825 740.917842398 336.660913033 734.440561394 354.13671875 721.612304688 c 0
 373.473632812 707.41796875 399.19140625 689.220703125 413.298828125 673.604492188 c 0
 434.631835938 649.991210938 438.950195312 639.927734375 438.950195312 613.825195312 c 0
 438.950195312 548.538085938 395.629882812 543.9296875 335.950195312 602.868164062 c 0
 317.230329709 621.355208679 307.905864566 630.169893518 297 634.366340594 c 0
 287.778324741 637.914731639 277.42596606 638.161132812 259.306640625 638.161132812 c 0
 233.656484942 638.161132812 214.784719954 635.038028422 198 626.685293175 c 0
 183.435616597 619.437484516 170.442637096 608.252117155 155.956054688 591.752929688 c 0
 137.07421875 570.248046875 133.614257812 561.0546875 135.400390625 537.137695312 c 0
 138.260742188 498.842773438 157.2109375 485.573242188 238.622070312 464.858398438 c 0
 272.751895982 456.174459883 297.742183714 447.896075424 318 437.579542442 c 0
 342.24291145 425.233552528 359.708279676 409.968656528 377.94921875 387.596679688 c 0
 389.473865742 373.462341118 398.817610776 360.964094128 406.390592408 349 c 0
 428.995342258 313.288127439 435.823029783 282.335424274 437.78125 226.8359375 c 0
 439.918945312 166.24609375 438.358398438 155.893554688 422.275390625 124.00390625 c 0
 402.381835938 84.556640625 364.8515625 46.10546875 321.935546875 21.19921875 c 0
 287.049804688 0.953125 194.634765625 -5.7939453125 155.278320312 9.03125 c 0
EndSplineSet
Validated: 33
EndChar

StartChar: t
Encoding: 81 116 67
Width: 500
Flags: W
HStem: 0 21G<217.483 236.517> 0 21G<217.483 236.517> 626 121<39.26 175.162 275.67 418.74>
VStem: 175.794 99.2969<63.8042 593.426>
LayerCount: 6
Fore
SplineSet
189.83984375 12.62890625 m 0xb0
 170.182617188 36.6435546875 175.939726924 57.9912105575 175.793945312 328.23828125 c 0
 175.684130655 531.810520779 175 642 175 626 c 3
 175 625.205078125 144.576171875 625.954101562 105 627 c 0
 57.5927734375 628.252929688 54.3363361445 627.80304795 40.9716796875 644.79296875 c 0
 22.125 668.751953125 22.125 704.293945312 40.9716796875 728.252929688 c 0
 55.7177734375 747 55.7177734375 747 229 747 c 0
 402.282226562 747 402.282226562 747 417.028320312 728.252929688 c 0
 435.875 704.293945312 435.875 668.751953125 417.028320312 644.79296875 c 0
 403.48828125 627.580078125 398.004882812 626.045898438 350.018554688 626.045898438 c 0
 321.2734375 626.045898438 309.630859375 626 303 626 c 0
 297 626 287.662109375 626 276 626 c 3
 274.774414062 626 277.316332439 537.968095194 275.090820312 328.23828125 c 0
 272.223300669 58.0063854344 280.681640625 36.923828125 261.37109375 12.62890625 c 0
 241 -13 246.033203125 0 227 0 c 0
 207.966796875 0 210 -12 189.83984375 12.62890625 c 0xb0
EndSplineSet
Validated: 33
EndChar

StartChar: u
Encoding: 82 117 68
Width: 500
Flags: W
VStem: 23.0518 99.5898<183.839 699.037> 350.275 99.5898<183.839 699.037>
LayerCount: 6
Fore
SplineSet
187.974609375 6.9033203125 m 0
 147.6875 15.2197265625 115.256835938 35.8779296875 80.4990234375 75.3642578125 c 0
 21.7265625 142.133789062 23.0517578125 133.872070312 23.0517578125 433.5234375 c 0
 23.0517578125 686.797851562 22.03125 681.263671875 35.8974609375 709.909179688 c 0
 58.1513671875 755.879882812 79.0576171875 758.350585938 103.526367188 717.903320312 c 0
 116.404296875 696.614257812 119.333984375 695.940429688 122.641601562 450.034179688 c 0
 126.059570312 195.8984375 126.779296875 184.775390625 141.0546875 165.4921875 c 0
 184.529296875 106.766601562 288.387695312 106.766601562 331.862304688 165.4921875 c 0
 346.137695312 184.775390625 346.857421875 195.8984375 350.275390625 450.034179688 c 0
 353.583007812 695.940429688 353.096679688 696.614257812 365.974609375 717.903320312 c 0
 390.443359375 758.350585938 411.349609375 755.879882812 433.603515625 709.909179688 c 0
 447.470703125 681.263671875 449.865234375 686.797851562 449.865234375 433.5234375 c 0
 449.865234375 178.836914062 449.24609375 166.418945312 435.0703125 137.137695312 c 0
 414.171875 93.966796875 362.399414062 38.8095703125 327 22 c 0
 290.845703125 4.8330078125 230.005859375 -1.7734375 187.974609375 6.9033203125 c 0
EndSplineSet
Validated: 33
EndChar

StartChar: v
Encoding: 83 118 69
Width: 500
Flags: W
HStem: 0 21G<231.376 242.624> 0 21G<231.376 242.624>
VStem: 165.43 143.141<45.0516 211.883>
LayerCount: 6
Fore
SplineSet
205.8203125 10.73046875 m 0xa0
 194.170898438 22.380859375 165.4296875 94.06640625 165.4296875 111.474609375 c 0
 165.4296875 117.380859375 155.930664062 161.543945312 144.319335938 209.615234375 c 0
 132.708984375 257.685546875 116.42578125 326.001953125 108.133789062 361.4296875 c 0
 73.259765625 510.439453125 49.990234375 607.211914062 40.0439453125 644.600585938 c 0
 25.5712890625 699.001953125 24.328125 695.7890625 42.1865234375 724.684570312 c 0
 54.109375 743.975585938 61.298828125 748.720703125 76 747 c 0
 102.611328125 743.88671875 115.13671875 747.229492188 162.147460938 543.93359375 c 0
 197.736328125 390.032226562 227.248046875 289.859375 237 289.859375 c 0
 246.751953125 289.859375 276.263671875 390.032226562 311.852539062 543.93359375 c 0
 358.864257812 747.229492188 366.583984375 743.88671875 393.1953125 747 c 0
 407.896484375 748.721679688 415.0859375 743.975585938 427.008789062 724.684570312 c 0
 444.8671875 695.7890625 448.430664062 699.001953125 433.95703125 644.600585938 c 0
 424.009765625 607.211914062 400.740234375 510.439453125 365.866210938 361.4296875 c 0
 357.57421875 326.001953125 341.291015625 257.685546875 329.680664062 209.615234375 c 0
 318.0703125 161.543945312 308.5703125 117.380859375 308.5703125 111.474609375 c 0
 308.5703125 94.06640625 279.829101562 22.380859375 268.1796875 10.73046875 c 0
 262.27734375 4.8291015625 248.247070312 0 237 0 c 0
 225.752929688 0 211.72265625 4.8291015625 205.8203125 10.73046875 c 0xa0
EndSplineSet
Validated: 33
EndChar

StartChar: w
Encoding: 84 119 70
Width: 500
Flags: W
HStem: -0.444336 21G<69.9458 77.9546 394.051 402.06> -0.444336 21G<69.9458 77.9546 394.051 402.06>
VStem: 26.6924 91.3477<290.402 642.56> 353.966 91.3486<290.402 642.56>
LayerCount: 6
Fore
SplineSet
46.005859375 18 m 0xb0
 28.673828125 36.4443359375 28.6748046875 36.4443359375 26.6923828125 389.891601562 c 0
 24.7099609375 743.33984375 23.16015625 713.887695312 40.9033203125 731.630859375 c 0
 63.228515625 753.956054688 76.7666015625 754.001953125 98.9423828125 731.819335938 c 0
 116.490234375 714.271484375 118.040039062 743.723632812 118.040039062 506.596679688 c 0
 118.040039062 241.056640625 116.61328125 246.291992188 164.997070312 334.315429688 c 0
 192.375976562 384.125 219.112304688 414.20703125 236.002929688 414.20703125 c 0
 252.893554688 414.20703125 279.629882812 384.125 307.008789062 334.315429688 c 0
 355.392578125 246.291992188 353.965820312 241.056640625 353.965820312 506.596679688 c 0
 353.965820312 743.723632812 352.416015625 714.271484375 369.96484375 731.819335938 c 0
 392.140625 753.995117188 405.677734375 753.950195312 428.002929688 731.630859375 c 0
 445.74609375 713.887695312 447.296875 743.33984375 445.314453125 389.891601562 c 0
 443.33203125 36.4443359375 443.33203125 36.4443359375 426 18 c 0
 416.466796875 7.85546875 404.56640625 -0.4443359375 399.553710938 -0.4443359375 c 0
 388.548828125 -0.4443359375 362.3828125 33.2607421875 335.727539062 81.7724609375 c 0
 324.924804688 101.432617188 307.71875 130.387695312 297.4921875 146.116210938 c 0
 287.265625 161.84375 271.212890625 189.994140625 261.819335938 208.671875 c 0
 252.42578125 227.349609375 240.80859375 242.630859375 236.002929688 242.630859375 c 0
 231.197265625 242.630859375 219.580078125 227.349609375 210.186523438 208.671875 c 0
 200.79296875 189.994140625 184.740234375 161.84375 174.513671875 146.116210938 c 0
 164.287109375 130.387695312 147.081054688 101.432617188 136.278320312 81.7724609375 c 0
 109.623046875 33.2607421875 83.45703125 -0.4443359375 72.4521484375 -0.4443359375 c 0
 67.439453125 -0.4443359375 55.5390625 7.85546875 46.005859375 18 c 0xb0
EndSplineSet
Validated: 33
EndChar

StartChar: x
Encoding: 85 120 71
Width: 500
Flags: W
HStem: 727 20G<58.8379 85.1709 385.525 411.858> 727 20G<58.8379 85.1709 385.525 411.858>
VStem: 161.728 142.546<318.718 432.045>
LayerCount: 6
Fore
SplineSet
38 20 m 0xa0
 29.875 30.328125 23.23046875 47.166015625 23.234375 57.41796875 c 0
 23.2373046875 67.6689453125 51.2646484375 130.626953125 90.4609375 210.416992188 c 0
 129.657226562 290.20703125 161.727539062 364.440429688 161.727539062 375.380859375 c 0
 161.727539062 386.321289062 129.657226562 460.555664062 90.4609375 540.344726562 c 0
 51.263671875 620.134765625 21.5390625 680.55078125 21.5361328125 690.802734375 c 0
 21.529296875 717.903320312 46.98046875 747 70.6953125 747 c 0
 99.646484375 747 110.671875 740.686523438 169.352539062 612.471679688 c 0
 203.478515625 537.907226562 226.111328125 496.762695312 233 496.762695312 c 0
 239.889648438 496.762695312 262.522460938 537.907226562 296.6484375 612.471679688 c 0
 355.328125 740.686523438 371.049804688 747 400 747 c 0
 423.715820312 747 449.168945312 717.903320312 449.16015625 690.802734375 c 0
 449.157226562 680.55078125 414.737304688 620.133789062 375.540039062 540.344726562 c 0
 336.342773438 460.555664062 304.2734375 386.321289062 304.2734375 375.380859375 c 0
 304.2734375 364.440429688 336.34375 290.20703125 375.540039062 210.416992188 c 0
 414.736328125 130.626953125 450.85546875 67.6689453125 450.858398438 57.41796875 c 0
 450.865234375 30.3173828125 425.4140625 1.220703125 401.698242188 1.220703125 c 0
 372.748046875 1.220703125 355.328125 10.0751953125 296.6484375 138.290039062 c 0
 262.522460938 212.85546875 239.889648438 254 233 254 c 0
 226.111328125 254 203.478515625 212.85546875 169.352539062 138.290039062 c 0
 140.2265625 74.650390625 114.045898438 26.076171875 106.229492188 17.2568359375 c 0
 86.60546875 -4.884765625 56.6259765625 -3.6796875 38 20 c 0xa0
EndSplineSet
Validated: 33
EndChar

StartChar: y
Encoding: 86 121 72
Width: 500
Flags: W
HStem: 0 21G<226.887 233.113> 0 21G<226.887 233.113> 727 20G<59.5142 85.832 378.549 404.867> 727 20G<59.5142 85.832 378.549 404.867>
VStem: 184.536 92.4941<13.9559 380.018>
LayerCount: 6
Fore
SplineSet
201.216796875 17.4638671875 m 0xa8
 183.752929688 34.927734375 184.536132812 17.3916015625 184.536132812 180.68359375 c 0
 184.536132812 343.975585938 184.536132812 343.975585938 102.71484375 509.889648438 c 0
 57.712890625 601.142578125 20.8935546875 684.2578125 20.8935546875 694.591796875 c 0
 20.8935546875 721.80859375 47.646484375 747 71.3818359375 747 c 0
 100.282226562 747 112.225966533 731.340017936 170.803710938 603.34765625 c 0
 199.87890625 539.818359375 226.870117188 487.838867188 230.783203125 487.838867188 c 0
 234.696289062 487.838867188 261.68691032 539.818629255 290.762695312 603.34765625 c 0
 349.341796875 731.33984375 364.098632812 747 393 747 c 0
 416.734375 747 440.672851562 721.80859375 440.672851562 694.591796875 c 0
 440.672851562 684.2578125 403.853515625 601.142578125 358.8515625 509.889648438 c 0
 277.030273438 343.9765625 277.030273438 343.9765625 277.030273438 180.68359375 c 0
 277.030273438 17.3916015625 276.247070312 34.927734375 258.783203125 17.4638671875 c 0
 249.177734375 7.859375 236.225585938 0 230 0 c 0
 223.774414062 0 210.822265625 7.859375 201.216796875 17.4638671875 c 0xa8
EndSplineSet
Validated: 33
EndChar

StartChar: z
Encoding: 87 122 73
Width: 500
Flags: W
HStem: -0.615234 107.427<154.018 414.03> 637.961 109.424<41.3347 301.685>
LayerCount: 6
Fore
SplineSet
41.6083984375 4.9462890625 m 2
 31.607421875 11.302734375 5.224609375 44.4677734375 5.224609375 60.7646484375 c 0
 5.224609375 73.853515625 100.325195312 253.12890625 193.080078125 414.892578125 c 0
 315.661132812 628.672851562 314.58203125 626.15625 286.8359375 633.591796875 c 0
 278.068359375 635.94140625 228.52734375 637.907226562 176.743164062 637.9609375 c 0
 96.3779296875 638.043945312 78.4814453125 640.153320312 54.5341796875 652.370117188 c 0
 28.1826171875 665.813476562 26.4775390625 668.603515625 26.4775390625 698.276367188 c 0
 26.4775390625 727.948242188 20.517578125 719.627929688 46.869140625 733.071289062 c 0
 72.66015625 746.228515625 88.3486328125 747.384765625 241.188476562 747.384765625 c 0
 427.120117188 747.384765625 414 756 445.751953125 707.409179688 c 0
 461.515625 683.28515625 453.233228465 675.890273667 431.310546875 635.6875 c 0
 418.556640625 612.298828125 380.84375 542.116210938 347.504882812 479.724609375 c 0
 314.166015625 417.333007812 274.046875 345.341796875 258.3515625 319.744140625 c 0
 213.631835938 246.80859375 154 135.521484375 154 125 c 0
 154 110.346679688 177.772460938 106.916015625 280.033203125 106.811523438 c 0
 360.271484375 106.73046875 378.31640625 104.607421875 402.12890625 92.458984375 c 0
 449.219726562 68.435546875 455.028320312 37.4580078125 407.727539062 13.3271484375 c 0
 382.577148438 0.49609375 365.8671875 -0.7138671875 215.188476562 -0.615234375 c 0
 124.439453125 -0.5615234375 46.328125 1.9462890625 41.609375 4.9462890625 c 2
 41.6083984375 4.9462890625 l 2
EndSplineSet
Validated: 33
EndChar

StartChar: comma
Encoding: 9 44 74
Width: 500
Flags: W
HStem: 2 196.675
VStem: 171.167 150.59<73.6377 167.993>
LayerCount: 6
Fore
SplineSet
188 2 m 1
 166.379882812 13.6875 170.804812861 96.4453142945 171.166992188 120.0234375 c 0
 171.736565435 157.103047577 212.415039062 199.373046875 247.922851562 198.674804688 c 0
 280.31640625 198.036132812 321.662615174 154.79980891 321.756835938 121.4609375 c 0
 321.829101562 95.890625 298.827367441 68.9948863776 279 52 c 0
 258 34 213.271484375 -11.7119140625 188 2 c 1
EndSplineSet
Validated: 33
EndChar

StartChar: less
Encoding: 25 60 76
Width: 500
Flags: W
LayerCount: 6
Fore
SplineSet
419.788085938 503.866210938 m 6
 423.461914062 506.115234375 427.245117188 508.411132812 430.705078125 511.073242188 c 4
 438.30859375 516.927734375 445.09765625 524.1953125 448.796875 533.049804688 c 4
 452.6953125 542.3828125 452.887695312 553.169921875 449.494140625 562.6953125 c 4
 446.099609375 572.221679688 439.184570312 580.416015625 430.455078125 585.520507812 c 4
 420.267578125 591.48046875 407.952148438 593.177734375 396.234375 591.76953125 c 4
 384.249023438 590.329101562 372.981445312 584.912109375 362.942382812 578.56640625 c 6
 83.958984375 402.220703125 l 6
 75.21875 397.737304688 68.025390625 390.298828125 63.83984375 381.412109375 c 4
 57.74609375 368.4765625 58.3408203125 352.609375 65.359375 340.151367188 c 4
 72.376953125 327.693359375 85.623046875 318.96484375 99.8349609375 317.399414062 c 4
 113.50390625 315.891601562 127.751953125 321.012695312 137.336914062 330.874023438 c 6
 419.788085938 503.866210938 l 6
  Spiro
    423.479 506.14 o
    427.157 508.524 o
    430.704 511.073 o
    437.946 517.398 o
    444.157 524.726 o
    448.797 533.05 o
    451.463 542.757 o
    451.687 552.86 o
    449.494 562.696 o
    444.994 571.704 o
    438.509 579.459 o
    430.455 585.521 o
    419.671 590.1 o
    408.038 592.1 o
    396.234 591.769 o
    384.519 589.12 o
    373.361 584.484 o
    362.942 578.566 [
    83.9592 402.221 ]
    75.7961 396.815 o
    68.9679 389.752 o
    63.8396 381.412 o
    59.9675 367.748 o
    60.4948 353.497 o
    65.3591 340.152 o
    74.2475 329.073 o
    86.1528 321.219 o
    99.8353 317.4 o
    113.489 318.029 o
    126.404 322.669 o
    137.337 330.873 [
    419.788 503.866 ]
    0 0 z
  EndSpiro
418.7890625 221.7890625 m 6
 136.338867188 394.78125 l 6
 126.752929688 404.642578125 112.505859375 409.763671875 98.8369140625 408.255859375 c 4
 84.6240234375 406.690429688 71.3779296875 397.961914062 64.3603515625 385.50390625 c 4
 57.3427734375 373.045898438 56.748046875 357.178710938 62.8408203125 344.243164062 c 4
 67.02734375 335.356445312 74.220703125 327.91796875 82.9609375 323.434570312 c 6
 361.944335938 147.088867188 l 6
 371.982421875 140.743164062 383.250976562 135.326171875 395.235351562 133.885742188 c 4
 406.953125 132.477539062 419.26953125 134.174804688 429.45703125 140.134765625 c 4
 438.185546875 145.239257812 445.1015625 153.43359375 448.495117188 162.959960938 c 4
 451.888671875 172.485351562 451.696289062 183.272460938 447.798828125 192.60546875 c 4
 444.098632812 201.459960938 437.310546875 208.727539062 429.705078125 214.58203125 c 4
 426.247070312 217.244140625 422.462890625 219.540039062 418.7890625 221.7890625 c 6
  Spiro
    418.79 221.79 [
    136.338 394.782 ]
    125.405 402.986 o
    112.491 407.626 o
    98.8367 408.256 o
    85.1543 404.436 o
    73.2489 396.582 o
    64.3606 385.503 o
    59.4963 372.158 o
    58.9689 357.907 o
    62.8409 344.243 o
    67.9693 335.903 o
    74.7974 328.84 o
    82.9606 323.434 [
    361.944 147.089 ]
    372.362 141.171 o
    383.52 136.536 o
    395.235 133.886 o
    407.039 133.555 o
    418.672 135.555 o
    429.457 140.134 o
    437.511 146.197 o
    443.996 153.951 o
    448.495 162.96 o
    450.689 172.795 o
    450.464 182.898 o
    447.799 192.605 o
    443.159 200.93 o
    436.947 208.257 o
    429.706 214.582 o
    426.158 217.131 o
    422.48 219.515 o
    0 0 z
  EndSpiro
EndSplineSet
Validated: 37
EndChar

StartChar: equal
Encoding: 26 61 77
Width: 500
Flags: W
HStem: 223.574 97<46.3948 90.4111 405 448.01> 386.574 97<47.3948 91.4111 406 449.01>
LayerCount: 6
Fore
SplineSet
147.411132812 223.57421875 m 0
 215.415039062 222.865234375 327.022532329 222.955632597 395 225 c 0
 402.37109375 225.221679688 409.787109375 225.46484375 417 227 c 0
 430.939453125 229.967773438 443.99609375 238.1171875 451.544921875 250.205078125 c 0
 455.3203125 256.25 457.68359375 263.196289062 458.177734375 270.3046875 c 0
 458.672851562 277.4140625 457.275390625 284.671875 454 291 c 0
 449.534179688 299.62890625 441.75 306.247070312 433.025390625 310.524414062 c 0
 424.301757812 314.801757812 414.651367188 316.884765625 405 318 c 0
 399.02734375 318.690429688 393.011557542 318.96016856 387 319 c 2
 149.411132812 320.57421875 l 1
 109.411132812 320.57421875 l 2
 103.064453125 320.698242188 96.708984375 320.36328125 90.4111328125 319.57421875 c 0
 80.6982421875 318.357421875 71.0244140625 316.020507812 62.3291015625 311.524414062 c 0
 53.6337890625 307.029296875 45.9384765625 300.252929688 41.4111328125 291.57421875 c 0
 38.064453125 285.158203125 36.5283203125 277.833007812 36.8583984375 270.604492188 c 0
 37.1875 263.375 39.3662109375 256.256835938 43 250 c 0
 50.2685546875 237.485351562 63.2900390625 228.744140625 77.4111328125 225.57421875 c 0
 85.2587890625 223.8125 93.3681640625 223.666015625 101.411132812 223.57421875 c 0
 116.744140625 223.400390625 132.078125 223.734375 147.411132812 223.57421875 c 0
148.411132812 386.57421875 m 0
 216.415039062 385.865234375 328.022532329 385.955632597 396 388 c 0
 403.37109375 388.221679688 410.787109375 388.46484375 418 390 c 0
 431.939453125 392.967773438 444.99609375 401.1171875 452.544921875 413.205078125 c 0
 456.3203125 419.25 458.68359375 426.196289062 459.177734375 433.3046875 c 0
 459.672851562 440.4140625 458.275390625 447.671875 455 454 c 0
 450.534179688 462.62890625 442.75 469.247070312 434.025390625 473.524414062 c 0
 425.301757812 477.801757812 415.651367188 479.884765625 406 481 c 0
 400.02734375 481.690429688 394.011557542 481.96016856 388 482 c 2
 150.411132812 483.57421875 l 1
 110.411132812 483.57421875 l 2
 104.064453125 483.698242188 97.708984375 483.36328125 91.4111328125 482.57421875 c 0
 81.6982421875 481.357421875 72.0244140625 479.020507812 63.3291015625 474.524414062 c 0
 54.6337890625 470.029296875 46.9384765625 463.252929688 42.4111328125 454.57421875 c 0
 39.064453125 448.158203125 37.5283203125 440.833007812 37.8583984375 433.604492188 c 0
 38.1875 426.375 40.3662109375 419.256835938 44 413 c 0
 51.2685546875 400.485351562 64.2900390625 391.744140625 78.4111328125 388.57421875 c 0
 86.2587890625 386.8125 94.3681640625 386.666015625 102.411132812 386.57421875 c 0
 117.744140625 386.400390625 133.078125 386.734375 148.411132812 386.57421875 c 0
EndSplineSet
Validated: 41
EndChar

StartChar: greater
Encoding: 27 62 78
Width: 500
InSpiro: 1
Flags: W
LayerCount: 6
Fore
SplineSet
92.640625 503.866210938 m 2
 88.966796875 506.115234375 85.1826171875 508.411132812 81.7236328125 511.073242188 c 0
 74.119140625 516.927734375 67.3310546875 524.1953125 63.630859375 533.049804688 c 0
 59.732421875 542.3828125 59.541015625 553.169921875 62.9345703125 562.6953125 c 0
 66.3291015625 572.221679688 73.244140625 580.416015625 81.9736328125 585.520507812 c 0
 92.16015625 591.48046875 104.475585938 593.177734375 116.194335938 591.76953125 c 0
 128.178710938 590.329101562 139.446289062 584.912109375 149.485351562 578.56640625 c 2
 428.46875 402.220703125 l 2
 437.209960938 397.737304688 444.40234375 390.298828125 448.588867188 381.412109375 c 0
 454.682617188 368.4765625 454.086914062 352.609375 447.069335938 340.151367188 c 0
 440.05078125 327.693359375 426.8046875 318.96484375 412.592773438 317.399414062 c 0
 398.924804688 315.891601562 384.676757812 321.012695312 375.090820312 330.874023438 c 2
 92.640625 503.866210938 l 2
  Spiro
    88.9497 506.14 o
    85.2713 508.524 o
    81.724 511.073 o
    74.4823 517.398 o
    68.2708 524.726 o
    63.6313 533.05 o
    60.9653 542.757 o
    60.7415 552.86 o
    62.9343 562.696 o
    67.4336 571.704 o
    73.9191 579.459 o
    81.9731 585.521 o
    92.7576 590.1 o
    104.39 592.1 o
    116.194 591.769 o
    127.91 589.12 o
    139.067 584.484 o
    149.486 578.566 [
    428.469 402.221 ]
    436.632 396.815 o
    443.46 389.752 o
    448.589 381.412 o
    452.46 367.748 o
    451.934 353.497 o
    447.069 340.152 o
    438.181 329.073 o
    426.276 321.219 o
    412.593 317.4 o
    398.939 318.029 o
    386.024 322.669 o
    375.091 330.873 [
    92.6402 503.866 ]
    0 0 z
  EndSpiro
93.638671875 221.7890625 m 2
 376.08984375 394.78125 l 2
 385.674804688 404.642578125 399.922851562 409.763671875 413.591796875 408.255859375 c 0
 427.8046875 406.690429688 441.05078125 397.961914062 448.067382812 385.50390625 c 0
 455.0859375 373.045898438 455.680664062 357.178710938 449.586914062 344.243164062 c 0
 445.401367188 335.356445312 438.208007812 327.91796875 429.466796875 323.434570312 c 2
 150.484375 147.088867188 l 2
 140.446289062 140.743164062 129.177734375 135.326171875 117.192382812 133.885742188 c 0
 105.475585938 132.477539062 93.1591796875 134.174804688 82.9716796875 140.134765625 c 0
 74.2421875 145.239257812 67.3271484375 153.43359375 63.9326171875 162.959960938 c 0
 60.5390625 172.485351562 60.7314453125 183.272460938 64.6298828125 192.60546875 c 0
 68.330078125 201.459960938 75.1181640625 208.727539062 82.72265625 214.58203125 c 0
 86.181640625 217.244140625 89.96484375 219.540039062 93.638671875 221.7890625 c 2
  Spiro
    93.6388 221.79 [
    376.09 394.782 ]
    387.023 402.986 o
    399.937 407.626 o
    413.591 408.256 o
    427.274 404.436 o
    439.179 396.582 o
    448.067 385.503 o
    452.932 372.158 o
    453.459 357.907 o
    449.588 344.243 o
    444.459 335.903 o
    437.631 328.84 o
    429.468 323.434 [
    150.484 147.089 ]
    140.066 141.171 o
    128.909 136.536 o
    117.193 133.886 o
    105.388 133.555 o
    93.7562 135.555 o
    82.9717 140.134 o
    74.9177 146.197 o
    68.4322 153.951 o
    63.9329 162.96 o
    61.7401 172.795 o
    61.9639 182.898 o
    64.6299 192.605 o
    69.2694 200.93 o
    75.4808 208.257 o
    82.7226 214.582 o
    86.27 217.131 o
    89.9483 219.515 o
    0 0 z
  EndSpiro
EndSplineSet
Validated: 37
EndChar

StartChar: question
Encoding: 28 63 79
Width: 500
InSpiro: 1
Flags: W
HStem: 21.1934 150.613<192.203 289.797>
VStem: 165.693 150.613<47.7033 145.297>
LayerCount: 6
Fore
SplineSet
184 146 m 0
 196.958984375 160.922851562 215.981445312 170.418945312 235.696289062 171.806640625 c 0
 255.412109375 173.1953125 275.577148438 166.458984375 290.5 153.5 c 0
 305.422851562 140.541015625 314.918945312 121.518554688 316.306640625 101.803710938 c 0
 317.6953125 82.087890625 310.958984375 61.9228515625 298 47 c 0
 285.041015625 32.0771484375 266.018554688 22.5810546875 246.303710938 21.193359375 c 0
 226.587890625 19.8046875 206.422851562 26.541015625 191.5 39.5 c 0
 176.577148438 52.458984375 167.081054688 71.4814453125 165.693359375 91.1962890625 c 0
 164.3046875 110.912109375 171.041015625 131.077148438 184 146 c 0
  Spiro
    184 146 c
    298 47 c
    0 0 z
  EndSpiro
342 393 m 2
 348.499248245 395.247187283 354.850772558 397.92151331 361 401 c 0
 399.882582258 420.465780554 429.825130971 456.511638032 443.151420684 497.902238632 c 0
 456.477710397 539.292839233 453.358180935 585.491679909 435.863251965 625.299961409 c 0
 418.368322995 665.108242908 386.871966119 698.35351308 348.728267034 719.230055796 c 0
 310.58456795 740.106598512 266.072957291 748.71598857 222.749023438 745 c 0
 188.193057701 742.036059234 154.211000837 731.30004373 124.749023438 713 c 0
 86.9820678286 689.541393342 56.525067194 652.427206418 47 609 c 0
 45.3572410338 601.510243627 44.3316584418 593.84487412 44.619402603 586.182478226 c 0
 44.9071467641 578.520082331 46.5411341496 570.843343815 50 564 c 0
 55.6893178517 552.743721261 66.3665946974 544.166190315 78.5377011177 540.859180006 c 0
 90.708807538 537.552169697 104.182351454 539.515354395 115 546 c 0
 125.966326079 552.573770437 133.837715119 563.219768956 140.568808661 574.090240205 c 0
 147.299902203 584.960711453 153.265536171 596.434164478 161.749023438 606 c 0
 174.012683063 619.828293387 190.982367898 628.904414032 208.749023438 634 c 0
 237.829781538 642.340540097 270.480495841 640.131947232 296.555161397 624.790274673 c 0
 309.592494175 617.119438393 320.820326372 606.287085006 328.55309171 593.286388278 c 0
 336.285857048 580.285691549 340.458930474 565.119628237 340 550 c 0
 339.518194027 534.126730254 333.9512372 518.564757492 324.951771771 505.480322027 c 0
 315.952306342 492.395886563 303.608701274 481.752558269 289.749023438 474 c 0
 281.246010395 469.24374918 272.154958634 465.539987351 262.749023438 463 c 2
 232.749023438 454 l 2
 230.107900787 453.159740974 227.518408533 452.157230551 225 451 c 0
 215.932039474 446.833193535 207.790874224 440.619386552 201.512191562 432.862561927 c 0
 195.233508901 425.105737302 190.839602898 415.808468045 189 406 c 0
 188.32028894 402.375889485 187.98495987 398.687269714 188 395 c 2
 187 244 l 2
 188.370450906 237.68258799 190.742322178 231.583490432 194 226 c 0
 198.729821277 217.893332217 205.353351647 210.879324361 213.259707962 205.821775381 c 0
 221.166064276 200.764226401 230.348904521 197.684773283 239.716578836 197.105161532 c 0
 249.084253151 196.525549782 258.615400266 198.463979973 266.943657736 202.791727583 c 0
 275.271915205 207.119475192 282.362765947 213.84001641 287 222 c 0
 290.305945631 227.817360476 292.365426049 234.339048467 293 241 c 2
 294 372 l 1
 342 393 l 2
  Spiro
    342 393 v
    361 401 c
    222.749 745 c
    124.749 713 c
    47 609 c
    50 564 c
    115 546 c
    161.749 606 c
    208.749 634 c
    340 550 c
    289.749 474 c
    262.749 463 v
    232.749 454 v
    225 451 c
    189 406 c
    188 395 v
    187 244 v
    194 226 c
    287 222 c
    293 241 v
    294 372 v
    0 0 z
  EndSpiro
EndSplineSet
Validated: 41
EndChar

StartChar: at
Encoding: 29 64 80
Width: 500
Flags: W
LayerCount: 6
Fore
SplineSet
8 245 m 2
 149.153320312 28.240234375 l 2
 155.299804688 18.8017578125 160.391601562 6.966796875 171.153320312 2.240234375 c 0
 182.342773438 -2.6748046875 195.876953125 -1.8740234375 206.395507812 4.34765625 c 0
 216.913085938 10.5703125 224.135742188 22.0615234375 225.153320312 34.240234375 c 0
 225.852539062 42.607421875 223.622070312 51.14453125 219.153320312 58.240234375 c 2
 82 276 l 2
 76.8369140625 284.888671875 71.255859375 293.811523438 63 300 c 0
 54.9287109375 306.049804688 45.0869140625 310.057617188 35 310 c 0
 26.357421875 309.951171875 17.736328125 306.840820312 11.1533203125 301.240234375 c 0
 4.5703125 295.640625 0.1015625 287.572265625 -1 279 c 0
 -2.0458984375 270.864257812 -0.126953125 262.583007812 3 255 c 0
 4.421875 251.551757812 6.1103515625 248.213867188 8 245 c 2
8 463 m 2
 285.911132812 28.1328125 l 2
 291.978515625 18.638671875 297.149414062 6.859375 307.911132812 2.1328125 c 0
 319.100585938 -2.7822265625 332.634765625 -1.9814453125 343.153320312 4.240234375 c 0
 353.670898438 10.462890625 360.893554688 21.9541015625 361.911132812 34.1328125 c 0
 362.610351562 42.5 360.374023438 51.0302734375 355.911132812 58.1328125 c 2
 82 494 l 2
 76.8369140625 502.888671875 71.255859375 511.811523438 63 518 c 0
 54.9287109375 524.049804688 45.0869140625 528.057617188 35 528 c 0
 26.357421875 527.951171875 17.736328125 524.840820312 11.1533203125 519.240234375 c 0
 4.5703125 513.640625 0.1015625 505.572265625 -1 497 c 0
 -2.0458984375 488.864257812 -0.126953125 480.583007812 3 473 c 0
 4.421875 469.551757812 6.1103515625 466.213867188 8 463 c 2
490.153320312 501.240234375 m 2
 349 718 l 2
 342.853391314 727.438938136 337.76171875 739.2734375 327 744 c 0
 315.810546875 748.915039062 302.276367188 748.114257812 291.7578125 741.892578125 c 0
 281.240234375 735.669921875 274.017578125 724.178710938 273 712 c 0
 272.30078125 703.6328125 274.530905771 695.095627795 279 688 c 2
 416.153320312 470.240234375 l 2
 421.31640625 461.3515625 426.897460938 452.428710938 435.153320312 446.240234375 c 0
 443.224609375 440.190429688 453.06640625 436.182617188 463.153320312 436.240234375 c 0
 471.795898438 436.2890625 480.416992188 439.399414062 487 445 c 0
 493.583007812 450.599609375 498.051757812 458.66796875 499.153320312 467.240234375 c 0
 500.19921875 475.375976562 498.280273438 483.657226562 495.153320312 491.240234375 c 0
 493.731445312 494.688476562 492.04296875 498.026367188 490.153320312 501.240234375 c 2
490.153320312 283.240234375 m 2
 212.2421875 718.107421875 l 2
 206.174909782 727.601320052 201.00390625 739.380859375 190.2421875 744.107421875 c 0
 179.052734375 749.022460938 165.518554688 748.221679688 155 742 c 0
 144.482421875 735.77734375 137.259765625 724.286132812 136.2421875 712.107421875 c 0
 135.54296875 703.740234375 137.778952415 695.209644058 142.2421875 688.107421875 c 2
 416.153320312 252.240234375 l 2
 421.31640625 243.3515625 426.897460938 234.428710938 435.153320312 228.240234375 c 0
 443.224609375 222.190429688 453.06640625 218.182617188 463.153320312 218.240234375 c 0
 471.795898438 218.2890625 480.416992188 221.399414062 487 227 c 0
 493.583007812 232.599609375 498.051757812 240.66796875 499.153320312 249.240234375 c 0
 500.19921875 257.375976562 498.280273438 265.657226562 495.153320312 273.240234375 c 0
 493.731445312 276.688476562 492.04296875 280.026367188 490.153320312 283.240234375 c 2
491 65 m 2
 76.2421875 718.107421875 l 2
 70.2016065191 727.619354266 65.00390625 739.380859375 54.2421875 744.107421875 c 0
 43.052734375 749.022460938 29.5185546875 748.221679688 19 742 c 0
 8.482421875 735.77734375 1.259765625 724.286132812 0.2421875 712.107421875 c 0
 -0.45703125 703.740234375 1.78108061165 695.211469654 6.2421875 688.107421875 c 2
 417 34 l 2
 422.163085938 25.111328125 427.744140625 16.1884765625 436 10 c 0
 444.071289062 3.9501953125 453.913085938 -0.0576171875 464 0 c 0
 472.642578125 0.048828125 481.263671875 3.1591796875 487.846679688 8.759765625 c 0
 494.4296875 14.359375 498.8984375 22.427734375 500 31 c 0
 501.045898438 39.1357421875 499.126953125 47.4169921875 496 55 c 0
 494.578125 58.4482421875 492.889648438 61.7861328125 491 65 c 2
EndSplineSet
Validated: 41
EndChar

StartChar: underscore
Encoding: 60 95 85
Width: 500
Flags: W
HStem: 3.0498 97<36.0654 80.082 407.082 450.396>
LayerCount: 6
Fore
SplineSet
137.08203125 3.0498046875 m 0
 223.737304688 1.1142578125 310.443359375 1.4482421875 397.08203125 4.0498046875 c 0
 404.452148438 4.2705078125 411.869140625 4.513671875 419.08203125 6.0498046875 c 0
 433.021484375 9.0166015625 446.077148438 17.1669921875 453.626953125 29.2548828125 c 0
 457.401367188 35.298828125 459.764648438 42.24609375 460.259765625 49.3544921875 c 0
 460.75390625 56.462890625 459.357421875 63.720703125 456.08203125 70.0498046875 c 0
 451.615234375 78.677734375 443.831054688 85.296875 435.107421875 89.57421875 c 0
 426.3828125 93.8505859375 416.733398438 95.93359375 407.08203125 97.0498046875 c 0
 401.108398438 97.7392578125 395.094726562 98.07421875 389.08203125 98.0498046875 c 2
 139.08203125 100.049804688 l 1
 99.08203125 100.049804688 l 2
 92.7353515625 100.172851562 86.3798828125 99.8388671875 80.08203125 99.0498046875 c 0
 70.369140625 97.83203125 60.6953125 95.4951171875 52 91 c 0
 43.3046875 86.5048828125 35.6083984375 79.7275390625 31.08203125 71.0498046875 c 0
 27.734375 64.6337890625 26.19921875 57.3076171875 26.5283203125 50.0791015625 c 0
 26.8583984375 42.8505859375 29.0361328125 35.732421875 32.6708984375 29.474609375 c 0
 39.9384765625 16.9599609375 52.9609375 8.21875 67.08203125 5.0498046875 c 0
 74.9296875 3.2880859375 83.0390625 3.140625 91.08203125 3.0498046875 c 0
 106.4140625 2.875 121.749023438 2.875 137.08203125 3.0498046875 c 0
  Spiro
    137.082 3.04934 v
    397.082 4.04934 c
    419.082 6.04934 c
    456.082 70.0493 c
    407.082 97.0493 c
    389.082 98.0493 v
    139.082 100.049 v
    99.0816 100.049 v
    80.0816 99.0493 c
    31.0816 71.0493 c
    67.0816 5.04934 c
    91.0816 3.04934 c
    0 0 z
  EndSpiro
EndSplineSet
Validated: 41
EndChar

StartChar: percent
Encoding: 5 37 87
Width: 500
Flags: W
HStem: 64.2168 65.9209<329.243 377.084> 198.642 68.0205<337.461 385.303> 475.478 65.9209<120.57 168.411> 609.902 68.0205<128.788 176.63>
VStem: 46.3271 68.0215<555.839 603.68> 182.853 65.9199<547.62 595.462> 255 68.0215<144.578 192.419> 391.525 65.9199<136.359 184.201>
LayerCount: 6
Fore
SplineSet
120.3203125 555.490234375 m 0
 125.598632812 548.0859375 133.891601562 542.901367188 142.857421875 541.3984375 c 0
 151.825195312 539.895507812 161.356445312 542.091796875 168.759765625 547.370117188 c 0
 176.1640625 552.6484375 181.348632812 560.94140625 182.852539062 569.908203125 c 0
 184.354492188 578.875 182.158203125 588.40625 176.879882812 595.810546875 c 0
 171.6015625 603.213867188 163.30859375 608.399414062 154.341796875 609.90234375 c 0
 145.375 611.405273438 135.84375 609.208984375 128.439453125 603.9296875 c 0
 121.036132812 598.65234375 115.850585938 590.359375 114.348632812 581.392578125 c 0
 112.844726562 572.424804688 115.041015625 562.89453125 120.3203125 555.490234375 c 0
  Spiro
    176.88 595.81 c
    120.32 555.49 c
    0 0 z
  EndSpiro
62.849609375 518.25 m 0
 47.5478515625 540.424804688 41.46875 568.762695312 46.3271484375 595.260742188 c 0
 51.1865234375 621.76171875 66.92578125 646.098632812 89.099609375 661.400390625 c 0
 111.274414062 676.702148438 139.612304688 682.78125 166.110351562 677.922851562 c 0
 192.611328125 673.063476562 216.948242188 657.32421875 232.25 635.150390625 c 0
 247.551757812 612.975585938 253.630859375 584.637695312 248.772460938 558.139648438 c 0
 243.913085938 531.638671875 228.173828125 507.301757812 206 492 c 0
 183.825195312 476.698242188 155.487304688 470.619140625 128.989257812 475.477539062 c 0
 102.48828125 480.336914062 78.1513671875 496.076171875 62.849609375 518.25 c 0
  Spiro
    62.8498 518.25 c
    232.25 635.15 c
    0 0 z
  EndSpiro
328.993164062 144.229492188 m 0
 334.271484375 136.825195312 342.564453125 131.640625 351.530273438 130.137695312 c 0
 360.498046875 128.634765625 370.029296875 130.831054688 377.432617188 136.109375 c 0
 384.836914062 141.387695312 390.021484375 149.680664062 391.525390625 158.647460938 c 0
 393.02734375 167.614257812 390.831054688 177.145507812 385.552734375 184.549804688 c 0
 380.274414062 191.953125 371.981445312 197.138671875 363.014648438 198.641601562 c 0
 354.047851562 200.14453125 344.516601562 197.948242188 337.112304688 192.668945312 c 0
 329.708984375 187.391601562 324.5234375 179.098632812 323.021484375 170.131835938 c 0
 321.517578125 161.1640625 323.713867188 151.633789062 328.993164062 144.229492188 c 0
  Spiro
    385.552 184.549 c
    328.992 144.229 c
    0 0 z
  EndSpiro
271.522460938 106.989257812 m 0
 256.220703125 129.1640625 250.141601562 157.501953125 255 184 c 0
 259.859375 210.500976562 275.598632812 234.837890625 297.772460938 250.139648438 c 0
 319.947265625 265.44140625 348.28515625 271.520507812 374.783203125 266.662109375 c 0
 401.284179688 261.802734375 425.62109375 246.063476562 440.922851562 223.889648438 c 0
 456.224609375 201.71484375 462.303710938 173.376953125 457.4453125 146.87890625 c 0
 452.5859375 120.377929688 436.846679688 96.041015625 414.672851562 80.7392578125 c 0
 392.498046875 65.4375 364.16015625 59.3583984375 337.662109375 64.216796875 c 0
 311.161132812 69.076171875 286.82421875 84.8154296875 271.522460938 106.989257812 c 0
  Spiro
    271.522 106.989 c
    440.922 223.889 c
    0 0 z
  EndSpiro
41 67 m 2
 392 719 l 2
 394.880364193 730.395339561 403.238587472 740.273239799 414 745 c 0
 425.189144584 749.914633944 438.723823366 749.114653924 449.242010142 742.89224842 c 0
 459.760196919 736.669842917 466.982448409 725.178471664 468 713 c 0
 468.699099403 704.632893764 466.554314172 696.053752842 462 689 c 2
 115 36 l 2
 110.871324664 26.5445649674 104.25580742 18.1881221331 96 12 c 0
 87.928390255 5.94994282536 78.087160184 1.94277139184 68 2 c 0
 59.3570245096 2.04903515446 50.736796101 5.15894818131 44.1535508277 10.7593331187 c 0
 37.5703055544 16.359718056 33.1016385813 24.4273795015 32 33 c 0
 30.9544603237 41.136075672 32.8727193387 49.4165313859 36 57 c 0
 37.4220328453 60.4483446221 39.0945440095 63.7933669505 41 67 c 2
  Spiro
    41 67 v
    392 719 v
    414 745 c
    468 713 c
    462 689 v
    115 36 v
    96 12 c
    68 2 c
    32 33 c
    36 57 c
    0 0 z
  EndSpiro
EndSplineSet
Validated: 33
EndChar

StartChar: parenleft
Encoding: 6 40 88
Width: 500
InSpiro: 1
Flags: W
VStem: 111.756 74.1221<238.229 496.879>
LayerCount: 6
Fore
SplineSet
111.755859375 359 m 0
 110.662109375 441.541015625 129.407226562 524.383789062 166.755859375 598 c 0
 191.572265625 646.9140625 224.487304688 691.706054688 263.755859375 730 c 0
 270.405273438 739.043945312 280.770507812 745.267578125 291.877929688 746.885742188 c 0
 304.096679688 748.666015625 317.151367188 744.712890625 325.919921875 736.018554688 c 0
 330.303710938 731.671875 333.6015625 726.223632812 335.342773438 720.299804688 c 0
 337.083007812 714.376953125 337.254882812 707.989257812 335.755859375 702 c 0
 333.739257812 693.939453125 328.862304688 686.919921875 323.749023438 680.37109375 c 0
 312.208007812 665.590820312 299.00390625 652.200195312 286.755859375 638 c 0
 220.888671875 561.631835938 183.858398438 460.715820312 185.877929688 359.885742188 c 0
 187.706054688 268.65234375 221.487304688 178.165039062 280.877929688 108.885742188 c 0
 293.083007812 94.6484375 306.322265625 81.2890625 317.87109375 66.5146484375 c 0
 322.98828125 59.96875 327.862304688 52.9462890625 329.877929688 44.8857421875 c 0
 331.375 38.896484375 331.203125 32.509765625 329.461914062 26.5869140625 c 0
 327.720703125 20.6640625 324.422851562 15.2158203125 320.0390625 10.869140625 c 0
 311.271484375 2.1748046875 298.21875 -1.779296875 286 0 c 0
 274.891601562 1.6181640625 264.52734375 7.841796875 257.877929688 16.8857421875 c 0
 218.048828125 54.6591796875 185.029296875 99.591796875 160.877929688 148.885742188 c 0
 128.97265625 214.006835938 112.716796875 286.490234375 111.755859375 359 c 0
  Spiro
    111.756 359 c
    166.756 598 c
    263.756 730 v
    291.878 746.886 c
    335.756 702 c
    323.749 680.371 c
    286.756 638 c
    185.878 359.886 c
    280.878 108.886 c
    317.871 66.515 c
    329.878 44.886 c
    286 0 c
    257.878 16.886 v
    160.878 148.886 c
    0 0 z
  EndSpiro
EndSplineSet
Validated: 33
EndChar

StartChar: parenright
Encoding: 7 41 89
Width: 500
Flags: W
VStem: 312 74.1221<238.343 496.993>
LayerCount: 6
Fore
SplineSet
386.122070312 359.114257812 m 4
 387.215820312 441.655273438 368.470703125 524.498046875 331.122070312 598.114257812 c 4
 306.305664062 647.028320312 273.390625 691.8203125 234.122070312 730.114257812 c 4
 227.47265625 739.158203125 217.107421875 745.381835938 206 747 c 4
 193.78125 748.780273438 180.7265625 744.827148438 171.958007812 736.1328125 c 4
 167.57421875 731.786132812 164.276367188 726.337890625 162.53515625 720.4140625 c 4
 160.794921875 714.491210938 160.623046875 708.103515625 162.122070312 702.114257812 c 4
 164.138671875 694.053710938 169.015625 687.034179688 174.12890625 680.485351562 c 4
 185.669921875 665.705078125 198.874023438 652.314453125 211.122070312 638.114257812 c 4
 276.989257812 561.74609375 314.01953125 460.830078125 312 360 c 4
 310.171875 268.766601562 276.390625 178.279296875 217 109 c 4
 204.794921875 94.7626953125 191.555664062 81.4033203125 180.006835938 66.62890625 c 4
 174.889648438 60.0830078125 170.015625 53.060546875 168 45 c 4
 166.502929688 39.0107421875 166.674804688 32.6240234375 168.416015625 26.701171875 c 4
 170.157226562 20.7783203125 173.455078125 15.330078125 177.838867188 10.9833984375 c 4
 186.606445312 2.2890625 199.659179688 -1.6650390625 211.877929688 0.1142578125 c 4
 222.986328125 1.732421875 233.350585938 7.9560546875 240 17 c 4
 279.829101562 54.7734375 312.848632812 99.7060546875 337 149 c 4
 368.905273438 214.12109375 385.161132812 286.604492188 386.122070312 359.114257812 c 4
  Spiro
    386.122 359.114 c
    331.122 598.114 c
    234.122 730.114 v
    206 747 c
    162.122 702.114 c
    174.129 680.485 c
    211.122 638.114 c
    312 360 c
    217 109 c
    180.007 66.6293 c
    168 45.0003 c
    211.878 0.114258 c
    240 17.0003 v
    337 149 c
    0 0 z
  EndSpiro
EndSplineSet
Validated: 41
EndChar

StartChar: guillemotright
Encoding: 91 187 90
Width: 500
InSpiro: 1
Flags: W
LayerCount: 6
Fore
SplineSet
84 747 m 1
 81 0 l 1
 455 364 l 1
 84 747 l 1
  Spiro
    84 747 v
    81 0 v
    455 364 v
    0 0 z
  EndSpiro
EndSplineSet
Validated: 9
EndChar

StartChar: guillemotleft
Encoding: 89 171 91
Width: 500
Flags: W
HStem: 0 21G<403.451 423.92> 0 21G<403.451 423.92> 727 20G<401.627 421.08> 727 20G<401.627 421.08>
LayerCount: 6
Fore
SplineSet
421 747 m 5x60
 424 0 l 5
 50 364 l 5
 421 747 l 5x60
  Spiro
    421 747 v
    424 0 v
    50 364 v
    0 0 z
  EndSpiro
EndSplineSet
Validated: 1
EndChar

StartChar: H22073
Encoding: 92 9633 92
Width: 500
InSpiro: 1
Flags: W
HStem: 0 70.9648<77.875 422.125> 675.225 70.7754<77.875 422.125>
VStem: 25 52.875<70.9648 675.225> 422.125 52.875<70.9648 676.035>
LayerCount: 6
Fore
SplineSet
77.875 675.224609375 m 1
 77.875 70.96484375 l 1
 422.125 70.96484375 l 1
 422.125 676.03515625 l 1
 77.875 675.224609375 l 1
  Spiro
    77.875 675.225 v
    77.875 70.965 v
    422.125 70.965 v
    422.125 676.035 v
    0 0 z
  EndSpiro
25 746 m 1
 475 747 l 1
 475 0 l 1
 25 0 l 1
 25 746 l 1
  Spiro
    475 747 v
    475 0 v
    25 0 v
    25 746 v
    0 0 z
  EndSpiro
EndSplineSet
Validated: 1
EndChar

StartChar: arrowleft
Encoding: 93 8592 93
Width: 500
InSpiro: 1
Flags: W
LayerCount: 6
Fore
SplineSet
280 543 m 2
 289.526723529 547.35360721 297.011441014 555.961032318 300 566 c 0
 302.239243264 573.521916369 301.998071248 581.727955092 299.525064701 589.17628879 c 0
 297.052058154 596.624622488 292.38389997 603.298699897 286.373517454 608.345356044 c 0
 280.363134938 613.392012191 273.039181363 616.818738754 265.355097136 618.415073886 c 0
 257.671012909 620.011409019 249.640310723 619.794181795 242 618 c 0
 229.998417965 615.181656509 218.958364489 608.41517212 211 599 c 2
 37 411 l 2
 29.4324804457 403.960208163 23.276068775 395.409636398 19 386 c 0
 13.7631287096 374.476084624 11.3766400339 361.38319139 14 349 c 0
 15.8144783482 340.435017326 20.0129327309 332.387979759 26 326 c 2
 213 141 l 2
 224.178893029 127.896046037 241.832188618 120.604467425 259 122 c 0
 268.708559838 122.789186881 278.236288979 126.261074426 285.953445809 132.204511187 c 0
 293.670602638 138.147947947 299.509787928 146.583111241 302 156 c 0
 304.099267698 163.938508777 303.799545278 172.494867106 301.149945372 180.267026831 c 0
 298.500345465 188.039186557 293.511188624 194.99687406 287 200 c 2
 155 315 l 1
 437 316 l 1
 500 317 l 1
 500 410 l 1
 428 410 l 1
 154 413 l 1
 280 543 l 2
  Spiro
    280 543 v
    300 566 c
    242 618 c
    211 599 v
    37 411 v
    19 386 c
    14 349 c
    26 326 v
    213 141 v
    259 122 c
    302 156 c
    287 200 v
    155 315 v
    437 316 v
    500 317 v
    500 410 v
    428 410 v
    154 413 v
    0 0 z
  EndSpiro
EndSplineSet
Validated: 41
EndChar

StartChar: arrowright
Encoding: 94 8594 94
Width: 500
Flags: W
HStem: 316 94<0 345>
LayerCount: 6
Fore
SplineSet
220 543 m 6
 210.473632812 547.353515625 202.98828125 555.9609375 200 566 c 4
 197.760742188 573.521484375 198.001953125 581.727539062 200.474609375 589.176757812 c 4
 202.948242188 596.625 207.616210938 603.298828125 213.626953125 608.345703125 c 4
 219.63671875 613.391601562 226.9609375 616.818359375 234.64453125 618.415039062 c 4
 242.329101562 620.01171875 250.359375 619.793945312 258 618 c 4
 270.001953125 615.181640625 281.041992188 608.415039062 289 599 c 6
 463 411 l 6
 470.567382812 403.959960938 476.723632812 395.409179688 481 386 c 4
 486.237304688 374.4765625 488.623046875 361.3828125 486 349 c 4
 484.185546875 340.434570312 479.987304688 332.387695312 474 326 c 6
 294 145 l 6
 281.889952987 132.822674948 262.12109375 119.400390625 244.953125 120.795898438 c 4
 235.244140625 121.584960938 225.716796875 125.056640625 218 131 c 4
 210.282226562 136.943359375 204.443359375 145.37890625 201.953125 154.795898438 c 4
 199.853515625 162.734375 200.153320312 171.291015625 202.802734375 179.0625 c 4
 205.453125 186.834960938 210.442382812 193.79296875 216.953125 198.795898438 c 6
 345 315 l 5
 63 316 l 5
 0 317 l 5
 0 410 l 5
 72 410 l 5
 346 413 l 5
 220 543 l 6
EndSplineSet
Validated: 33
EndChar

StartChar: uni2731
Encoding: 95 10033 95
Width: 500
Flags: W
VStem: 202.05 97<324.782 368.799 695.799 739.114>
LayerCount: 6
Fore
SplineSet
318.827148438 630.40625 m 0
 242.814453125 588.75390625 167.890625 545.112304688 94.1611328125 499.540039062 c 0
 87.8876953125 495.663085938 81.5869140625 491.744140625 76.1083984375 486.80859375 c 0
 65.5205078125 477.268554688 58.2880859375 463.682617188 57.7939453125 449.439453125 c 0
 57.5478515625 442.317382812 58.9736328125 435.119140625 62.099609375 428.716796875 c 0
 65.2255859375 422.311523438 70.064453125 416.725585938 76.0654296875 412.8828125 c 0
 84.2470703125 407.642578125 94.2978515625 405.802734375 103.9921875 406.4609375 c 0
 113.685546875 407.119140625 123.084960938 410.139648438 132 414 c 0
 137.518554688 416.388671875 142.893554688 419.106445312 148.088867188 422.133789062 c 2
 365.595703125 545.401367188 l 1
 400.236328125 565.401367188 l 2
 405.794921875 568.467773438 411.130859375 571.935546875 416.190429688 575.767578125 c 0
 423.994140625 581.677734375 431.203125 588.5390625 436.485351562 596.780273438 c 0
 441.768554688 605.020507812 445.044921875 614.737304688 444.625976562 624.516601562 c 0
 444.31640625 631.74609375 441.984375 638.858398438 438.083984375 644.953125 c 0
 434.184570312 651.049804688 428.73828125 656.125 422.462890625 659.7265625 c 0
 409.911132812 666.9296875 394.263671875 667.989257812 380.44921875 663.673828125 c 0
 372.771484375 661.276367188 365.67578125 657.348632812 358.6640625 653.40625 c 0
 345.298828125 645.890625 332.01953125 638.223632812 318.827148438 630.40625 c 0
  Spiro
    318.827 630.406 v
    94.1607 499.54 c
    76.1081 486.808 c
    76.0652 412.883 c
    132 414 c
    148.089 422.134 v
    365.595 545.402 v
    400.236 565.402 v
    416.191 575.768 c
    444.626 624.517 c
    380.449 663.674 c
    358.664 653.406 c
    0 0 z
  EndSpiro
365.458984375 525.635742188 m 0
 291.380859375 570.639648438 216.124023438 613.704101562 139.791992188 654.770507812 c 0
 133.297851562 658.263671875 126.75390625 661.760742188 119.740234375 664.038085938 c 0
 106.18359375 668.4375 90.802734375 667.908203125 78.220703125 661.21484375 c 0
 71.9296875 657.866210938 66.4091796875 653.033203125 62.4267578125 647.124023438 c 0
 58.443359375 641.21484375 56.0244140625 634.23046875 55.697265625 627.112304688 c 0
 55.25 617.407226562 58.6826171875 607.783203125 64.099609375 599.716796875 c 0
 69.515625 591.650390625 76.8310546875 585.021484375 84.6318359375 579.229492188 c 0
 89.458984375 575.645507812 94.5009765625 572.348632812 99.720703125 569.364257812 c 2
 315.2265625 442.631835938 l 1
 349.868164062 422.631835938 l 2
 355.302734375 419.350585938 360.973632812 416.462890625 366.822265625 413.998046875 c 0
 375.842773438 410.1953125 385.388671875 407.381835938 395.166992188 406.927734375 c 0
 404.9453125 406.473632812 414.998046875 408.494140625 423.2578125 413.74609375 c 0
 429.364257812 417.629882812 434.357421875 423.205078125 437.685546875 429.630859375 c 0
 441.014648438 436.055664062 442.6875 443.309570312 442.668945312 450.544921875 c 0
 442.631835938 465.017578125 435.724609375 479.098632812 425.081054688 488.904296875 c 0
 419.165039062 494.353515625 412.215820312 498.53515625 405.295898438 502.635742188 c 0
 392.104492188 510.453125 378.825195312 518.120117188 365.458984375 525.635742188 c 0
  Spiro
    365.459 525.636 v
    139.792 654.77 c
    119.74 664.038 c
    55.6969 627.113 c
    84.6322 579.23 c
    99.7206 569.364 v
    315.227 442.632 v
    349.868 422.632 v
    366.822 413.998 c
    423.258 413.747 c
    425.081 488.904 c
    405.296 502.636 c
    0 0 z
  EndSpiro
299.049804688 425.798828125 m 0
 300.984375 512.454101562 300.651367188 599.161132812 298.049804688 685.798828125 c 0
 297.828125 693.169921875 297.584960938 700.5859375 296.049804688 707.798828125 c 0
 293.08203125 721.73828125 284.932617188 734.793945312 272.844726562 742.34375 c 0
 266.799804688 746.118164062 259.853515625 748.482421875 252.745117188 748.9765625 c 0
 245.635742188 749.471679688 238.377929688 748.07421875 232.049804688 744.798828125 c 0
 223.420898438 740.333007812 216.802734375 732.548828125 212.525390625 723.82421875 c 0
 208.248046875 715.100585938 206.165039062 705.450195312 205.049804688 695.798828125 c 0
 204.359375 689.826171875 204.025390625 683.811523438 204.049804688 677.798828125 c 2
 202.049804688 427.798828125 l 1
 202.049804688 387.798828125 l 2
 201.92578125 381.452148438 202.260742188 375.096679688 203.049804688 368.798828125 c 0
 204.266601562 359.0859375 206.603515625 349.412109375 211.099609375 340.716796875 c 0
 215.594726562 332.021484375 222.37109375 324.326171875 231.049804688 319.798828125 c 0
 237.465820312 316.452148438 244.791015625 314.916015625 252.01953125 315.24609375 c 0
 259.249023438 315.575195312 266.3671875 317.75390625 272.624023438 321.387695312 c 0
 285.138671875 328.65625 293.879882812 341.677734375 297.049804688 355.798828125 c 0
 298.811523438 363.646484375 298.958007812 371.755859375 299.049804688 379.798828125 c 0
 299.223632812 395.131835938 299.223632812 410.465820312 299.049804688 425.798828125 c 0
  Spiro
    299.05 425.799 v
    298.05 685.799 c
    296.05 707.799 c
    232.05 744.799 c
    205.05 695.799 c
    204.05 677.799 v
    202.05 427.799 v
    202.05 387.799 v
    203.05 368.799 c
    231.05 319.799 c
    297.05 355.799 c
    299.05 379.799 c
    0 0 z
  EndSpiro
EndSplineSet
Validated: 37
EndChar

StartChar: NameMe.96
Encoding: 96 8593 96
Width: 500
InSpiro: 1
Flags: HW
LayerCount: 6
Fore
SplineSet
257.8043 745.755 m 0
 266.090009855 746.82777407 274.511730071 746.773388916 282.8043 745.755 c 2
 292.8043 742.755 l 2
 295.556164789 741.092591495 298.397444908 739.582879876 301.27 738.139 c 0
 303.882419403 736.825876428 306.51371413 735.538639405 309 734 c 0
 311.464216647 732.475018146 313.741451547 730.669821273 315.963 728.809 c 2
 480.71237 590.81105 l 2
 482.513026048 589.302778112 484.263949953 587.726509147 485.810548911 585.958663579 c 0
 487.357147869 584.19081801 488.740836112 582.287635251 490.104735 580.3753 c 0
 491.560166802 578.334625604 493.011472616 576.284555684 494.250797701 574.105861796 c 0
 495.490122786 571.927167909 496.45930668 569.587424585 497.01266 567.14275 c 0
 497.519589576 564.903172128 497.700148804 562.605214235 497.953844804 560.323038742 c 0
 498.207540803 558.040863248 498.617169936 555.779169526 499.107505 553.5359 c 0
 499.387426519 552.255266696 499.667751759 550.969114527 499.76050345 549.661530938 c 0
 499.853255141 548.35394735 499.735618552 547.024275121 499.3292 545.778 c 0
 498.93221248 544.560644968 498.272599208 543.444519683 497.529272617 542.401918156 c 0
 496.785946026 541.359316628 495.973444354 540.367340825 495.233975 539.322 c 0
 493.813746511 537.314313253 492.738057521 535.08273037 491.35237 533.05105 c 0
 489.959682671 531.009106586 488.176262809 529.25984878 486.252295 527.70825 c 0
 484.329052159 526.157235875 482.297800685 524.731325207 480.126695 523.552 c 0
 477.962577302 522.376470605 475.650259987 521.478598518 473.267505 520.8559 c 0
 471.257350547 520.330575237 469.197130913 519.99440266 467.12338 519.86695 c 0
 465.043290147 519.739107749 462.951428612 519.819562465 460.884445 520.08545 c 0
 458.823043962 520.350619418 456.77968783 520.795942275 454.82487 521.5019 c 0
 452.877230961 522.205265195 451.039439398 523.206564279 449.3884 524.4564 c 0
 447.7160053 525.72240167 446.192557912 527.174283732 444.54245 528.4692 c 0
 442.956163112 529.714032949 441.336864532 530.918618247 439.827695 532.2559 c 2
 304.4327 652.23 l 1
 304.575515941 462.668685266 304.957516346 273.107550735 305.5787 83.5472 c 0
 305.608192703 74.5472091324 305.638224319 65.5470423482 305.5787 56.5472 c 0
 305.525122642 48.4465147145 305.171305362 40.2219879492 302.5787 32.5472 c 0
 300.223094377 25.5739930811 296.342041546 19.1583558433 291.5787 13.5472 c 0
 288.949119398 10.4495874487 285.98685151 7.58823957824 282.526317838 5.45877852751 c 0
 279.065784166 3.32931747678 275.063229715 2.00787045372 271 2 c 0
 266.538533986 1.99135816475 262.16146989 3.57890354085 258.458843756 6.06794218774 c 0
 254.756217622 8.55698083463 251.651068526 11.8414034962 248.854 15.3172 c 0
 244.244129621 21.0456872351 240.269448576 27.3722681005 237.854 34.3172 c 0
 235.191657807 41.9720039195 234.874902107 50.2126548492 234.854 58.3172 c 0
 234.830788523 67.3171760938 234.842242812 76.3172016539 234.854 85.3172 c 0
 235.101634076 274.878372358 235.483634204 464.439369186 236 654 c 1
 100.605005 534.0259 l 2
 99.0958356356 532.688618395 97.4764927219 531.484088866 95.89025 530.2392 c 0
 94.2401871341 528.94422486 92.7168426027 527.492207772 91.0443 526.2264 c 0
 89.3931345454 524.976770806 87.5552476685 523.975806888 85.60783 523.2719 c 0
 83.6531744227 522.565376923 81.6098703729 522.119259285 79.548255 521.85545 c 0
 77.4811768615 521.590941686 75.389524174 521.51234152 73.30932 521.63695 c 0
 71.2351711205 521.761195756 69.1735120772 522.092802355 67.165195 522.6259 c 0
 64.7856050006 523.257550171 62.4815324033 524.169389476 60.306005 525.322 c 0
 58.1213559517 526.47944324 56.065741924 527.878915451 54.180405 529.47825 c 0
 52.2994373205 531.073878111 50.5878383553 532.868746991 49.08033 534.82105 c 0
 47.5752112267 536.770258374 46.2758102426 538.877348066 45.198725 541.092 c 0
 44.1174894795 543.31518554 43.254525193 545.643040911 42.59658 548.02605 c 0
 41.9398579699 550.40462892 41.4887274671 552.84375081 41.325195 555.3059 c 0
 41.0187565041 559.919646175 41.8261858223 564.572221555 43.42004 568.91275 c 0
 45.1386845244 573.59311885 47.5806519894 577.984547329 50.327965 582.1453 c 0
 52.917701087 586.067405454 56.1391752094 589.537207928 59.72033 592.58105 c 2
 222.0783 730.579 l 2
 224.286564222 732.455938568 226.582974508 734.235084681 229.0413 735.77 c 0
 231.522224911 737.319025816 234.110024227 738.695706693 236.7713 739.909 c 0
 243.417656329 742.93911801 250.560267866 744.817094863 257.8043 745.755 c 0
  Spiro
    257.804 745.755 o
    282.804 745.755 v
    292.804 742.755 v
    301.27 738.139 o
    309 734 o
    315.963 728.809 [
    480.712 590.811 ]
    490.105 580.375 o
    497.013 567.143 o
    499.108 553.536 o
    499.329 545.778 o
    495.234 539.322 o
    491.352 533.051 o
    486.252 527.708 o
    480.127 523.552 o
    473.268 520.856 o
    467.123 519.867 o
    460.884 520.085 o
    454.825 521.502 o
    449.388 524.456 o
    444.542 528.469 o
    439.828 532.256 [
    304.433 652.23 v
    305.579 83.5472 c
    305.579 56.5472 c
    302.579 32.5472 o
    291.579 13.5472 o
    271 2 o
    248.854 15.3172 o
    237.854 34.3172 o
    234.854 58.3172 c
    234.854 85.3172 c
    236 654 v
    100.605 534.026 ]
    95.8902 530.239 o
    91.0443 526.226 o
    85.6078 523.272 o
    79.5483 521.855 o
    73.3093 521.637 o
    67.1652 522.626 o
    60.306 525.322 o
    54.1804 529.478 o
    49.0803 534.821 o
    45.1987 541.092 o
    42.5966 548.026 o
    41.3252 555.306 o
    43.42 568.913 o
    50.328 582.145 o
    59.7203 592.581 [
    222.078 730.579 ]
    229.041 735.77 o
    236.771 739.909 o
    0 0 z
  EndSpiro
EndSplineSet
Validated: 1
EndChar
